SplineFontDB: 3.0
FontName: ElaineSans-Light
FullName: Elaine Sans Light
FamilyName: Elaine Sans Light
Weight: Light
Copyright: Copyright (c) 2015 by Wei Huang. All rights reserved.
Version: 1.030;PS 001.030;hotconv 1.0.70;makeotf.lib2.5.58329
ItalicAngle: 0
UnderlinePosition: -300
UnderlineWidth: 50
Ascent: 760
Descent: 240
InvalidEm: 0
sfntRevision: 0x000107ae
LayerCount: 2
Layer: 0 1 "Back" 1
Layer: 1 1 "Fore" 0
XUID: [1021 288 1899785369 7541]
StyleMap: 0x0040
FSType: 4
OS2Version: 3
OS2_WeightWidthSlopeOnly: 0
OS2_UseTypoMetrics: 0
CreationTime: 1436215488
ModificationTime: 1543786638
PfmFamily: 81
TTFWeight: 300
TTFWidth: 5
LineGap: 0
VLineGap: 0
Panose: 0 0 4 0 0 0 0 0 0 0
OS2TypoAscent: 760
OS2TypoAOffset: 0
OS2TypoDescent: -240
OS2TypoDOffset: 0
OS2TypoLinegap: 173
OS2WinAscent: 930
OS2WinAOffset: 0
OS2WinDescent: 243
OS2WinDOffset: 0
HheadAscent: 930
HheadAOffset: 0
HheadDescent: -243
HheadDOffset: 0
OS2SubXSize: 650
OS2SubYSize: 600
OS2SubXOff: 0
OS2SubYOff: 75
OS2SupXSize: 650
OS2SupYSize: 600
OS2SupXOff: 0
OS2SupYOff: 350
OS2StrikeYSize: 50
OS2StrikeYPos: 300
OS2CapHeight: 660
OS2XHeight: 500
OS2Vendor: 'UKWN'
OS2CodePages: 20000093.00000000
OS2UnicodeRanges: 00000007.00000001.00000000.00000000
Lookup: 1 0 0 "'aalt' Access All Alternates lookup 0" { "'aalt' Access All Alternates lookup 0 subtable"  } ['aalt' ('DFLT' <'dflt' > 'grek' <'dflt' > 'latn' <'CAT ' 'MOL ' 'NLD ' 'ROM ' 'TRK ' 'dflt' > ) ]
Lookup: 3 0 0 "'aalt' Access All Alternates lookup 1" { "'aalt' Access All Alternates lookup 1 subtable"  } ['aalt' ('DFLT' <'dflt' > 'grek' <'dflt' > 'latn' <'CAT ' 'MOL ' 'NLD ' 'ROM ' 'TRK ' 'dflt' > ) ]
Lookup: 1 0 0 "'locl' Localized Forms in Latin lookup 2" { "'locl' Localized Forms in Latin lookup 2 subtable"  } ['locl' ('latn' <'TRK ' > ) ]
Lookup: 1 0 0 "'locl' Localized Forms in Latin lookup 3" { "'locl' Localized Forms in Latin lookup 3 subtable"  } ['locl' ('latn' <'TAT ' > ) ]

StartChar: .notdef
Encoding: 65536 -1 0
Width: 500
Flags: W
LayerCount: 2
Fore
SplineSet
50 0 m 1,0,-1
 50 660 l 1,1,-1
 450 660 l 1,2,-1
 450 0 l 1,3,-1
 50 0 l 1,0,-1
130 80 m 1,4,-1
 370 80 l 1,5,-1
 370 580 l 1,6,-1
 130 580 l 1,7,-1
 130 80 l 1,4,-1
EndSplineSet
EndChar

StartChar: exclam
Encoding: 33 33 4
Width: 240
GlyphClass: 2
Flags: W
LayerCount: 2
Fore
SplineSet
150 660 m 1,0,-1
 150 348 l 1,1,-1
 142 194 l 1,2,-1
 98 194 l 1,3,-1
 90 348 l 1,4,-1
 90 660 l 1,5,-1
 150 660 l 1,0,-1
120 91 m 128,-1,7
 142 91 142 91 155.5 77 c 128,-1,8
 169 63 169 63 169 41 c 128,-1,9
 169 19 169 19 155.5 5.5 c 128,-1,10
 142 -8 142 -8 120 -8 c 128,-1,11
 98 -8 98 -8 84 5.5 c 128,-1,12
 70 19 70 19 70 41 c 0,13,14
 70 64 70 64 84 77.5 c 128,-1,6
 98 91 98 91 120 91 c 128,-1,7
EndSplineSet
Substitution2: "'smcp' Lowercase to Small Capitals lookup 12 subtable" exclam.sc
Substitution2: "'c2sc' Capitals to Small Capitals lookup 11 subtable" exclam.sc
Substitution2: "'aalt' Access All Alternates lookup 0 subtable" exclam.sc
EndChar

StartChar: quotedbl
Encoding: 34 34 5
Width: 345
GlyphClass: 2
Flags: W
LayerCount: 2
Fore
SplineSet
139 686 m 1,0,-1
 122 471 l 1,1,-1
 76 471 l 1,2,-1
 76 686 l 1,3,-1
 139 686 l 1,0,-1
280 686 m 1,4,-1
 263 471 l 1,5,-1
 218 471 l 1,6,-1
 218 686 l 1,7,-1
 280 686 l 1,4,-1
EndSplineSet
Substitution2: "'smcp' Lowercase to Small Capitals lookup 12 subtable" quotedbl.sc
Substitution2: "'c2sc' Capitals to Small Capitals lookup 11 subtable" quotedbl.sc
Substitution2: "'aalt' Access All Alternates lookup 0 subtable" quotedbl.sc
EndChar

StartChar: numbersign
Encoding: 35 35 6
Width: 604
GlyphClass: 2
Flags: W
LayerCount: 2
Fore
SplineSet
578 426 m 1,0,-1
 453 426 l 1,1,-1
 425 240 l 1,2,-1
 535 240 l 1,3,-1
 535 196 l 1,4,-1
 418 196 l 1,5,-1
 388 0 l 1,6,-1
 338 0 l 1,7,-1
 367 196 l 1,8,-1
 202 196 l 1,9,-1
 172 0 l 1,10,-1
 121 0 l 1,11,-1
 151 196 l 1,12,-1
 26 196 l 1,13,-1
 26 240 l 1,14,-1
 158 240 l 1,15,-1
 186 426 l 1,16,-1
 69 426 l 1,17,-1
 69 470 l 1,18,-1
 192 470 l 1,19,-1
 221 660 l 1,20,-1
 271 660 l 1,21,-1
 243 470 l 1,22,-1
 409 470 l 1,23,-1
 437 660 l 1,24,-1
 488 660 l 1,25,-1
 459 470 l 1,26,-1
 578 470 l 1,27,-1
 578 426 l 1,0,-1
374 240 m 1,28,-1
 402 426 l 1,29,-1
 236 426 l 1,30,-1
 208 240 l 1,31,-1
 374 240 l 1,28,-1
EndSplineSet
Substitution2: "'tnum' Tabular Numbers lookup 26 subtable" numbersign.tf
Substitution2: "'aalt' Access All Alternates lookup 0 subtable" numbersign.tf
EndChar

StartChar: dollar
Encoding: 36 36 7
Width: 604
GlyphClass: 2
Flags: W
LayerCount: 2
Fore
SplineSet
548 177 m 0,0,1
 548 100 548 100 491 52.5 c 128,-1,2
 434 5 434 5 339 0 c 1,3,-1
 339 -100 l 1,4,-1
 289 -100 l 1,5,-1
 289 1 l 1,6,7
 203 8 203 8 144.5 51.5 c 128,-1,8
 86 95 86 95 63 171 c 1,9,-1
 116 198 l 1,10,11
 128 137 128 137 176 97 c 128,-1,12
 224 57 224 57 289 49 c 1,13,-1
 289 308 l 1,14,15
 241 318 241 318 212.5 327.5 c 128,-1,16
 184 337 184 337 150.5 355 c 128,-1,17
 117 373 117 373 101 403 c 128,-1,18
 85 433 85 433 85 475 c 0,19,20
 85 549 85 549 140 601 c 128,-1,21
 195 653 195 653 289 659 c 1,22,-1
 289 760 l 1,23,-1
 339 760 l 1,24,-1
 339 659 l 1,25,26
 416 654 416 654 465 619.5 c 128,-1,27
 514 585 514 585 544 517 c 1,28,-1
 498 481 l 1,29,30
 475 544 475 544 437.5 575 c 128,-1,31
 400 606 400 606 339 610 c 1,32,-1
 339 347 l 1,33,34
 378 339 378 339 401.5 332.5 c 128,-1,35
 425 326 425 326 456 312.5 c 128,-1,36
 487 299 487 299 505 282.5 c 128,-1,37
 523 266 523 266 535.5 239 c 128,-1,38
 548 212 548 212 548 177 c 0,0,1
139 479 m 0,39,40
 139 426 139 426 177.5 400 c 128,-1,41
 216 374 216 374 289 358 c 1,42,-1
 289 611 l 1,43,44
 217 606 217 606 178 570.5 c 128,-1,45
 139 535 139 535 139 479 c 0,39,40
339 48 m 1,46,47
 410 51 410 51 452 83 c 128,-1,48
 494 115 494 115 494 173 c 0,49,50
 494 202 494 202 482.5 223.5 c 128,-1,51
 471 245 471 245 447 259 c 128,-1,52
 423 273 423 273 399 281 c 128,-1,53
 375 289 375 289 339 297 c 1,54,-1
 339 48 l 1,46,47
EndSplineSet
Substitution2: "'tnum' Tabular Numbers lookup 26 subtable" dollar.tf
Substitution2: "'aalt' Access All Alternates lookup 0 subtable" dollar.tf
EndChar

StartChar: percent
Encoding: 37 37 8
Width: 820
GlyphClass: 2
Flags: W
LayerCount: 2
Fore
SplineSet
191 666 m 0,0,1
 263 666 263 666 303 616.5 c 128,-1,2
 343 567 343 567 343 489 c 128,-1,3
 343 411 343 411 303 362.5 c 128,-1,4
 263 314 263 314 191 314 c 0,5,6
 120 314 120 314 80 362.5 c 128,-1,7
 40 411 40 411 40 489 c 128,-1,8
 40 567 40 567 80 616.5 c 128,-1,9
 120 666 120 666 191 666 c 0,0,1
167 0 m 1,10,-1
 597 660 l 1,11,-1
 652 660 l 1,12,-1
 223 0 l 1,13,-1
 167 0 l 1,10,-1
191 621 m 128,-1,15
 142 621 142 621 116.5 585 c 128,-1,16
 91 549 91 549 91 489 c 0,17,18
 91 430 91 430 116.5 394.5 c 128,-1,19
 142 359 142 359 191 359 c 128,-1,20
 240 359 240 359 266 394.5 c 128,-1,21
 292 430 292 430 292 489 c 0,22,23
 292 549 292 549 266 585 c 128,-1,14
 240 621 240 621 191 621 c 128,-1,15
629 346 m 0,24,25
 700 346 700 346 740 297 c 128,-1,26
 780 248 780 248 780 170 c 128,-1,27
 780 92 780 92 740 43 c 128,-1,28
 700 -6 700 -6 629 -6 c 0,29,30
 557 -6 557 -6 516.5 43 c 128,-1,31
 476 92 476 92 476 170 c 128,-1,32
 476 248 476 248 516.5 297 c 128,-1,33
 557 346 557 346 629 346 c 0,24,25
629 301 m 128,-1,35
 580 301 580 301 554 265.5 c 128,-1,36
 528 230 528 230 528 170 c 128,-1,37
 528 110 528 110 554 74.5 c 128,-1,38
 580 39 580 39 629 39 c 128,-1,39
 678 39 678 39 703.5 74.5 c 128,-1,40
 729 110 729 110 729 170 c 128,-1,41
 729 230 729 230 703.5 265.5 c 128,-1,34
 678 301 678 301 629 301 c 128,-1,35
EndSplineSet
EndChar

StartChar: ampersand
Encoding: 38 38 9
Width: 605
GlyphClass: 2
Flags: W
LayerCount: 2
Fore
SplineSet
478 110 m 1,0,1
 519 64 519 64 547.5 48.5 c 128,-1,2
 576 33 576 33 610 33 c 1,3,-1
 597 -10 l 1,4,5
 559 -10 559 -10 526.5 7 c 128,-1,6
 494 24 494 24 448 73 c 1,7,8
 372 -10 372 -10 249 -10 c 0,9,10
 160 -10 160 -10 103.5 35.5 c 128,-1,11
 47 81 47 81 47 153 c 0,12,13
 47 218 47 218 86 266 c 128,-1,14
 125 314 125 314 212 362 c 1,15,16
 165 422 165 422 148 456 c 128,-1,17
 131 490 131 490 131 527 c 0,18,19
 131 586 131 586 171.5 627.5 c 128,-1,20
 212 669 212 669 281 669 c 0,21,22
 344 669 344 669 386 635.5 c 128,-1,23
 428 602 428 602 428 539 c 0,24,25
 428 482 428 482 398.5 439.5 c 128,-1,26
 369 397 369 397 286 349 c 1,27,28
 310 317 310 317 354 262 c 0,29,30
 403 199 403 199 447 146 c 1,31,32
 501 232 501 232 496 359 c 1,33,-1
 542 354 l 1,34,35
 549 214 549 214 478 110 c 1,0,1
280 620 m 0,36,37
 236 620 236 620 210.5 594 c 128,-1,38
 185 568 185 568 185 528 c 0,39,40
 185 498 185 498 198 472 c 128,-1,41
 211 446 211 446 257 385 c 1,42,43
 329 424 329 424 353 459 c 128,-1,44
 377 494 377 494 377 538 c 0,45,46
 377 577 377 577 351 598.5 c 128,-1,47
 325 620 325 620 280 620 c 0,36,37
246 37 m 0,48,49
 351 37 351 37 417 108 c 1,50,51
 377 153 377 153 316 230 c 2,52,-1
 242 324 l 1,53,54
 164 279 164 279 132.5 242 c 128,-1,55
 101 205 101 205 101 157 c 0,56,57
 101 104 101 104 143 70.5 c 128,-1,58
 185 37 185 37 246 37 c 0,48,49
EndSplineSet
Substitution2: "'smcp' Lowercase to Small Capitals lookup 12 subtable" ampersand.sc
Substitution2: "'c2sc' Capitals to Small Capitals lookup 11 subtable" ampersand.sc
Substitution2: "'aalt' Access All Alternates lookup 0 subtable" ampersand.sc
EndChar

StartChar: quotesingle
Encoding: 39 39 10
Width: 203
GlyphClass: 2
Flags: W
LayerCount: 2
Fore
SplineSet
139 686 m 1,0,-1
 122 471 l 1,1,-1
 76 471 l 1,2,-1
 76 686 l 1,3,-1
 139 686 l 1,0,-1
EndSplineSet
Substitution2: "'smcp' Lowercase to Small Capitals lookup 12 subtable" quotesingle.sc
Substitution2: "'c2sc' Capitals to Small Capitals lookup 11 subtable" quotesingle.sc
Substitution2: "'aalt' Access All Alternates lookup 0 subtable" quotesingle.sc
EndChar

StartChar: parenleft
Encoding: 40 40 11
Width: 315
GlyphClass: 2
Flags: W
LayerCount: 2
Fore
SplineSet
261 747 m 1,0,-1
 293 714 l 1,1,2
 198 630 198 630 157 528 c 128,-1,3
 116 426 116 426 116 282 c 0,4,5
 116 139 116 139 157 37 c 128,-1,6
 198 -65 198 -65 293 -149 c 1,7,-1
 261 -182 l 1,8,9
 58 -8 58 -8 58 282 c 0,10,11
 58 573 58 573 261 747 c 1,0,-1
EndSplineSet
Substitution2: "'case' Case-Sensitive Forms lookup 29 subtable" parenleft.case
Substitution2: "'sups' Superscript lookup 15 subtable" uni207D
Substitution2: "'subs' Subscript lookup 14 subtable" uni208D
Substitution2: "'sinf' Scientific Inferiors lookup 13 subtable" uni208D
AlternateSubs2: "'aalt' Access All Alternates lookup 1 subtable" uni208D uni207D parenleft.case
EndChar

StartChar: parenright
Encoding: 41 41 12
Width: 315
GlyphClass: 2
Flags: W
LayerCount: 2
Fore
SplineSet
54 747 m 1,0,1
 257 573 257 573 257 282 c 0,2,3
 257 -8 257 -8 54 -182 c 1,4,-1
 22 -149 l 1,5,6
 117 -65 117 -65 158 37 c 128,-1,7
 199 139 199 139 199 282 c 0,8,9
 199 426 199 426 158 528 c 128,-1,10
 117 630 117 630 22 714 c 1,11,-1
 54 747 l 1,0,1
EndSplineSet
Substitution2: "'case' Case-Sensitive Forms lookup 29 subtable" parenright.case
Substitution2: "'sups' Superscript lookup 15 subtable" uni207E
Substitution2: "'subs' Subscript lookup 14 subtable" uni208E
Substitution2: "'sinf' Scientific Inferiors lookup 13 subtable" uni208E
AlternateSubs2: "'aalt' Access All Alternates lookup 1 subtable" uni208E uni207E parenright.case
EndChar

StartChar: asterisk
Encoding: 42 42 13
Width: 550
GlyphClass: 2
Flags: W
LayerCount: 2
Fore
SplineSet
301 493 m 1,0,-1
 355 432 l 1,1,-1
 428 330 l 1,2,-1
 390 303 l 1,3,-1
 316 404 l 1,4,-1
 275 474 l 1,5,-1
 234 404 l 1,6,-1
 160 303 l 1,7,-1
 122 330 l 1,8,-1
 195 432 l 1,9,-1
 248 493 l 1,10,-1
 169 511 l 1,11,-1
 50 550 l 1,12,-1
 64 594 l 1,13,-1
 184 557 l 1,14,-1
 258 524 l 1,15,-1
 251 604 l 1,16,-1
 251 730 l 1,17,-1
 299 730 l 1,18,-1
 299 604 l 1,19,-1
 291 524 l 1,20,-1
 365 557 l 1,21,-1
 485 594 l 1,22,-1
 499 550 l 1,23,-1
 380 511 l 1,24,-1
 301 493 l 1,0,-1
EndSplineSet
EndChar

StartChar: plus
Encoding: 43 43 14
Width: 604
GlyphClass: 2
Flags: W
LayerCount: 2
Fore
SplineSet
541 343 m 1,0,-1
 541 290 l 1,1,-1
 329 290 l 1,2,-1
 329 72 l 1,3,-1
 275 72 l 1,4,-1
 275 290 l 1,5,-1
 63 290 l 1,6,-1
 63 343 l 1,7,-1
 275 343 l 1,8,-1
 275 557 l 1,9,-1
 329 557 l 1,10,-1
 329 343 l 1,11,-1
 541 343 l 1,0,-1
EndSplineSet
Substitution2: "'sups' Superscript lookup 15 subtable" uni207A
Substitution2: "'subs' Subscript lookup 14 subtable" uni208A
Substitution2: "'sinf' Scientific Inferiors lookup 13 subtable" uni208A
AlternateSubs2: "'aalt' Access All Alternates lookup 1 subtable" uni208A uni207A
EndChar

StartChar: comma
Encoding: 44 44 15
Width: 302
GlyphClass: 2
Flags: W
LayerCount: 2
Fore
SplineSet
153 91 m 0,0,1
 181 91 181 91 197 69.5 c 128,-1,2
 213 48 213 48 213 13 c 0,3,4
 213 -32 213 -32 190 -71 c 128,-1,5
 167 -110 167 -110 122 -132 c 1,6,-1
 90 -104 l 1,7,8
 126 -91 126 -91 149 -61 c 128,-1,9
 172 -31 172 -31 173 -1 c 1,10,-1
 170 1 l 1,11,12
 162 -8 162 -8 146 -8 c 0,13,14
 129 -8 129 -8 116 5 c 128,-1,15
 103 18 103 18 103 40 c 0,16,17
 103 61 103 61 117.5 76 c 128,-1,18
 132 91 132 91 153 91 c 0,0,1
EndSplineSet
Substitution2: "'tnum' Tabular Numbers lookup 26 subtable" comma.tf
Substitution2: "'sups' Superscript lookup 15 subtable" commasuperior
Substitution2: "'subs' Subscript lookup 14 subtable" commainferior
Substitution2: "'sinf' Scientific Inferiors lookup 13 subtable" commainferior
AlternateSubs2: "'aalt' Access All Alternates lookup 1 subtable" commainferior commasuperior comma.tf
EndChar

StartChar: hyphen
Encoding: 45 45 16
Width: 477
GlyphClass: 2
Flags: W
LayerCount: 2
Fore
SplineSet
394 294 m 1,0,-1
 394 235 l 1,1,-1
 82 235 l 1,2,-1
 82 294 l 1,3,-1
 394 294 l 1,0,-1
EndSplineSet
Substitution2: "'case' Case-Sensitive Forms lookup 29 subtable" hyphen.case
Substitution2: "'sups' Superscript lookup 15 subtable" hyphensuperior
Substitution2: "'subs' Subscript lookup 14 subtable" hypheninferior
Substitution2: "'sinf' Scientific Inferiors lookup 13 subtable" hypheninferior
AlternateSubs2: "'aalt' Access All Alternates lookup 1 subtable" hypheninferior hyphensuperior hyphen.case
EndChar

StartChar: period
Encoding: 46 46 17
Width: 302
GlyphClass: 2
Flags: W
LayerCount: 2
Fore
SplineSet
151 91 m 128,-1,1
 174 91 174 91 187.5 77.5 c 128,-1,2
 201 64 201 64 201 41 c 0,3,4
 201 19 201 19 187 5.5 c 128,-1,5
 173 -8 173 -8 151 -8 c 128,-1,6
 129 -8 129 -8 115 5.5 c 128,-1,7
 101 19 101 19 101 41 c 0,8,9
 101 64 101 64 114.5 77.5 c 128,-1,0
 128 91 128 91 151 91 c 128,-1,1
EndSplineSet
Substitution2: "'tnum' Tabular Numbers lookup 26 subtable" period.tf
Substitution2: "'sups' Superscript lookup 15 subtable" periodsuperior
Substitution2: "'subs' Subscript lookup 14 subtable" periodinferior
Substitution2: "'sinf' Scientific Inferiors lookup 13 subtable" periodinferior
AlternateSubs2: "'aalt' Access All Alternates lookup 1 subtable" periodinferior periodsuperior period.tf
EndChar

StartChar: slash
Encoding: 47 47 18
Width: 406
GlyphClass: 2
Flags: W
LayerCount: 2
Fore
SplineSet
375 730 m 1,0,-1
 85 -70 l 1,1,-1
 31 -70 l 1,2,-1
 320 730 l 1,3,-1
 375 730 l 1,0,-1
EndSplineSet
Substitution2: "'frac' Diagonal Fractions lookup 18 subtable" fraction
Substitution2: "'aalt' Access All Alternates lookup 0 subtable" fraction
EndChar

StartChar: zero
Encoding: 48 48 19
Width: 604
GlyphClass: 2
Flags: W
LayerCount: 2
Fore
SplineSet
302 -10 m 128,-1,1
 184 -10 184 -10 122 77.5 c 128,-1,2
 60 165 60 165 60 330 c 128,-1,3
 60 495 60 495 122 582.5 c 128,-1,4
 184 670 184 670 302 670 c 128,-1,5
 420 670 420 670 482 582.5 c 128,-1,6
 544 495 544 495 544 330 c 128,-1,7
 544 165 544 165 482 77.5 c 128,-1,0
 420 -10 420 -10 302 -10 c 128,-1,1
302 41 m 128,-1,9
 391 41 391 41 438 115.5 c 128,-1,10
 485 190 485 190 485 330 c 128,-1,11
 485 470 485 470 438 544.5 c 128,-1,12
 391 619 391 619 302 619 c 128,-1,13
 213 619 213 619 166 544.5 c 128,-1,14
 119 470 119 470 119 330 c 128,-1,15
 119 190 119 190 166 115.5 c 128,-1,8
 213 41 213 41 302 41 c 128,-1,9
EndSplineSet
Substitution2: "'zero' Slashed Zero lookup 28 subtable" zero.zero
Substitution2: "'onum' Oldstyle Figures lookup 27 subtable" zero.osf
Substitution2: "'tnum' Tabular Numbers lookup 26 subtable" zero.tf
Substitution2: "'frac' Diagonal Fractions lookup 19 subtable" zero.numr
Substitution2: "'dnom' Denominators lookup 17 subtable" zero.dnom
Substitution2: "'numr' Numerators lookup 16 subtable" zero.numr
Substitution2: "'sups' Superscript lookup 15 subtable" uni2070
Substitution2: "'subs' Subscript lookup 14 subtable" uni2080
Substitution2: "'sinf' Scientific Inferiors lookup 13 subtable" uni2080
Substitution2: "'smcp' Lowercase to Small Capitals lookup 12 subtable" zero.sc
Substitution2: "'c2sc' Capitals to Small Capitals lookup 11 subtable" zero.sc
AlternateSubs2: "'aalt' Access All Alternates lookup 1 subtable" zero.sc uni2080 uni2070 zero.numr zero.dnom zero.tf zero.osf zero.zero
EndChar

StartChar: one
Encoding: 49 49 20
Width: 604
GlyphClass: 2
Flags: W
LayerCount: 2
Fore
SplineSet
371 51 m 1,0,-1
 556 51 l 1,1,-1
 556 0 l 1,2,-1
 109 0 l 1,3,-1
 109 51 l 1,4,-1
 314 51 l 1,5,-1
 314 515 l 2,6,7
 314 538 314 538 316 588 c 1,8,9
 279 550 279 550 222.5 519 c 128,-1,10
 166 488 166 488 114 474 c 1,11,-1
 99 526 l 1,12,13
 148 538 148 538 222 579 c 128,-1,14
 296 620 296 620 321 660 c 1,15,-1
 371 660 l 1,16,-1
 371 51 l 1,0,-1
EndSplineSet
Substitution2: "'onum' Oldstyle Figures lookup 27 subtable" one.osf
Substitution2: "'tnum' Tabular Numbers lookup 26 subtable" one.tf
Substitution2: "'nalt' Alternate Annotation Forms lookup 23 subtable" uni2780
Substitution2: "'frac' Diagonal Fractions lookup 19 subtable" one.numr
Substitution2: "'dnom' Denominators lookup 17 subtable" one.dnom
Substitution2: "'numr' Numerators lookup 16 subtable" one.numr
Substitution2: "'sups' Superscript lookup 15 subtable" uni00B9
Substitution2: "'subs' Subscript lookup 14 subtable" uni2081
Substitution2: "'sinf' Scientific Inferiors lookup 13 subtable" uni2081
Substitution2: "'smcp' Lowercase to Small Capitals lookup 12 subtable" one.sc
Substitution2: "'c2sc' Capitals to Small Capitals lookup 11 subtable" one.sc
AlternateSubs2: "'aalt' Access All Alternates lookup 1 subtable" one.sc uni2081 uni00B9 one.numr one.dnom uni2780 one.tf one.osf
EndChar

StartChar: two
Encoding: 50 50 21
Width: 604
GlyphClass: 2
Flags: W
LayerCount: 2
Fore
SplineSet
90 0 m 1,0,-1
 90 47 l 1,1,2
 296 205 296 205 374.5 291.5 c 128,-1,3
 453 378 453 378 453 467 c 0,4,5
 453 536 453 536 410.5 576.5 c 128,-1,6
 368 617 368 617 296 617 c 0,7,8
 221 617 221 617 175.5 569.5 c 128,-1,9
 130 522 130 522 124 441 c 1,10,-1
 74 470 l 1,11,12
 84 561 84 561 142.5 615.5 c 128,-1,13
 201 670 201 670 298 670 c 0,14,15
 396 670 396 670 454 614.5 c 128,-1,16
 512 559 512 559 512 467 c 0,17,18
 512 371 512 371 434 278 c 128,-1,19
 356 185 356 185 173 52 c 1,20,-1
 173 51 l 1,21,22
 207 53 207 53 246 53 c 2,23,-1
 532 53 l 1,24,-1
 532 0 l 1,25,-1
 90 0 l 1,0,-1
EndSplineSet
Substitution2: "'onum' Oldstyle Figures lookup 27 subtable" two.osf
Substitution2: "'tnum' Tabular Numbers lookup 26 subtable" two.tf
Substitution2: "'nalt' Alternate Annotation Forms lookup 23 subtable" uni2781
Substitution2: "'frac' Diagonal Fractions lookup 19 subtable" two.numr
Substitution2: "'dnom' Denominators lookup 17 subtable" two.dnom
Substitution2: "'numr' Numerators lookup 16 subtable" two.numr
Substitution2: "'sups' Superscript lookup 15 subtable" uni00B2
Substitution2: "'subs' Subscript lookup 14 subtable" uni2082
Substitution2: "'sinf' Scientific Inferiors lookup 13 subtable" uni2082
Substitution2: "'smcp' Lowercase to Small Capitals lookup 12 subtable" two.sc
Substitution2: "'c2sc' Capitals to Small Capitals lookup 11 subtable" two.sc
AlternateSubs2: "'aalt' Access All Alternates lookup 1 subtable" two.sc uni2082 uni00B2 two.numr two.dnom uni2781 two.tf two.osf
EndChar

StartChar: three
Encoding: 51 51 22
Width: 604
GlyphClass: 2
Flags: W
LayerCount: 2
Fore
SplineSet
304 670 m 0,0,1
 398 670 398 670 451 621.5 c 128,-1,2
 504 573 504 573 504 498 c 0,3,4
 504 431 504 431 468 384.5 c 128,-1,5
 432 338 432 338 378 334 c 1,6,-1
 378 333 l 1,7,8
 441 331 441 331 480 285 c 128,-1,9
 519 239 519 239 519 175 c 0,10,11
 519 93 519 93 457.5 41.5 c 128,-1,12
 396 -10 396 -10 299 -10 c 0,13,14
 213 -10 213 -10 155.5 30 c 128,-1,15
 98 70 98 70 73 145 c 1,16,-1
 128 175 l 1,17,18
 161 43 161 43 302 43 c 0,19,20
 374 43 374 43 417.5 81 c 128,-1,21
 461 119 461 119 460 182 c 0,22,23
 460 306 460 306 302 306 c 2,24,-1
 268 306 l 1,25,-1
 268 359 l 1,26,-1
 302 359 l 2,27,28
 371 359 371 359 407.5 392.5 c 128,-1,29
 444 426 444 426 445 486 c 0,30,31
 445 549 445 549 408.5 583 c 128,-1,32
 372 617 372 617 304 617 c 0,33,34
 244 617 244 617 205 587.5 c 128,-1,35
 166 558 166 558 151 506 c 1,36,-1
 98 531 l 1,37,38
 121 595 121 595 176 632.5 c 128,-1,39
 231 670 231 670 304 670 c 0,0,1
EndSplineSet
Substitution2: "'onum' Oldstyle Figures lookup 27 subtable" three.osf
Substitution2: "'tnum' Tabular Numbers lookup 26 subtable" three.tf
Substitution2: "'nalt' Alternate Annotation Forms lookup 23 subtable" uni2782
Substitution2: "'frac' Diagonal Fractions lookup 19 subtable" three.numr
Substitution2: "'dnom' Denominators lookup 17 subtable" three.dnom
Substitution2: "'numr' Numerators lookup 16 subtable" three.numr
Substitution2: "'sups' Superscript lookup 15 subtable" uni00B3
Substitution2: "'subs' Subscript lookup 14 subtable" uni2083
Substitution2: "'sinf' Scientific Inferiors lookup 13 subtable" uni2083
Substitution2: "'smcp' Lowercase to Small Capitals lookup 12 subtable" three.sc
Substitution2: "'c2sc' Capitals to Small Capitals lookup 11 subtable" three.sc
AlternateSubs2: "'aalt' Access All Alternates lookup 1 subtable" three.sc uni2083 uni00B3 three.numr three.dnom uni2782 three.tf three.osf
EndChar

StartChar: four
Encoding: 52 52 23
Width: 604
GlyphClass: 2
Flags: W
LayerCount: 2
Fore
SplineSet
370 0 m 1,0,-1
 370 185 l 1,1,-1
 49 185 l 1,2,-1
 49 227 l 1,3,-1
 351 660 l 1,4,-1
 427 660 l 1,5,-1
 427 234 l 1,6,-1
 560 234 l 1,7,-1
 560 185 l 1,8,-1
 427 185 l 1,9,-1
 427 0 l 1,10,-1
 370 0 l 1,0,-1
108 234 m 1,11,-1
 370 234 l 1,12,-1
 370 477 l 2,13,14
 370 565 370 565 372 610 c 1,15,-1
 371 610 l 1,16,17
 347 566 347 566 312 517 c 2,18,-1
 108 234 l 1,11,-1
EndSplineSet
Substitution2: "'onum' Oldstyle Figures lookup 27 subtable" four.osf
Substitution2: "'tnum' Tabular Numbers lookup 26 subtable" four.tf
Substitution2: "'nalt' Alternate Annotation Forms lookup 23 subtable" uni2783
Substitution2: "'frac' Diagonal Fractions lookup 19 subtable" four.numr
Substitution2: "'dnom' Denominators lookup 17 subtable" four.dnom
Substitution2: "'numr' Numerators lookup 16 subtable" four.numr
Substitution2: "'sups' Superscript lookup 15 subtable" uni2074
Substitution2: "'subs' Subscript lookup 14 subtable" uni2084
Substitution2: "'sinf' Scientific Inferiors lookup 13 subtable" uni2084
Substitution2: "'smcp' Lowercase to Small Capitals lookup 12 subtable" four.sc
Substitution2: "'c2sc' Capitals to Small Capitals lookup 11 subtable" four.sc
AlternateSubs2: "'aalt' Access All Alternates lookup 1 subtable" four.sc uni2084 uni2074 four.numr four.dnom uni2783 four.tf four.osf
EndChar

StartChar: five
Encoding: 53 53 24
Width: 604
GlyphClass: 2
Flags: W
LayerCount: 2
Fore
SplineSet
323 415 m 0,0,1
 416 415 416 415 473.5 357 c 128,-1,2
 531 299 531 299 531 205 c 0,3,4
 531 107 531 107 471 48.5 c 128,-1,5
 411 -10 411 -10 310 -10 c 0,6,7
 130 -10 130 -10 82 144 c 1,8,-1
 137 172 l 1,9,10
 167 43 167 43 308 43 c 0,11,12
 383 43 383 43 427.5 86 c 128,-1,13
 472 129 472 129 472 202 c 0,14,15
 471 277 471 277 429 319.5 c 128,-1,16
 387 362 387 362 314 362 c 0,17,18
 201 362 201 362 150 290 c 1,19,-1
 99 290 l 1,20,-1
 136 660 l 1,21,-1
 502 660 l 1,22,-1
 502 607 l 1,23,-1
 184 607 l 1,24,-1
 158 363 l 1,25,-1
 157 350 l 1,26,-1
 158 350 l 1,27,28
 212 415 212 415 323 415 c 0,0,1
EndSplineSet
Substitution2: "'onum' Oldstyle Figures lookup 27 subtable" five.osf
Substitution2: "'tnum' Tabular Numbers lookup 26 subtable" five.tf
Substitution2: "'nalt' Alternate Annotation Forms lookup 23 subtable" uni2784
Substitution2: "'frac' Diagonal Fractions lookup 19 subtable" five.numr
Substitution2: "'dnom' Denominators lookup 17 subtable" five.dnom
Substitution2: "'numr' Numerators lookup 16 subtable" five.numr
Substitution2: "'sups' Superscript lookup 15 subtable" uni2075
Substitution2: "'subs' Subscript lookup 14 subtable" uni2085
Substitution2: "'sinf' Scientific Inferiors lookup 13 subtable" uni2085
Substitution2: "'smcp' Lowercase to Small Capitals lookup 12 subtable" five.sc
Substitution2: "'c2sc' Capitals to Small Capitals lookup 11 subtable" five.sc
AlternateSubs2: "'aalt' Access All Alternates lookup 1 subtable" five.sc uni2085 uni2075 five.numr five.dnom uni2784 five.tf five.osf
EndChar

StartChar: six
Encoding: 54 54 25
Width: 604
GlyphClass: 2
Flags: W
LayerCount: 2
Fore
SplineSet
337 670 m 0,0,1
 483 670 483 670 536 538 c 1,2,-1
 483 513 l 1,3,4
 449 617 449 617 334 617 c 0,5,6
 239 617 239 617 186.5 530.5 c 128,-1,7
 134 444 134 444 134 316 c 0,8,9
 134 306 134 306 135.5 286.5 c 128,-1,10
 137 267 137 267 137 260 c 1,11,-1
 141 260 l 1,12,13
 151 331 151 331 207.5 370.5 c 128,-1,14
 264 410 264 410 333 410 c 0,15,16
 432 410 432 410 491 353 c 128,-1,17
 550 296 550 296 550 200 c 128,-1,18
 550 104 550 104 490 47 c 128,-1,19
 430 -10 430 -10 328 -10 c 0,20,21
 209 -10 209 -10 144.5 81.5 c 128,-1,22
 80 173 80 173 80 330 c 0,23,24
 80 493 80 493 151.5 581.5 c 128,-1,25
 223 670 223 670 337 670 c 0,0,1
329 355 m 0,26,27
 257 355 257 355 211 310 c 128,-1,28
 165 265 165 265 165 201 c 0,29,30
 165 132 165 132 210 88 c 128,-1,31
 255 44 255 44 327 44 c 0,32,33
 403 44 403 44 447 86 c 128,-1,34
 491 128 491 128 491 201 c 0,35,36
 491 271 491 271 447.5 313 c 128,-1,37
 404 355 404 355 329 355 c 0,26,27
EndSplineSet
Substitution2: "'onum' Oldstyle Figures lookup 27 subtable" six.osf
Substitution2: "'tnum' Tabular Numbers lookup 26 subtable" six.tf
Substitution2: "'nalt' Alternate Annotation Forms lookup 23 subtable" uni2785
Substitution2: "'frac' Diagonal Fractions lookup 19 subtable" six.numr
Substitution2: "'dnom' Denominators lookup 17 subtable" six.dnom
Substitution2: "'numr' Numerators lookup 16 subtable" six.numr
Substitution2: "'sups' Superscript lookup 15 subtable" uni2076
Substitution2: "'subs' Subscript lookup 14 subtable" uni2086
Substitution2: "'sinf' Scientific Inferiors lookup 13 subtable" uni2086
Substitution2: "'smcp' Lowercase to Small Capitals lookup 12 subtable" six.sc
Substitution2: "'c2sc' Capitals to Small Capitals lookup 11 subtable" six.sc
AlternateSubs2: "'aalt' Access All Alternates lookup 1 subtable" six.sc uni2086 uni2076 six.numr six.dnom uni2785 six.tf six.osf
EndChar

StartChar: seven
Encoding: 55 55 26
Width: 604
GlyphClass: 2
Flags: W
LayerCount: 2
Fore
SplineSet
55 660 m 1,0,-1
 567 660 l 1,1,-1
 567 607 l 1,2,3
 306 348 306 348 299 0 c 1,4,-1
 240 0 l 1,5,6
 249 350 249 350 503 607 c 1,7,-1
 55 607 l 1,8,-1
 55 660 l 1,0,-1
EndSplineSet
Substitution2: "'onum' Oldstyle Figures lookup 27 subtable" seven.osf
Substitution2: "'tnum' Tabular Numbers lookup 26 subtable" seven.tf
Substitution2: "'nalt' Alternate Annotation Forms lookup 23 subtable" uni2786
Substitution2: "'frac' Diagonal Fractions lookup 19 subtable" seven.numr
Substitution2: "'dnom' Denominators lookup 17 subtable" seven.dnom
Substitution2: "'numr' Numerators lookup 16 subtable" seven.numr
Substitution2: "'sups' Superscript lookup 15 subtable" uni2077
Substitution2: "'subs' Subscript lookup 14 subtable" uni2087
Substitution2: "'sinf' Scientific Inferiors lookup 13 subtable" uni2087
Substitution2: "'smcp' Lowercase to Small Capitals lookup 12 subtable" seven.sc
Substitution2: "'c2sc' Capitals to Small Capitals lookup 11 subtable" seven.sc
AlternateSubs2: "'aalt' Access All Alternates lookup 1 subtable" seven.sc uni2087 uni2077 seven.numr seven.dnom uni2786 seven.tf seven.osf
EndChar

StartChar: eight
Encoding: 56 56 27
Width: 604
GlyphClass: 2
Flags: W
LayerCount: 2
Fore
SplineSet
302 669 m 128,-1,1
 393 669 393 669 447.5 623.5 c 128,-1,2
 502 578 502 578 502 500 c 0,3,4
 502 446 502 446 473 405.5 c 128,-1,5
 444 365 444 365 394 348 c 1,6,-1
 394 347 l 1,7,8
 457 329 457 329 493.5 283.5 c 128,-1,9
 530 238 530 238 530 175 c 0,10,11
 530 91 530 91 467.5 40.5 c 128,-1,12
 405 -10 405 -10 302 -10 c 0,13,14
 200 -10 200 -10 136.5 40.5 c 128,-1,15
 73 91 73 91 73 175 c 0,16,17
 73 238 73 238 110 283.5 c 128,-1,18
 147 329 147 329 210 347 c 1,19,-1
 210 348 l 1,20,21
 160 365 160 365 131 405 c 128,-1,22
 102 445 102 445 102 500 c 0,23,24
 102 578 102 578 156.5 623.5 c 128,-1,0
 211 669 211 669 302 669 c 128,-1,1
302 616 m 128,-1,26
 237 616 237 616 199 583.5 c 128,-1,27
 161 551 161 551 161 495 c 0,28,29
 161 440 161 440 199.5 406.5 c 128,-1,30
 238 373 238 373 302 373 c 0,31,32
 365 373 365 373 404 406.5 c 128,-1,33
 443 440 443 440 443 495 c 0,34,35
 443 551 443 551 405 583.5 c 128,-1,25
 367 616 367 616 302 616 c 128,-1,26
302 43 m 128,-1,37
 379 43 379 43 425 80.5 c 128,-1,38
 471 118 471 118 471 180 c 0,39,40
 471 243 471 243 424.5 281 c 128,-1,41
 378 319 378 319 302 319 c 128,-1,42
 226 319 226 319 179 281 c 128,-1,43
 132 243 132 243 132 180 c 0,44,45
 132 118 132 118 178.5 80.5 c 128,-1,36
 225 43 225 43 302 43 c 128,-1,37
EndSplineSet
Substitution2: "'onum' Oldstyle Figures lookup 27 subtable" eight.osf
Substitution2: "'tnum' Tabular Numbers lookup 26 subtable" eight.tf
Substitution2: "'nalt' Alternate Annotation Forms lookup 23 subtable" uni2787
Substitution2: "'frac' Diagonal Fractions lookup 19 subtable" eight.numr
Substitution2: "'dnom' Denominators lookup 17 subtable" eight.dnom
Substitution2: "'numr' Numerators lookup 16 subtable" eight.numr
Substitution2: "'sups' Superscript lookup 15 subtable" uni2078
Substitution2: "'subs' Subscript lookup 14 subtable" uni2088
Substitution2: "'sinf' Scientific Inferiors lookup 13 subtable" uni2088
Substitution2: "'smcp' Lowercase to Small Capitals lookup 12 subtable" eight.sc
Substitution2: "'c2sc' Capitals to Small Capitals lookup 11 subtable" eight.sc
AlternateSubs2: "'aalt' Access All Alternates lookup 1 subtable" eight.sc uni2088 uni2078 eight.numr eight.dnom uni2787 eight.tf eight.osf
EndChar

StartChar: nine
Encoding: 57 57 28
Width: 604
GlyphClass: 2
Flags: W
LayerCount: 2
Fore
SplineSet
287 670 m 0,0,1
 406 670 406 670 470.5 578.5 c 128,-1,2
 535 487 535 487 535 330 c 0,3,4
 535 164 535 164 470.5 77 c 128,-1,5
 406 -10 406 -10 288 -10 c 0,6,7
 115 -10 115 -10 66 136 c 1,8,-1
 123 166 l 1,9,10
 153 43 153 43 287 43 c 0,11,12
 483 43 483 43 483 349 c 0,13,14
 483 375 483 375 478 403 c 1,15,-1
 475 403 l 1,16,17
 467 328 467 328 410 289 c 128,-1,18
 353 250 353 250 282 250 c 0,19,20
 183 250 183 250 124 307 c 128,-1,21
 65 364 65 364 65 460 c 128,-1,22
 65 556 65 556 125 613 c 128,-1,23
 185 670 185 670 287 670 c 0,0,1
288 616 m 0,24,25
 212 616 212 616 168 574 c 128,-1,26
 124 532 124 532 124 459 c 0,27,28
 124 388 124 388 167.5 346.5 c 128,-1,29
 211 305 211 305 286 305 c 0,30,31
 357 305 357 305 403.5 350 c 128,-1,32
 450 395 450 395 450 459 c 0,33,34
 450 528 450 528 405 572 c 128,-1,35
 360 616 360 616 288 616 c 0,24,25
EndSplineSet
Substitution2: "'onum' Oldstyle Figures lookup 27 subtable" nine.osf
Substitution2: "'tnum' Tabular Numbers lookup 26 subtable" nine.tf
Substitution2: "'nalt' Alternate Annotation Forms lookup 23 subtable" uni2788
Substitution2: "'frac' Diagonal Fractions lookup 19 subtable" nine.numr
Substitution2: "'dnom' Denominators lookup 17 subtable" nine.dnom
Substitution2: "'numr' Numerators lookup 16 subtable" nine.numr
Substitution2: "'sups' Superscript lookup 15 subtable" uni2079
Substitution2: "'subs' Subscript lookup 14 subtable" uni2089
Substitution2: "'sinf' Scientific Inferiors lookup 13 subtable" uni2089
Substitution2: "'smcp' Lowercase to Small Capitals lookup 12 subtable" nine.sc
Substitution2: "'c2sc' Capitals to Small Capitals lookup 11 subtable" nine.sc
AlternateSubs2: "'aalt' Access All Alternates lookup 1 subtable" nine.sc uni2089 uni2079 nine.numr nine.dnom uni2788 nine.tf nine.osf
EndChar

StartChar: colon
Encoding: 58 58 29
Width: 302
GlyphClass: 2
Flags: W
LayerCount: 2
Fore
SplineSet
151 506 m 128,-1,1
 174 506 174 506 187.5 492.5 c 128,-1,2
 201 479 201 479 201 457 c 0,3,4
 201 434 201 434 187.5 420.5 c 128,-1,5
 174 407 174 407 151 407 c 128,-1,6
 128 407 128 407 114.5 420.5 c 128,-1,7
 101 434 101 434 101 457 c 0,8,9
 101 479 101 479 114.5 492.5 c 128,-1,0
 128 506 128 506 151 506 c 128,-1,1
151 91 m 128,-1,11
 174 91 174 91 187.5 77.5 c 128,-1,12
 201 64 201 64 201 41 c 0,13,14
 201 19 201 19 187 5.5 c 128,-1,15
 173 -8 173 -8 151 -8 c 128,-1,16
 129 -8 129 -8 115 5.5 c 128,-1,17
 101 19 101 19 101 41 c 0,18,19
 101 64 101 64 114.5 77.5 c 128,-1,10
 128 91 128 91 151 91 c 128,-1,11
EndSplineSet
Substitution2: "'tnum' Tabular Numbers lookup 26 subtable" colon.tf
Substitution2: "'sups' Superscript lookup 15 subtable" colonsuperior
Substitution2: "'subs' Subscript lookup 14 subtable" coloninferior
Substitution2: "'sinf' Scientific Inferiors lookup 13 subtable" coloninferior
AlternateSubs2: "'aalt' Access All Alternates lookup 1 subtable" coloninferior colonsuperior colon.tf
EndChar

StartChar: semicolon
Encoding: 59 59 30
Width: 302
GlyphClass: 2
Flags: W
LayerCount: 2
Fore
SplineSet
156 407 m 128,-1,1
 134 407 134 407 120.5 421 c 128,-1,2
 107 435 107 435 107 457 c 128,-1,3
 107 479 107 479 120.5 492.5 c 128,-1,4
 134 506 134 506 156 506 c 0,5,6
 179 506 179 506 192.5 492.5 c 128,-1,7
 206 479 206 479 206 457 c 0,8,9
 206 434 206 434 192 420.5 c 128,-1,0
 178 407 178 407 156 407 c 128,-1,1
153 91 m 0,10,11
 181 91 181 91 197 69.5 c 128,-1,12
 213 48 213 48 213 13 c 0,13,14
 213 -32 213 -32 190 -71 c 128,-1,15
 167 -110 167 -110 122 -132 c 1,16,-1
 90 -104 l 1,17,18
 126 -91 126 -91 149 -61 c 128,-1,19
 172 -31 172 -31 173 -1 c 1,20,-1
 170 1 l 1,21,22
 162 -8 162 -8 146 -8 c 0,23,24
 129 -8 129 -8 116 5 c 128,-1,25
 103 18 103 18 103 40 c 0,26,27
 103 61 103 61 117.5 76 c 128,-1,28
 132 91 132 91 153 91 c 0,10,11
EndSplineSet
Substitution2: "'tnum' Tabular Numbers lookup 26 subtable" semicolon.tf
Substitution2: "'aalt' Access All Alternates lookup 0 subtable" semicolon.tf
EndChar

StartChar: less
Encoding: 60 60 31
Width: 604
GlyphClass: 2
Flags: W
LayerCount: 2
Fore
SplineSet
542 560 m 1,0,-1
 542 501 l 1,1,-1
 123 300 l 1,2,-1
 542 98 l 1,3,-1
 542 39 l 1,4,-1
 78 266 l 1,5,-1
 78 333 l 1,6,-1
 542 560 l 1,0,-1
EndSplineSet
EndChar

StartChar: equal
Encoding: 61 61 32
Width: 604
GlyphClass: 2
Flags: W
LayerCount: 2
Fore
SplineSet
532 434 m 1,0,-1
 532 381 l 1,1,-1
 72 381 l 1,2,-1
 72 434 l 1,3,-1
 532 434 l 1,0,-1
532 233 m 1,4,-1
 532 180 l 1,5,-1
 72 180 l 1,6,-1
 72 233 l 1,7,-1
 532 233 l 1,4,-1
EndSplineSet
Substitution2: "'sups' Superscript lookup 15 subtable" uni207C
Substitution2: "'subs' Subscript lookup 14 subtable" uni208C
Substitution2: "'sinf' Scientific Inferiors lookup 13 subtable" uni208C
AlternateSubs2: "'aalt' Access All Alternates lookup 1 subtable" uni208C uni207C
EndChar

StartChar: greater
Encoding: 62 62 33
Width: 604
GlyphClass: 2
Flags: W
LayerCount: 2
Fore
SplineSet
62 560 m 1,0,-1
 526 333 l 1,1,-1
 526 266 l 1,2,-1
 62 39 l 1,3,-1
 62 98 l 1,4,-1
 481 300 l 1,5,-1
 62 501 l 1,6,-1
 62 560 l 1,0,-1
EndSplineSet
EndChar

StartChar: question
Encoding: 63 63 34
Width: 517
GlyphClass: 2
Flags: W
LayerCount: 2
Fore
SplineSet
262 670 m 0,0,1
 355 670 355 670 412.5 624 c 128,-1,2
 470 578 470 578 470 500 c 0,3,4
 470 337 470 337 279 303 c 1,5,-1
 279 187 l 1,6,-1
 220 187 l 1,7,-1
 220 334 l 1,8,9
 324 356 324 356 367.5 392 c 128,-1,10
 411 428 411 428 411 494 c 0,11,12
 411 551 411 551 370.5 584 c 128,-1,13
 330 617 330 617 258 617 c 0,14,15
 183 617 183 617 139 579 c 128,-1,16
 95 541 95 541 86 472 c 1,17,-1
 36 500 l 1,18,19
 51 580 51 580 109 625 c 128,-1,20
 167 670 167 670 262 670 c 0,0,1
248 91 m 128,-1,22
 270 91 270 91 284 77.5 c 128,-1,23
 298 64 298 64 298 41 c 0,24,25
 298 19 298 19 284 5.5 c 128,-1,26
 270 -8 270 -8 248 -8 c 128,-1,27
 226 -8 226 -8 212.5 5.5 c 128,-1,28
 199 19 199 19 199 41 c 128,-1,29
 199 63 199 63 212.5 77 c 128,-1,21
 226 91 226 91 248 91 c 128,-1,22
EndSplineSet
Substitution2: "'smcp' Lowercase to Small Capitals lookup 12 subtable" question.sc
Substitution2: "'c2sc' Capitals to Small Capitals lookup 11 subtable" question.sc
Substitution2: "'aalt' Access All Alternates lookup 0 subtable" question.sc
EndChar

StartChar: at
Encoding: 64 64 35
Width: 970
GlyphClass: 2
Flags: W
LayerCount: 2
Fore
SplineSet
496 664 m 0,0,1
 601 664 601 664 681 631 c 128,-1,2
 761 598 761 598 808.5 540.5 c 128,-1,3
 856 483 856 483 880 411 c 128,-1,4
 904 339 904 339 904 255 c 0,5,6
 904 133 904 133 860.5 63 c 128,-1,7
 817 -7 817 -7 742 -7 c 0,8,9
 644 -7 644 -7 632 106 c 1,10,11
 608 55 608 55 561 25.5 c 128,-1,12
 514 -4 514 -4 450 -4 c 0,13,14
 367 -4 367 -4 314 55.5 c 128,-1,15
 261 115 261 115 261 215 c 0,16,17
 261 330 261 330 327 399.5 c 128,-1,18
 393 469 393 469 488 469 c 0,19,20
 617 469 617 469 653 361 c 1,21,-1
 666 458 l 1,22,-1
 705 458 l 1,23,-1
 680 142 l 2,24,25
 673 34 673 34 751 34 c 0,26,27
 803 34 803 34 831 91 c 128,-1,28
 859 148 859 148 859 255 c 0,29,30
 859 416 859 416 767.5 518.5 c 128,-1,31
 676 621 676 621 496 621 c 0,32,33
 318 621 318 621 214 514.5 c 128,-1,34
 110 408 110 408 110 227 c 0,35,36
 110 53 110 53 214.5 -49 c 128,-1,37
 319 -151 319 -151 486 -151 c 0,38,39
 622 -151 622 -151 709 -80 c 1,40,-1
 735 -114 l 1,41,42
 630 -194 630 -194 486 -194 c 0,43,44
 294 -194 294 -194 178 -79.5 c 128,-1,45
 62 35 62 35 62 227 c 0,46,47
 62 423 62 423 180.5 543.5 c 128,-1,48
 299 664 299 664 496 664 c 0,0,1
493 426 m 0,49,50
 411 426 411 426 361.5 370 c 128,-1,51
 312 314 312 314 312 217 c 0,52,53
 312 135 312 135 353 87.5 c 128,-1,54
 394 40 394 40 465 40 c 0,55,56
 535 40 535 40 582.5 86.5 c 128,-1,57
 630 133 630 133 636 211 c 2,58,-1
 640 254 l 2,59,60
 645 330 645 330 608 378 c 128,-1,61
 571 426 571 426 493 426 c 0,49,50
EndSplineSet
Substitution2: "'case' Case-Sensitive Forms lookup 29 subtable" at.case
Substitution2: "'aalt' Access All Alternates lookup 0 subtable" at.case
EndChar

StartChar: A
Encoding: 65 65 36
Width: 633
GlyphClass: 2
Flags: W
LayerCount: 2
Fore
SplineSet
552 0 m 1,0,-1
 472 201 l 1,1,-1
 160 201 l 1,2,-1
 81 0 l 1,3,-1
 21 0 l 1,4,-1
 283 660 l 1,5,-1
 351 660 l 1,6,-1
 612 0 l 1,7,-1
 552 0 l 1,0,-1
181 254 m 1,8,-1
 451 254 l 1,9,-1
 343 529 l 1,10,-1
 317 605 l 1,11,-1
 315 605 l 1,12,-1
 291 532 l 1,13,-1
 181 254 l 1,8,-1
EndSplineSet
Substitution2: "Single Substitution lookup 56 subtable" A.swsh
Substitution2: "Single Substitution lookup 55 subtable" ordfeminine
Substitution2: "'swsh' Swash lookup 32 subtable" A.swsh
Substitution2: "'c2sc' Capitals to Small Capitals lookup 11 subtable" a.sc
AlternateSubs2: "'aalt' Access All Alternates lookup 1 subtable" a.sc ordfeminine A.swsh
EndChar

StartChar: B
Encoding: 66 66 37
Width: 637
GlyphClass: 2
Flags: W
LayerCount: 2
Fore
SplineSet
105 0 m 1,0,-1
 105 660 l 1,1,-1
 339 660 l 2,2,3
 447 660 447 660 501 614.5 c 128,-1,4
 555 569 555 569 555 483 c 0,5,6
 555 427 555 427 524 387 c 128,-1,7
 493 347 493 347 437 335 c 1,8,-1
 437 334 l 1,9,10
 500 324 500 324 536.5 281.5 c 128,-1,11
 573 239 573 239 573 179 c 0,12,13
 573 95 573 95 512 47.5 c 128,-1,14
 451 0 451 0 338 0 c 2,15,-1
 105 0 l 1,0,-1
162 359 m 1,16,-1
 339 359 l 2,17,18
 496 359 496 359 496 483 c 128,-1,19
 496 607 496 607 339 607 c 2,20,-1
 162 607 l 1,21,-1
 162 359 l 1,16,-1
162 53 m 1,22,-1
 350 53 l 2,23,24
 514 53 514 53 514 180 c 0,25,26
 514 306 514 306 350 306 c 2,27,-1
 162 306 l 1,28,-1
 162 53 l 1,22,-1
EndSplineSet
Substitution2: "'c2sc' Capitals to Small Capitals lookup 11 subtable" b.sc
Substitution2: "'aalt' Access All Alternates lookup 0 subtable" b.sc
EndChar

StartChar: C
Encoding: 67 67 38
Width: 673
GlyphClass: 2
Flags: W
LayerCount: 2
Fore
SplineSet
629 168 m 1,0,1
 600 84 600 84 530.5 37 c 128,-1,2
 461 -10 461 -10 365 -10 c 0,3,4
 227 -10 227 -10 145.5 82 c 128,-1,5
 64 174 64 174 64 330 c 128,-1,6
 64 486 64 486 146 578 c 128,-1,7
 228 670 228 670 364 670 c 0,8,9
 561 670 561 670 620 509 c 1,10,-1
 564 483 l 1,11,12
 517 617 517 617 368 617 c 0,13,14
 257 617 257 617 190 540 c 128,-1,15
 123 463 123 463 123 330 c 128,-1,16
 123 197 123 197 188.5 120 c 128,-1,17
 254 43 254 43 365 43 c 0,18,19
 442 43 442 43 496.5 80.5 c 128,-1,20
 551 118 551 118 573 189 c 1,21,-1
 629 168 l 1,0,1
EndSplineSet
Substitution2: "'c2sc' Capitals to Small Capitals lookup 11 subtable" c.sc
Substitution2: "'aalt' Access All Alternates lookup 0 subtable" c.sc
EndChar

StartChar: D
Encoding: 68 68 39
Width: 708
GlyphClass: 2
Flags: W
LayerCount: 2
Fore
SplineSet
314 660 m 2,0,1
 472 660 472 660 558 576 c 128,-1,2
 644 492 644 492 644 334 c 0,3,4
 644 173 644 173 558 86.5 c 128,-1,5
 472 0 472 0 314 0 c 2,6,-1
 105 0 l 1,7,-1
 105 660 l 1,8,-1
 314 660 l 2,0,1
319 53 m 2,9,10
 446 53 446 53 515 126 c 128,-1,11
 584 199 584 199 584 334 c 0,12,13
 584 465 584 465 515 536 c 128,-1,14
 446 607 446 607 319 607 c 2,15,-1
 162 607 l 1,16,-1
 162 53 l 1,17,-1
 319 53 l 2,9,10
EndSplineSet
Substitution2: "'c2sc' Capitals to Small Capitals lookup 11 subtable" d.sc
Substitution2: "'aalt' Access All Alternates lookup 0 subtable" d.sc
EndChar

StartChar: E
Encoding: 69 69 40
Width: 618
GlyphClass: 2
Flags: W
AnchorPoint: "Anchor-0" 331 0 basechar 0
LayerCount: 2
Fore
SplineSet
162 53 m 1,0,-1
 574 53 l 1,1,-1
 574 0 l 1,2,-1
 105 0 l 1,3,-1
 105 660 l 1,4,-1
 558 660 l 1,5,-1
 558 607 l 1,6,-1
 162 607 l 1,7,-1
 162 362 l 1,8,-1
 474 362 l 1,9,-1
 474 309 l 1,10,-1
 162 309 l 1,11,-1
 162 53 l 1,0,-1
EndSplineSet
Substitution2: "Single Substitution lookup 57 subtable" E.swsh.001
Substitution2: "Single Substitution lookup 56 subtable" E.swsh
AlternateSubs2: "'swsh' Swash lookup 33 subtable" E.swsh E.swsh.001
Substitution2: "'c2sc' Capitals to Small Capitals lookup 11 subtable" e.sc
AlternateSubs2: "'aalt' Access All Alternates lookup 1 subtable" e.sc E.swsh E.swsh.001
EndChar

StartChar: F
Encoding: 70 70 41
Width: 590
GlyphClass: 2
Flags: W
LayerCount: 2
Fore
SplineSet
557 607 m 1,0,-1
 162 607 l 1,1,-1
 162 362 l 1,2,-1
 474 362 l 1,3,-1
 474 309 l 1,4,-1
 162 309 l 1,5,-1
 162 0 l 1,6,-1
 105 0 l 1,7,-1
 105 660 l 1,8,-1
 557 660 l 1,9,-1
 557 607 l 1,0,-1
EndSplineSet
Substitution2: "Single Substitution lookup 56 subtable" F.swsh
Substitution2: "'swsh' Swash lookup 34 subtable" F.swsh
Substitution2: "'c2sc' Capitals to Small Capitals lookup 11 subtable" f.sc
AlternateSubs2: "'aalt' Access All Alternates lookup 1 subtable" f.sc F.swsh
EndChar

StartChar: G
Encoding: 71 71 42
Width: 707
GlyphClass: 2
Flags: W
AnchorPoint: "Anchor-0" 386 0 basechar 0
LayerCount: 2
Fore
SplineSet
359 325 m 1,0,-1
 632 325 l 1,1,-1
 632 0 l 1,2,-1
 588 0 l 1,3,-1
 586 108 l 1,4,5
 528 -10 528 -10 364 -10 c 0,6,7
 226 -10 226 -10 145 81.5 c 128,-1,8
 64 173 64 173 64 330 c 0,9,10
 64 486 64 486 146.5 578 c 128,-1,11
 229 670 229 670 366 670 c 0,12,13
 562 670 562 670 627 511 c 1,14,-1
 576 483 l 1,15,16
 529 617 529 617 366 617 c 0,17,18
 256 617 256 617 189.5 539.5 c 128,-1,19
 123 462 123 462 123 330 c 0,20,21
 123 196 123 196 187 119.5 c 128,-1,22
 251 43 251 43 366 43 c 0,23,24
 468 43 468 43 524 99 c 128,-1,25
 580 155 580 155 580 238 c 2,26,-1
 580 272 l 1,27,-1
 359 272 l 1,28,-1
 359 325 l 1,0,-1
EndSplineSet
Substitution2: "'ss04' Style Set 4 lookup 50 subtable" G.ss04
Substitution2: "'salt' Stylistic Alternatives lookup 42 subtable" G.ss04
Substitution2: "'c2sc' Capitals to Small Capitals lookup 11 subtable" g.sc
AlternateSubs2: "'aalt' Access All Alternates lookup 1 subtable" g.sc G.ss04
EndChar

StartChar: H
Encoding: 72 72 43
Width: 720
GlyphClass: 2
Flags: W
LayerCount: 2
Fore
SplineSet
559 660 m 1,0,-1
 616 660 l 1,1,-1
 616 0 l 1,2,-1
 559 0 l 1,3,-1
 559 309 l 1,4,-1
 162 309 l 1,5,-1
 162 0 l 1,6,-1
 105 0 l 1,7,-1
 105 660 l 1,8,-1
 162 660 l 1,9,-1
 162 362 l 1,10,-1
 559 362 l 1,11,-1
 559 660 l 1,0,-1
EndSplineSet
Substitution2: "'sups' Superscript lookup 15 subtable" Hsuperior
Substitution2: "'subs' Subscript lookup 14 subtable" Hinferior
Substitution2: "'sinf' Scientific Inferiors lookup 13 subtable" Hinferior
Substitution2: "'c2sc' Capitals to Small Capitals lookup 11 subtable" h.sc
AlternateSubs2: "'aalt' Access All Alternates lookup 1 subtable" h.sc Hinferior Hsuperior
EndChar

StartChar: I
Encoding: 73 73 44
Width: 267
GlyphClass: 2
Flags: W
LayerCount: 2
Fore
SplineSet
162 660 m 1,0,-1
 162 0 l 1,1,-1
 105 0 l 1,2,-1
 105 660 l 1,3,-1
 162 660 l 1,0,-1
EndSplineSet
Substitution2: "'c2sc' Capitals to Small Capitals lookup 11 subtable" i.sc
Substitution2: "'aalt' Access All Alternates lookup 0 subtable" i.sc
EndChar

StartChar: J
Encoding: 74 74 45
Width: 542
GlyphClass: 2
Flags: W
LayerCount: 2
Fore
SplineSet
444 660 m 1,0,-1
 444 220 l 2,1,2
 444 112 444 112 388 51 c 128,-1,3
 332 -10 332 -10 231 -10 c 0,4,5
 124 -10 124 -10 74 50 c 128,-1,6
 24 110 24 110 42 212 c 1,7,-1
 95 224 l 1,8,9
 71 43 71 43 229 43 c 0,10,11
 312 43 312 43 349.5 91 c 128,-1,12
 387 139 387 139 387 233 c 2,13,-1
 387 660 l 1,14,-1
 444 660 l 1,0,-1
EndSplineSet
Substitution2: "'c2sc' Capitals to Small Capitals lookup 11 subtable" j.sc
Substitution2: "'aalt' Access All Alternates lookup 0 subtable" j.sc
EndChar

StartChar: K
Encoding: 75 75 46
Width: 620
GlyphClass: 2
Flags: W
AnchorPoint: "Anchor-0" 354 0 basechar 0
LayerCount: 2
Fore
SplineSet
529 0 m 1,0,-1
 290 351 l 1,1,-1
 162 220 l 1,2,-1
 162 0 l 1,3,-1
 105 0 l 1,4,-1
 105 660 l 1,5,-1
 162 660 l 1,6,-1
 162 297 l 1,7,-1
 517 660 l 1,8,-1
 592 660 l 1,9,-1
 331 393 l 1,10,-1
 598 0 l 1,11,-1
 529 0 l 1,0,-1
EndSplineSet
Substitution2: "'c2sc' Capitals to Small Capitals lookup 11 subtable" k.sc
Substitution2: "'aalt' Access All Alternates lookup 0 subtable" k.sc
EndChar

StartChar: L
Encoding: 76 76 47
Width: 578
GlyphClass: 2
Flags: W
AnchorPoint: "Anchor-0" 351 0 basechar 0
LayerCount: 2
Fore
SplineSet
162 53 m 1,0,-1
 553 53 l 1,1,-1
 553 0 l 1,2,-1
 105 0 l 1,3,-1
 105 660 l 1,4,-1
 162 660 l 1,5,-1
 162 53 l 1,0,-1
EndSplineSet
Substitution2: "Single Substitution lookup 57 subtable" L.swsh
Substitution2: "'swsh' Swash lookup 34 subtable" L.swsh
Substitution2: "'c2sc' Capitals to Small Capitals lookup 11 subtable" l.sc
AlternateSubs2: "'aalt' Access All Alternates lookup 1 subtable" l.sc L.swsh
Position2: "Single Positioning lookup 6 subtable" dx=0 dy=0 dh=-152 dv=0
EndChar

StartChar: M
Encoding: 77 77 48
Width: 830
GlyphClass: 2
Flags: W
LayerCount: 2
Fore
SplineSet
725 660 m 1,0,-1
 725 0 l 1,1,-1
 670 0 l 1,2,-1
 670 474 l 1,3,-1
 676 606 l 1,4,-1
 440 0 l 1,5,-1
 389 0 l 1,6,-1
 154 606 l 1,7,-1
 153 606 l 1,8,-1
 159 474 l 1,9,-1
 159 0 l 1,10,-1
 105 0 l 1,11,-1
 105 660 l 1,12,-1
 191 660 l 1,13,-1
 378 183 l 1,14,-1
 414 67 l 1,15,-1
 415 67 l 1,16,-1
 452 182 l 1,17,-1
 638 660 l 1,18,-1
 725 660 l 1,0,-1
EndSplineSet
Substitution2: "Single Substitution lookup 56 subtable" M.swsh
AlternateSubs2: "'swsh' Swash lookup 35 subtable" M.swsh M.swsh.001
Substitution2: "'c2sc' Capitals to Small Capitals lookup 11 subtable" m.sc
AlternateSubs2: "'aalt' Access All Alternates lookup 1 subtable" m.sc M.swsh M.swsh.001
EndChar

StartChar: N
Encoding: 78 78 49
Width: 720
GlyphClass: 2
Flags: W
AnchorPoint: "Anchor-0" 379 0 basechar 0
LayerCount: 2
Fore
SplineSet
615 660 m 1,0,-1
 615 0 l 1,1,-1
 544 0 l 1,2,-1
 211 501 l 1,3,-1
 157 598 l 1,4,-1
 156 598 l 1,5,-1
 159 509 l 1,6,-1
 159 0 l 1,7,-1
 105 0 l 1,8,-1
 105 660 l 1,9,-1
 176 660 l 1,10,-1
 508 161 l 1,11,-1
 563 62 l 1,12,-1
 560 151 l 1,13,-1
 560 660 l 1,14,-1
 615 660 l 1,0,-1
EndSplineSet
Substitution2: "Single Substitution lookup 57 subtable" N.swsh
Substitution2: "'swsh' Swash lookup 36 subtable" N.swsh
Substitution2: "'c2sc' Capitals to Small Capitals lookup 11 subtable" n.sc
AlternateSubs2: "'aalt' Access All Alternates lookup 1 subtable" n.sc N.swsh
EndChar

StartChar: O
Encoding: 79 79 50
Width: 736
GlyphClass: 2
Flags: W
LayerCount: 2
Fore
SplineSet
368 670 m 128,-1,1
 508 670 508 670 590 578.5 c 128,-1,2
 672 487 672 487 672 330 c 128,-1,3
 672 173 672 173 590 81.5 c 128,-1,4
 508 -10 508 -10 368 -10 c 128,-1,5
 228 -10 228 -10 146 81.5 c 128,-1,6
 64 173 64 173 64 330 c 128,-1,7
 64 487 64 487 146 578.5 c 128,-1,0
 228 670 228 670 368 670 c 128,-1,1
368 617 m 128,-1,9
 255 617 255 617 189 540 c 128,-1,10
 123 463 123 463 123 330 c 128,-1,11
 123 197 123 197 189 120 c 128,-1,12
 255 43 255 43 368 43 c 128,-1,13
 481 43 481 43 547 120 c 128,-1,14
 613 197 613 197 613 330 c 128,-1,15
 613 463 613 463 547 540 c 128,-1,8
 481 617 481 617 368 617 c 128,-1,9
EndSplineSet
Substitution2: "Single Substitution lookup 55 subtable" ordmasculine
Substitution2: "'nalt' Alternate Annotation Forms lookup 23 subtable" indexring
Substitution2: "'sups' Superscript lookup 15 subtable" Osuperior
Substitution2: "'subs' Subscript lookup 14 subtable" Oinferior
Substitution2: "'sinf' Scientific Inferiors lookup 13 subtable" Oinferior
Substitution2: "'c2sc' Capitals to Small Capitals lookup 11 subtable" o.sc
AlternateSubs2: "'aalt' Access All Alternates lookup 1 subtable" o.sc Oinferior Osuperior ordmasculine indexring
EndChar

StartChar: P
Encoding: 80 80 51
Width: 592
GlyphClass: 2
Flags: W
LayerCount: 2
Fore
SplineSet
327 660 m 2,0,1
 429 660 429 660 489.5 607.5 c 128,-1,2
 550 555 550 555 550 465 c 128,-1,3
 550 375 550 375 489.5 322.5 c 128,-1,4
 429 270 429 270 327 270 c 2,5,-1
 162 270 l 1,6,-1
 162 0 l 1,7,-1
 105 0 l 1,8,-1
 105 660 l 1,9,-1
 327 660 l 2,0,1
320 323 m 2,10,11
 404 323 404 323 447.5 359.5 c 128,-1,12
 491 396 491 396 491 465 c 128,-1,13
 491 534 491 534 447.5 570.5 c 128,-1,14
 404 607 404 607 320 607 c 2,15,-1
 162 607 l 1,16,-1
 162 323 l 1,17,-1
 320 323 l 2,10,11
EndSplineSet
Substitution2: "'c2sc' Capitals to Small Capitals lookup 11 subtable" p.sc
Substitution2: "'aalt' Access All Alternates lookup 0 subtable" p.sc
EndChar

StartChar: Q
Encoding: 81 81 52
Width: 736
GlyphClass: 2
Flags: W
LayerCount: 2
Fore
SplineSet
536 -138 m 0,0,1
 612 -138 612 -138 649 -101 c 1,2,-1
 669 -153 l 1,3,4
 622 -195 622 -195 535 -195 c 0,5,6
 455 -195 455 -195 402.5 -149.5 c 128,-1,7
 350 -104 350 -104 344 -9 c 1,8,9
 214 -1 214 -1 139 89.5 c 128,-1,10
 64 180 64 180 64 330 c 0,11,12
 64 487 64 487 146 578.5 c 128,-1,13
 228 670 228 670 368 670 c 128,-1,14
 508 670 508 670 590 578.5 c 128,-1,15
 672 487 672 487 672 330 c 0,16,17
 672 181 672 181 598 90.5 c 128,-1,18
 524 0 524 0 395 -9 c 1,19,20
 405 -138 405 -138 536 -138 c 0,0,1
123 330 m 128,-1,22
 123 197 123 197 189 120 c 128,-1,23
 255 43 255 43 368 43 c 128,-1,24
 481 43 481 43 547 120 c 128,-1,25
 613 197 613 197 613 330 c 128,-1,26
 613 463 613 463 547 540 c 128,-1,27
 481 617 481 617 368 617 c 128,-1,28
 255 617 255 617 189 540 c 128,-1,21
 123 463 123 463 123 330 c 128,-1,22
EndSplineSet
Substitution2: "'c2sc' Capitals to Small Capitals lookup 11 subtable" q.sc
Substitution2: "'aalt' Access All Alternates lookup 0 subtable" q.sc
EndChar

StartChar: R
Encoding: 82 82 53
Width: 640
GlyphClass: 2
Flags: W
AnchorPoint: "Anchor-0" 358 0 basechar 0
LayerCount: 2
Fore
SplineSet
105 0 m 1,0,-1
 105 660 l 1,1,-1
 351 660 l 2,2,3
 450 660 450 660 509.5 609.5 c 128,-1,4
 569 559 569 559 569 472 c 0,5,6
 569 405 569 405 531.5 361 c 128,-1,7
 494 317 494 317 427 303 c 1,8,-1
 427 302 l 1,9,10
 545 283 545 283 550 163 c 0,11,12
 553 104 553 104 558 69 c 128,-1,13
 563 34 563 34 567 24 c 128,-1,14
 571 14 571 14 579 3 c 1,15,-1
 579 0 l 1,16,-1
 517 0 l 1,17,18
 499 41 499 41 493 156 c 0,19,20
 488 283 488 283 336 283 c 2,21,-1
 162 283 l 1,22,-1
 162 0 l 1,23,-1
 105 0 l 1,0,-1
162 336 m 1,24,-1
 350 336 l 2,25,26
 428 336 428 336 468.5 371 c 128,-1,27
 509 406 509 406 509 472 c 128,-1,28
 509 538 509 538 468.5 572.5 c 128,-1,29
 428 607 428 607 350 607 c 2,30,-1
 162 607 l 1,31,-1
 162 336 l 1,24,-1
EndSplineSet
Substitution2: "Single Substitution lookup 57 subtable" R.swsh.001
Substitution2: "Single Substitution lookup 56 subtable" R.swsh
Substitution2: "'ss03' Style Set 3 lookup 49 subtable" R.ss03
Substitution2: "'salt' Stylistic Alternatives lookup 42 subtable" R.ss03
AlternateSubs2: "'swsh' Swash lookup 37 subtable" R.swsh R.swsh.001
Substitution2: "'c2sc' Capitals to Small Capitals lookup 11 subtable" r.sc
AlternateSubs2: "'aalt' Access All Alternates lookup 1 subtable" r.sc R.swsh R.swsh.001 R.ss03
EndChar

StartChar: S
Encoding: 83 83 54
Width: 624
GlyphClass: 2
Flags: W
AnchorPoint: "Anchor-0" 342 0 basechar 0
LayerCount: 2
Fore
SplineSet
311 670 m 0,0,1
 495 670 495 670 561 525 c 1,2,-1
 512 486 l 1,3,4
 486 555 486 555 438.5 586 c 128,-1,5
 391 617 391 617 312 617 c 0,6,7
 227 617 227 617 178 580 c 128,-1,8
 129 543 129 543 129 486 c 0,9,10
 129 432 129 432 173 402.5 c 128,-1,11
 217 373 217 373 332 353 c 0,12,13
 461 332 461 332 515 289.5 c 128,-1,14
 569 247 569 247 569 172 c 0,15,16
 569 90 569 90 500.5 40 c 128,-1,17
 432 -10 432 -10 320 -10 c 0,18,19
 217 -10 217 -10 145.5 31 c 128,-1,20
 74 72 74 72 46 145 c 1,21,-1
 95 184 l 1,22,23
 117 116 117 116 175.5 79.5 c 128,-1,24
 234 43 234 43 321 43 c 0,25,26
 406 43 406 43 458 76.5 c 128,-1,27
 510 110 510 110 510 169 c 0,28,29
 510 220 510 220 466.5 250 c 128,-1,30
 423 280 423 280 315 298 c 0,31,32
 180 321 180 321 124.5 363 c 128,-1,33
 69 405 69 405 69 480 c 0,34,35
 69 560 69 560 135 615 c 128,-1,36
 201 670 201 670 311 670 c 0,0,1
EndSplineSet
Substitution2: "Single Substitution lookup 57 subtable" S.swsh
Substitution2: "Single Substitution lookup 56 subtable" S.swsh
Substitution2: "'swsh' Swash lookup 38 subtable" S.swsh
Substitution2: "'c2sc' Capitals to Small Capitals lookup 11 subtable" s.sc
AlternateSubs2: "'aalt' Access All Alternates lookup 1 subtable" s.sc S.swsh
EndChar

StartChar: T
Encoding: 84 84 55
Width: 582
GlyphClass: 2
Flags: W
AnchorPoint: "Anchor-0" 303 0 basechar 0
LayerCount: 2
Fore
SplineSet
558 660 m 1,0,-1
 558 607 l 1,1,-1
 320 607 l 1,2,-1
 320 0 l 1,3,-1
 263 0 l 1,4,-1
 263 607 l 1,5,-1
 24 607 l 1,6,-1
 24 660 l 1,7,-1
 558 660 l 1,0,-1
EndSplineSet
Substitution2: "Single Substitution lookup 56 subtable" T.swsh
Substitution2: "'swsh' Swash lookup 38 subtable" T.swsh
Substitution2: "'c2sc' Capitals to Small Capitals lookup 11 subtable" t.sc
AlternateSubs2: "'aalt' Access All Alternates lookup 1 subtable" t.sc T.swsh
EndChar

StartChar: U
Encoding: 85 85 56
Width: 706
GlyphClass: 2
Flags: W
LayerCount: 2
Fore
SplineSet
608 660 m 1,0,-1
 608 242 l 2,1,2
 608 119 608 119 542 54.5 c 128,-1,3
 476 -10 476 -10 353 -10 c 128,-1,4
 230 -10 230 -10 163.5 54.5 c 128,-1,5
 97 119 97 119 97 242 c 2,6,-1
 97 660 l 1,7,-1
 154 660 l 1,8,-1
 154 255 l 2,9,10
 154 43 154 43 353 43 c 0,11,12
 551 43 551 43 551 255 c 2,13,-1
 551 660 l 1,14,-1
 608 660 l 1,0,-1
EndSplineSet
Substitution2: "'c2sc' Capitals to Small Capitals lookup 11 subtable" u.sc
Substitution2: "'aalt' Access All Alternates lookup 0 subtable" u.sc
EndChar

StartChar: V
Encoding: 86 86 57
Width: 622
GlyphClass: 2
Flags: W
LayerCount: 2
Fore
SplineSet
598 660 m 1,0,-1
 344 0 l 1,1,-1
 278 0 l 1,2,-1
 24 660 l 1,3,-1
 85 660 l 1,4,-1
 274 162 l 1,5,-1
 311 53 l 1,6,-1
 348 161 l 1,7,-1
 537 660 l 1,8,-1
 598 660 l 1,0,-1
EndSplineSet
Substitution2: "'c2sc' Capitals to Small Capitals lookup 11 subtable" v.sc
Substitution2: "'aalt' Access All Alternates lookup 0 subtable" v.sc
EndChar

StartChar: W
Encoding: 87 87 58
Width: 942
GlyphClass: 2
Flags: W
LayerCount: 2
Fore
SplineSet
435 455 m 1,0,-1
 306 0 l 1,1,-1
 235 0 l 1,2,-1
 31 660 l 1,3,-1
 93 660 l 1,4,-1
 271 46 l 1,5,-1
 440 660 l 1,6,-1
 505 660 l 1,7,-1
 674 45 l 1,8,-1
 853 660 l 1,9,-1
 911 660 l 1,10,-1
 708 0 l 1,11,-1
 637 0 l 1,12,-1
 508 455 l 1,13,-1
 472 599 l 1,14,-1
 471 599 l 1,15,-1
 435 455 l 1,0,-1
EndSplineSet
Substitution2: "Single Substitution lookup 56 subtable" W.swsh
Substitution2: "'swsh' Swash lookup 38 subtable" W.swsh
Substitution2: "'c2sc' Capitals to Small Capitals lookup 11 subtable" w.sc
AlternateSubs2: "'aalt' Access All Alternates lookup 1 subtable" w.sc W.swsh
EndChar

StartChar: X
Encoding: 88 88 59
Width: 574
GlyphClass: 2
Flags: W
LayerCount: 2
Fore
SplineSet
547 0 m 1,0,-1
 481 0 l 1,1,-1
 285 293 l 1,2,-1
 87 0 l 1,3,-1
 20 0 l 1,4,-1
 255 338 l 1,5,-1
 41 660 l 1,6,-1
 109 660 l 1,7,-1
 292 385 l 1,8,-1
 477 660 l 1,9,-1
 540 660 l 1,10,-1
 322 340 l 1,11,-1
 547 0 l 1,0,-1
EndSplineSet
Substitution2: "'c2sc' Capitals to Small Capitals lookup 11 subtable" x.sc
Substitution2: "'aalt' Access All Alternates lookup 0 subtable" x.sc
EndChar

StartChar: Y
Encoding: 89 89 60
Width: 550
GlyphClass: 2
Flags: W
LayerCount: 2
Fore
SplineSet
538 660 m 1,0,-1
 304 257 l 1,1,-1
 304 0 l 1,2,-1
 247 0 l 1,3,-1
 247 257 l 1,4,-1
 12 660 l 1,5,-1
 80 660 l 1,6,-1
 275 316 l 1,7,-1
 471 660 l 1,8,-1
 538 660 l 1,0,-1
EndSplineSet
Substitution2: "'c2sc' Capitals to Small Capitals lookup 11 subtable" y.sc
Substitution2: "'aalt' Access All Alternates lookup 0 subtable" y.sc
EndChar

StartChar: Z
Encoding: 90 90 61
Width: 602
GlyphClass: 2
Flags: W
LayerCount: 2
Fore
SplineSet
113 53 m 1,0,-1
 558 53 l 1,1,-1
 558 0 l 1,2,-1
 46 0 l 1,3,-1
 46 51 l 1,4,-1
 475 607 l 1,5,-1
 55 607 l 1,6,-1
 55 660 l 1,7,-1
 543 660 l 1,8,-1
 543 609 l 1,9,-1
 113 53 l 1,0,-1
EndSplineSet
Substitution2: "'c2sc' Capitals to Small Capitals lookup 11 subtable" z.sc
Substitution2: "'aalt' Access All Alternates lookup 0 subtable" z.sc
EndChar

StartChar: bracketleft
Encoding: 91 91 62
Width: 319
GlyphClass: 2
Flags: W
LayerCount: 2
Fore
SplineSet
294 680 m 1,0,-1
 136 680 l 1,1,-1
 136 -118 l 1,2,-1
 294 -118 l 1,3,-1
 294 -168 l 1,4,-1
 83 -168 l 1,5,-1
 83 730 l 1,6,-1
 294 730 l 1,7,-1
 294 680 l 1,0,-1
EndSplineSet
Substitution2: "'case' Case-Sensitive Forms lookup 29 subtable" bracketleft.case
Substitution2: "'sups' Superscript lookup 15 subtable" bracketleftsuperior
Substitution2: "'subs' Subscript lookup 14 subtable" bracketleftinferior
Substitution2: "'sinf' Scientific Inferiors lookup 13 subtable" bracketleftinferior
AlternateSubs2: "'aalt' Access All Alternates lookup 1 subtable" bracketleftinferior bracketleftsuperior bracketleft.case
EndChar

StartChar: backslash
Encoding: 92 92 63
Width: 406
GlyphClass: 2
Flags: W
LayerCount: 2
Fore
SplineSet
32 730 m 1,0,-1
 86 730 l 1,1,-1
 376 -70 l 1,2,-1
 321 -70 l 1,3,-1
 32 730 l 1,0,-1
EndSplineSet
EndChar

StartChar: bracketright
Encoding: 93 93 64
Width: 319
GlyphClass: 2
Flags: W
LayerCount: 2
Fore
SplineSet
236 730 m 1,0,-1
 236 -168 l 1,1,-1
 25 -168 l 1,2,-1
 25 -118 l 1,3,-1
 183 -118 l 1,4,-1
 183 680 l 1,5,-1
 25 680 l 1,6,-1
 25 730 l 1,7,-1
 236 730 l 1,0,-1
EndSplineSet
Substitution2: "'case' Case-Sensitive Forms lookup 29 subtable" bracketright.case
Substitution2: "'sups' Superscript lookup 15 subtable" bracketrightsuperior
Substitution2: "'subs' Subscript lookup 14 subtable" bracketrightinferior
Substitution2: "'sinf' Scientific Inferiors lookup 13 subtable" bracketrightinferior
AlternateSubs2: "'aalt' Access All Alternates lookup 1 subtable" bracketrightinferior bracketrightsuperior bracketright.case
EndChar

StartChar: asciicircum
Encoding: 94 94 65
Width: 550
GlyphClass: 2
Flags: W
LayerCount: 2
Fore
SplineSet
520 355 m 1,0,-1
 461 355 l 1,1,-1
 275 681 l 1,2,-1
 89 355 l 1,3,-1
 31 355 l 1,4,-1
 247 730 l 1,5,-1
 303 730 l 1,6,-1
 520 355 l 1,0,-1
EndSplineSet
EndChar

StartChar: underscore
Encoding: 95 95 66
Width: 525
GlyphClass: 2
Flags: W
LayerCount: 2
Fore
SplineSet
525 -97 m 1,0,-1
 525 -150 l 1,1,-1
 0 -150 l 1,2,-1
 0 -97 l 1,3,-1
 525 -97 l 1,0,-1
EndSplineSet
EndChar

StartChar: grave
Encoding: 96 96 67
Width: 518
GlyphClass: 2
Flags: W
LayerCount: 2
Fore
SplineSet
199 743 m 1,0,-1
 279 583 l 1,1,-1
 232 583 l 1,2,-1
 137 743 l 1,3,-1
 199 743 l 1,0,-1
EndSplineSet
EndChar

StartChar: a
Encoding: 97 97 68
Width: 548
GlyphClass: 2
Flags: W
LayerCount: 2
Fore
SplineSet
494 39 m 0,0,1
 516 39 516 39 533 45 c 1,2,-1
 530 0 l 1,3,4
 510 -10 510 -10 478 -10 c 0,5,6
 402 -10 402 -10 394 72 c 1,7,8
 371 34 371 34 322 12 c 128,-1,9
 273 -10 273 -10 218 -10 c 0,10,11
 144 -10 144 -10 98.5 23.5 c 128,-1,12
 53 57 53 57 53 118 c 0,13,14
 53 237 53 237 244 270 c 2,15,-1
 393 296 l 1,16,-1
 393 336 l 2,17,18
 393 394 393 394 358.5 427 c 128,-1,19
 324 460 324 460 261 460 c 0,20,21
 146 460 146 460 105 357 c 1,22,-1
 62 388 l 1,23,24
 83 446 83 446 135.5 478 c 128,-1,25
 188 510 188 510 261 510 c 0,26,27
 348 510 348 510 399 467.5 c 128,-1,28
 450 425 450 425 450 343 c 2,29,-1
 450 88 l 2,30,31
 450 39 450 39 494 39 c 0,0,1
222 40 m 0,32,33
 288 40 288 40 340.5 73 c 128,-1,34
 393 106 393 106 393 162 c 2,35,-1
 393 249 l 1,36,-1
 262 225 l 2,37,38
 112 198 112 198 112 118 c 0,39,40
 112 81 112 81 141 60.5 c 128,-1,41
 170 40 170 40 222 40 c 0,32,33
EndSplineSet
Substitution2: "Single Substitution lookup 55 subtable" ordfeminine
Substitution2: "'smcp' Lowercase to Small Capitals lookup 12 subtable" a.sc
AlternateSubs2: "'aalt' Access All Alternates lookup 1 subtable" a.sc ordfeminine
EndChar

StartChar: b
Encoding: 98 98 69
Width: 614
GlyphClass: 2
Flags: W
LayerCount: 2
Fore
SplineSet
327 510 m 0,0,1
 433 510 433 510 494 441 c 128,-1,2
 555 372 555 372 555 250 c 128,-1,3
 555 128 555 128 494 59 c 128,-1,4
 433 -10 433 -10 327 -10 c 0,5,6
 262 -10 262 -10 214 21 c 128,-1,7
 166 52 166 52 144 106 c 1,8,-1
 141 0 l 1,9,-1
 90 0 l 1,10,-1
 90 730 l 1,11,-1
 147 730 l 1,12,-1
 147 401 l 1,13,14
 170 452 170 452 217 481 c 128,-1,15
 264 510 264 510 327 510 c 0,0,1
320 40 m 0,16,17
 404 40 404 40 451 96 c 128,-1,18
 498 152 498 152 498 250 c 128,-1,19
 498 348 498 348 451 404 c 128,-1,20
 404 460 404 460 320 460 c 0,21,22
 243 460 243 460 196 407.5 c 128,-1,23
 149 355 149 355 147 264 c 2,24,-1
 147 236 l 2,25,26
 149 145 149 145 196.5 92.5 c 128,-1,27
 244 40 244 40 320 40 c 0,16,17
EndSplineSet
Substitution2: "'smcp' Lowercase to Small Capitals lookup 12 subtable" b.sc
Substitution2: "'aalt' Access All Alternates lookup 0 subtable" b.sc
EndChar

StartChar: c
Encoding: 99 99 70
Width: 550
GlyphClass: 2
Flags: W
LayerCount: 2
Fore
SplineSet
296 510 m 0,0,1
 371 510 371 510 423 475 c 128,-1,2
 475 440 475 440 499 376 c 1,3,-1
 445 350 l 1,4,5
 412 460 412 460 294 460 c 0,6,7
 210 460 210 460 162.5 404 c 128,-1,8
 115 348 115 348 115 250 c 128,-1,9
 115 152 115 152 162 96 c 128,-1,10
 209 40 209 40 293 40 c 0,11,12
 356 40 356 40 398.5 70.5 c 128,-1,13
 441 101 441 101 451 155 c 1,14,-1
 504 137 l 1,15,16
 483 68 483 68 428 29 c 128,-1,17
 373 -10 373 -10 295 -10 c 0,18,19
 183 -10 183 -10 120.5 59 c 128,-1,20
 58 128 58 128 58 250 c 128,-1,21
 58 372 58 372 121 441 c 128,-1,22
 184 510 184 510 296 510 c 0,0,1
EndSplineSet
Substitution2: "'smcp' Lowercase to Small Capitals lookup 12 subtable" c.sc
Substitution2: "'aalt' Access All Alternates lookup 0 subtable" c.sc
EndChar

StartChar: d
Encoding: 100 100 71
Width: 614
GlyphClass: 2
Flags: W
LayerCount: 2
Fore
SplineSet
467 730 m 1,0,-1
 524 730 l 1,1,-1
 524 0 l 1,2,-1
 473 0 l 1,3,-1
 470 105 l 1,4,5
 448 52 448 52 399.5 21 c 128,-1,6
 351 -10 351 -10 287 -10 c 0,7,8
 181 -10 181 -10 120 59 c 128,-1,9
 59 128 59 128 59 250 c 128,-1,10
 59 372 59 372 120 441 c 128,-1,11
 181 510 181 510 287 510 c 0,12,13
 350 510 350 510 397 481 c 128,-1,14
 444 452 444 452 467 401 c 1,15,-1
 467 730 l 1,0,-1
294 40 m 0,16,17
 370 40 370 40 416.5 91 c 128,-1,18
 463 142 463 142 467 231 c 1,19,-1
 467 269 l 1,20,21
 463 358 463 358 416.5 409 c 128,-1,22
 370 460 370 460 294 460 c 0,23,24
 210 460 210 460 163 404 c 128,-1,25
 116 348 116 348 116 250 c 128,-1,26
 116 152 116 152 163 96 c 128,-1,27
 210 40 210 40 294 40 c 0,16,17
EndSplineSet
Substitution2: "'smcp' Lowercase to Small Capitals lookup 12 subtable" d.sc
Substitution2: "'aalt' Access All Alternates lookup 0 subtable" d.sc
EndChar

StartChar: e
Encoding: 101 101 72
Width: 564
GlyphClass: 2
Flags: W
AnchorPoint: "Anchor-0" 297 0 basechar 0
LayerCount: 2
Fore
SplineSet
509 265 m 0,0,1
 509 247 509 247 507 227 c 1,2,-1
 115 227 l 1,3,4
 120 139 120 139 167.5 89.5 c 128,-1,5
 215 40 215 40 295 40 c 0,6,7
 353 40 353 40 394.5 63 c 128,-1,8
 436 86 436 86 454 128 c 1,9,-1
 501 103 l 1,10,11
 442 -10 442 -10 295 -10 c 0,12,13
 184 -10 184 -10 121 59 c 128,-1,14
 58 128 58 128 58 250 c 128,-1,15
 58 372 58 372 119 441 c 128,-1,16
 180 510 180 510 290 510 c 0,17,18
 393 510 393 510 451 442 c 128,-1,19
 509 374 509 374 509 265 c 0,0,1
290 460 m 0,20,21
 212 460 212 460 166.5 412.5 c 128,-1,22
 121 365 121 365 115 278 c 1,23,-1
 455 278 l 1,24,25
 449 364 449 364 406 412 c 128,-1,26
 363 460 363 460 290 460 c 0,20,21
EndSplineSet
Substitution2: "'smcp' Lowercase to Small Capitals lookup 12 subtable" e.sc
Substitution2: "'aalt' Access All Alternates lookup 0 subtable" e.sc
EndChar

StartChar: f
Encoding: 102 102 73
Width: 367
GlyphClass: 2
Flags: W
LayerCount: 2
Fore
SplineSet
182 579 m 2,0,-1
 182 500 l 1,1,-1
 356 500 l 1,2,-1
 356 451 l 1,3,-1
 182 451 l 1,4,-1
 182 0 l 1,5,-1
 125 0 l 1,6,-1
 125 451 l 1,7,-1
 25 451 l 1,8,-1
 25 500 l 1,9,-1
 125 500 l 1,10,-1
 125 584 l 2,11,12
 125 654 125 654 164.5 694.5 c 128,-1,13
 204 735 204 735 278 735 c 0,14,15
 332 735 332 735 360 709 c 1,16,-1
 344 663 l 1,17,18
 320 683 320 683 282 683 c 0,19,20
 234 683 234 683 208 656.5 c 128,-1,21
 182 630 182 630 182 579 c 2,0,-1
EndSplineSet
Substitution2: "'smcp' Lowercase to Small Capitals lookup 12 subtable" f.sc
Substitution2: "'aalt' Access All Alternates lookup 0 subtable" f.sc
EndChar

StartChar: g
Encoding: 103 103 74
Width: 614
GlyphClass: 2
Flags: W
LayerCount: 2
Fore
SplineSet
476 500 m 1,0,-1
 524 500 l 1,1,-1
 524 29 l 2,2,3
 524 -91 524 -91 461 -153 c 128,-1,4
 398 -215 398 -215 279 -215 c 0,5,6
 197 -215 197 -215 141.5 -183.5 c 128,-1,7
 86 -152 86 -152 74 -91 c 1,8,-1
 128 -68 l 1,9,10
 148 -165 148 -165 286 -165 c 0,11,12
 368 -165 368 -165 417 -115.5 c 128,-1,13
 466 -66 466 -66 466 16 c 2,14,-1
 466 96 l 1,15,16
 442 49 442 49 395 22.5 c 128,-1,17
 348 -4 348 -4 286 -4 c 0,18,19
 180 -4 180 -4 119 64.5 c 128,-1,20
 58 133 58 133 58 253 c 128,-1,21
 58 373 58 373 119 441.5 c 128,-1,22
 180 510 180 510 286 510 c 0,23,24
 350 510 350 510 397.5 482 c 128,-1,25
 445 454 445 454 469 404 c 1,26,-1
 476 500 l 1,0,-1
293 46 m 0,27,28
 372 46 372 46 419 100.5 c 128,-1,29
 466 155 466 155 466 248 c 2,30,-1
 466 260 l 2,31,32
 466 352 466 352 419 406 c 128,-1,33
 372 460 372 460 293 460 c 0,34,35
 210 460 210 460 162.5 404.5 c 128,-1,36
 115 349 115 349 115 253 c 128,-1,37
 115 157 115 157 162.5 101.5 c 128,-1,38
 210 46 210 46 293 46 c 0,27,28
EndSplineSet
Substitution2: "'ss01' Style Set 1 lookup 47 subtable" g.ss01
Substitution2: "'salt' Stylistic Alternatives lookup 42 subtable" g.ss01
Substitution2: "'smcp' Lowercase to Small Capitals lookup 12 subtable" g.sc
AlternateSubs2: "'aalt' Access All Alternates lookup 1 subtable" g.sc g.ss01
EndChar

StartChar: h
Encoding: 104 104 75
Width: 603
GlyphClass: 2
Flags: W
LayerCount: 2
Fore
SplineSet
326 510 m 0,0,1
 412 510 412 510 465 462 c 128,-1,2
 518 414 518 414 518 324 c 2,3,-1
 518 0 l 1,4,-1
 461 0 l 1,5,-1
 461 305 l 2,6,7
 461 384 461 384 423 422 c 128,-1,8
 385 460 385 460 320 460 c 0,9,10
 249 460 249 460 198 412 c 128,-1,11
 147 364 147 364 147 278 c 2,12,-1
 147 0 l 1,13,-1
 90 0 l 1,14,-1
 90 730 l 1,15,-1
 147 730 l 1,16,-1
 147 407 l 1,17,18
 171 458 171 458 218 484 c 128,-1,19
 265 510 265 510 326 510 c 0,0,1
EndSplineSet
Substitution2: "'smcp' Lowercase to Small Capitals lookup 12 subtable" h.sc
Substitution2: "'aalt' Access All Alternates lookup 0 subtable" h.sc
EndChar

StartChar: i
Encoding: 105 105 76
Width: 237
GlyphClass: 2
Flags: W
LayerCount: 2
Fore
SplineSet
119 597 m 0,0,1
 98 597 98 597 85 609.5 c 128,-1,2
 72 622 72 622 72 643 c 128,-1,3
 72 664 72 664 85 676.5 c 128,-1,4
 98 689 98 689 119 689 c 0,5,6
 139 689 139 689 152 676.5 c 128,-1,7
 165 664 165 664 165 643 c 128,-1,8
 165 622 165 622 152 609.5 c 128,-1,9
 139 597 139 597 119 597 c 0,0,1
147 500 m 1,10,-1
 147 0 l 1,11,-1
 90 0 l 1,12,-1
 90 500 l 1,13,-1
 147 500 l 1,10,-1
EndSplineSet
Substitution2: "'smcp' Lowercase to Small Capitals lookup 12 subtable" i.sc
Substitution2: "'locl' Localized Forms in Latin lookup 6 subtable" i.loclTRK
Substitution2: "'locl' Localized Forms in Latin lookup 5 subtable" i.loclTRK
Substitution2: "'locl' Localized Forms in Latin lookup 4 subtable" i.loclTRK
Substitution2: "'locl' Localized Forms in Latin lookup 3 subtable" i.loclTRK
Substitution2: "'locl' Localized Forms in Latin lookup 2 subtable" i.loclTRK
Substitution2: "'aalt' Access All Alternates lookup 0 subtable" i.sc
EndChar

StartChar: j
Encoding: 106 106 77
Width: 237
GlyphClass: 2
Flags: W
LayerCount: 2
Fore
SplineSet
119 689 m 0,0,1
 138 689 138 689 151.5 675.5 c 128,-1,2
 165 662 165 662 165 643 c 128,-1,3
 165 624 165 624 151.5 610.5 c 128,-1,4
 138 597 138 597 119 597 c 0,5,6
 99 597 99 597 85.5 610.5 c 128,-1,7
 72 624 72 624 72 643 c 128,-1,8
 72 662 72 662 85.5 675.5 c 128,-1,9
 99 689 99 689 119 689 c 0,0,1
147 500 m 1,10,-1
 147 -56 l 2,11,12
 147 -135 147 -135 105 -175 c 128,-1,13
 63 -215 63 -215 2 -215 c 0,14,15
 -53 -215 -53 -215 -87 -186 c 1,16,-1
 -75 -132 l 1,17,18
 -45 -160 -45 -160 2 -160 c 0,19,20
 42 -160 42 -160 66 -132.5 c 128,-1,21
 90 -105 90 -105 90 -51 c 2,22,-1
 90 500 l 1,23,-1
 147 500 l 1,10,-1
EndSplineSet
Substitution2: "'smcp' Lowercase to Small Capitals lookup 12 subtable" j.sc
Substitution2: "'aalt' Access All Alternates lookup 0 subtable" j.sc
EndChar

StartChar: k
Encoding: 107 107 78
Width: 536
GlyphClass: 2
Flags: W
AnchorPoint: "Anchor-0" 313 0 basechar 0
LayerCount: 2
Fore
SplineSet
448 0 m 1,0,-1
 262 261 l 1,1,-1
 147 148 l 1,2,-1
 147 0 l 1,3,-1
 90 0 l 1,4,-1
 90 730 l 1,5,-1
 147 730 l 1,6,-1
 147 220 l 1,7,-1
 435 500 l 1,8,-1
 508 500 l 1,9,-1
 304 301 l 1,10,-1
 517 0 l 1,11,-1
 448 0 l 1,0,-1
EndSplineSet
Substitution2: "'smcp' Lowercase to Small Capitals lookup 12 subtable" k.sc
Substitution2: "'aalt' Access All Alternates lookup 0 subtable" k.sc
EndChar

StartChar: l
Encoding: 108 108 79
Width: 281
GlyphClass: 2
Flags: W
AnchorPoint: "Anchor-0" 201 0 basechar 0
LayerCount: 2
Fore
SplineSet
143 730 m 1,0,-1
 143 124 l 2,1,2
 143 80 143 80 157 62 c 128,-1,3
 171 44 171 44 204 44 c 128,-1,4
 237 44 237 44 272 58 c 1,5,-1
 263 3 l 1,6,7
 234 -10 234 -10 195 -10 c 0,8,9
 86 -10 86 -10 86 118 c 2,10,-1
 86 730 l 1,11,-1
 143 730 l 1,0,-1
EndSplineSet
Substitution2: "'ss02' Style Set 2 lookup 48 subtable" l.ss02
Substitution2: "'salt' Stylistic Alternatives lookup 42 subtable" l.ss02
Substitution2: "'smcp' Lowercase to Small Capitals lookup 12 subtable" l.sc
AlternateSubs2: "'aalt' Access All Alternates lookup 1 subtable" l.sc l.ss02
Position2: "Single Positioning lookup 6 subtable" dx=0 dy=0 dh=-40 dv=0
EndChar

StartChar: m
Encoding: 109 109 80
Width: 958
GlyphClass: 2
Flags: W
LayerCount: 2
Fore
SplineSet
684 511 m 0,0,1
 766 511 766 511 820 462.5 c 128,-1,2
 874 414 874 414 874 324 c 2,3,-1
 874 1 l 1,4,-1
 817 1 l 1,5,-1
 817 318 l 2,6,7
 817 388 817 388 779.5 424.5 c 128,-1,8
 742 461 742 461 679 461 c 0,9,10
 608 461 608 461 559 411.5 c 128,-1,11
 510 362 510 362 510 284 c 2,12,-1
 510 0 l 1,13,-1
 453 0 l 1,14,-1
 453 317 l 2,15,16
 453 387 453 387 415.5 423.5 c 128,-1,17
 378 460 378 460 316 460 c 0,18,19
 248 460 248 460 197.5 411 c 128,-1,20
 147 362 147 362 147 279 c 2,21,-1
 147 0 l 1,22,-1
 90 0 l 1,23,-1
 90 500 l 1,24,-1
 141 500 l 1,25,-1
 144 406 l 1,26,27
 169 456 169 456 216.5 483 c 128,-1,28
 264 510 264 510 321 510 c 0,29,30
 383 510 383 510 430.5 481.5 c 128,-1,31
 478 453 478 453 498 398 c 1,32,33
 519 451 519 451 571.5 481 c 128,-1,34
 624 511 624 511 684 511 c 0,0,1
EndSplineSet
Substitution2: "'smcp' Lowercase to Small Capitals lookup 12 subtable" m.sc
Substitution2: "'aalt' Access All Alternates lookup 0 subtable" m.sc
EndChar

StartChar: n
Encoding: 110 110 81
Width: 603
GlyphClass: 2
Flags: W
AnchorPoint: "Anchor-0" 335 0 basechar 0
LayerCount: 2
Fore
SplineSet
326 510 m 0,0,1
 412 510 412 510 465 461.5 c 128,-1,2
 518 413 518 413 518 323 c 2,3,-1
 518 0 l 1,4,-1
 461 0 l 1,5,-1
 461 305 l 2,6,7
 461 383 461 383 423 421.5 c 128,-1,8
 385 460 385 460 320 460 c 0,9,10
 249 460 249 460 198 412 c 128,-1,11
 147 364 147 364 147 279 c 2,12,-1
 147 0 l 1,13,-1
 90 0 l 1,14,-1
 90 500 l 1,15,-1
 141 500 l 1,16,-1
 144 405 l 1,17,18
 168 456 168 456 216.5 483 c 128,-1,19
 265 510 265 510 326 510 c 0,0,1
EndSplineSet
Substitution2: "Single Substitution lookup 57 subtable" n.swsh
Substitution2: "'swsh' Swash lookup 38 subtable" n.swsh
Substitution2: "'smcp' Lowercase to Small Capitals lookup 12 subtable" n.sc
AlternateSubs2: "'aalt' Access All Alternates lookup 1 subtable" n.sc n.swsh
EndChar

StartChar: o
Encoding: 111 111 82
Width: 594
GlyphClass: 2
Flags: W
LayerCount: 2
Fore
SplineSet
297 510 m 128,-1,1
 409 510 409 510 472.5 441 c 128,-1,2
 536 372 536 372 536 250 c 128,-1,3
 536 128 536 128 472.5 59 c 128,-1,4
 409 -10 409 -10 297 -10 c 128,-1,5
 185 -10 185 -10 121.5 59 c 128,-1,6
 58 128 58 128 58 250 c 128,-1,7
 58 372 58 372 121.5 441 c 128,-1,0
 185 510 185 510 297 510 c 128,-1,1
297 461 m 128,-1,9
 212 461 212 461 163.5 404.5 c 128,-1,10
 115 348 115 348 115 250 c 128,-1,11
 115 152 115 152 163.5 95.5 c 128,-1,12
 212 39 212 39 297 39 c 128,-1,13
 382 39 382 39 430.5 95.5 c 128,-1,14
 479 152 479 152 479 250 c 128,-1,15
 479 348 479 348 430.5 404.5 c 128,-1,8
 382 461 382 461 297 461 c 128,-1,9
EndSplineSet
Substitution2: "Single Substitution lookup 55 subtable" ordmasculine
Substitution2: "'smcp' Lowercase to Small Capitals lookup 12 subtable" o.sc
AlternateSubs2: "'aalt' Access All Alternates lookup 1 subtable" o.sc ordmasculine
EndChar

StartChar: p
Encoding: 112 112 83
Width: 614
GlyphClass: 2
Flags: W
LayerCount: 2
Fore
SplineSet
327 510 m 0,0,1
 433 510 433 510 494 441 c 128,-1,2
 555 372 555 372 555 250 c 128,-1,3
 555 128 555 128 494 59 c 128,-1,4
 433 -10 433 -10 327 -10 c 0,5,6
 264 -10 264 -10 217 19 c 128,-1,7
 170 48 170 48 147 99 c 1,8,-1
 147 -210 l 1,9,-1
 90 -210 l 1,10,-1
 90 500 l 1,11,-1
 141 500 l 1,12,-1
 144 394 l 1,13,14
 166 448 166 448 214 479 c 128,-1,15
 262 510 262 510 327 510 c 0,0,1
320 40 m 0,16,17
 404 40 404 40 451 96 c 128,-1,18
 498 152 498 152 498 250 c 128,-1,19
 498 348 498 348 451 404 c 128,-1,20
 404 460 404 460 320 460 c 0,21,22
 244 460 244 460 196.5 407.5 c 128,-1,23
 149 355 149 355 147 264 c 2,24,-1
 147 236 l 2,25,26
 149 145 149 145 196 92.5 c 128,-1,27
 243 40 243 40 320 40 c 0,16,17
EndSplineSet
Substitution2: "'smcp' Lowercase to Small Capitals lookup 12 subtable" p.sc
Substitution2: "'aalt' Access All Alternates lookup 0 subtable" p.sc
EndChar

StartChar: q
Encoding: 113 113 84
Width: 615
GlyphClass: 2
Flags: W
LayerCount: 2
Fore
SplineSet
474 500 m 1,0,-1
 525 500 l 1,1,-1
 525 -210 l 1,2,-1
 468 -210 l 1,3,-1
 468 99 l 1,4,5
 445 48 445 48 398 19 c 128,-1,6
 351 -10 351 -10 288 -10 c 0,7,8
 182 -10 182 -10 121 59 c 128,-1,9
 60 128 60 128 60 250 c 128,-1,10
 60 372 60 372 121 441 c 128,-1,11
 182 510 182 510 288 510 c 0,12,13
 353 510 353 510 401 479 c 128,-1,14
 449 448 449 448 471 395 c 1,15,-1
 474 500 l 1,0,-1
295 40 m 0,16,17
 371 40 371 40 417.5 91 c 128,-1,18
 464 142 464 142 468 231 c 1,19,-1
 468 269 l 1,20,21
 464 358 464 358 417.5 409 c 128,-1,22
 371 460 371 460 295 460 c 0,23,24
 211 460 211 460 164 404 c 128,-1,25
 117 348 117 348 117 250 c 128,-1,26
 117 152 117 152 164 96 c 128,-1,27
 211 40 211 40 295 40 c 0,16,17
EndSplineSet
Substitution2: "'smcp' Lowercase to Small Capitals lookup 12 subtable" q.sc
Substitution2: "'aalt' Access All Alternates lookup 0 subtable" q.sc
EndChar

StartChar: r
Encoding: 114 114 85
Width: 385
GlyphClass: 2
Flags: W
AnchorPoint: "Anchor-0" 133 0 basechar 0
LayerCount: 2
Fore
SplineSet
306 510 m 0,0,1
 344 510 344 510 367 495 c 1,2,-1
 353 441 l 1,3,4
 328 457 328 457 290 457 c 0,5,6
 233 457 233 457 190 407 c 128,-1,7
 147 357 147 357 147 278 c 2,8,-1
 147 0 l 1,9,-1
 90 0 l 1,10,-1
 90 500 l 1,11,-1
 138 500 l 1,12,-1
 145 403 l 1,13,14
 186 510 186 510 306 510 c 0,0,1
EndSplineSet
Substitution2: "Single Substitution lookup 57 subtable" r.swsh
Substitution2: "'swsh' Swash lookup 38 subtable" r.swsh
Substitution2: "'smcp' Lowercase to Small Capitals lookup 12 subtable" r.sc
AlternateSubs2: "'aalt' Access All Alternates lookup 1 subtable" r.sc r.swsh
EndChar

StartChar: s
Encoding: 115 115 86
Width: 510
GlyphClass: 2
Flags: W
AnchorPoint: "Anchor-0" 269 0 basechar 0
LayerCount: 2
Fore
SplineSet
255 -10 m 0,0,1
 180 -10 180 -10 123.5 19.5 c 128,-1,2
 67 49 67 49 44 106 c 1,3,-1
 91 137 l 1,4,5
 107 89 107 89 152 64.5 c 128,-1,6
 197 40 197 40 261 40 c 0,7,8
 327 40 327 40 364 65 c 128,-1,9
 401 90 401 90 401 130 c 0,10,11
 401 165 401 165 369 186 c 128,-1,12
 337 207 337 207 256 221 c 0,13,14
 150 240 150 240 107 272.5 c 128,-1,15
 64 305 64 305 64 365 c 0,16,17
 64 426 64 426 117.5 468 c 128,-1,18
 171 510 171 510 257 510 c 0,19,20
 414 510 414 510 450 388 c 1,21,-1
 402 360 l 1,22,23
 372 460 372 460 257 460 c 0,24,25
 199 460 199 460 160 434 c 128,-1,26
 121 408 121 408 121 371 c 0,27,28
 121 332 121 332 154 310 c 128,-1,29
 187 288 187 288 271 274 c 0,30,31
 373 257 373 257 415.5 224.5 c 128,-1,32
 458 192 458 192 458 133 c 0,33,34
 458 68 458 68 403 29 c 128,-1,35
 348 -10 348 -10 255 -10 c 0,0,1
EndSplineSet
Substitution2: "'hist' Historical Forms lookup 44 subtable" longs
Substitution2: "'smcp' Lowercase to Small Capitals lookup 12 subtable" s.sc
AlternateSubs2: "'aalt' Access All Alternates lookup 1 subtable" s.sc longs
EndChar

StartChar: t
Encoding: 116 116 87
Width: 387
GlyphClass: 2
Flags: W
AnchorPoint: "Anchor-0" 243 0 basechar 0
LayerCount: 2
Fore
SplineSet
352 80 m 1,0,-1
 373 32 l 1,1,2
 328 -10 328 -10 256 -10 c 0,3,4
 195 -10 195 -10 159.5 23.5 c 128,-1,5
 124 57 124 57 124 125 c 2,6,-1
 124 451 l 1,7,-1
 24 451 l 1,8,-1
 24 500 l 1,9,-1
 124 500 l 1,10,-1
 124 624 l 1,11,-1
 181 639 l 1,12,-1
 181 500 l 1,13,-1
 369 500 l 1,14,-1
 369 451 l 1,15,-1
 181 451 l 1,16,-1
 181 134 l 2,17,18
 181 43 181 43 266 43 c 0,19,20
 317 43 317 43 352 80 c 1,0,-1
EndSplineSet
Substitution2: "Single Substitution lookup 57 subtable" t.swsh
Substitution2: "'swsh' Swash lookup 38 subtable" t.swsh
Substitution2: "'smcp' Lowercase to Small Capitals lookup 12 subtable" t.sc
AlternateSubs2: "'aalt' Access All Alternates lookup 1 subtable" t.sc t.swsh
EndChar

StartChar: u
Encoding: 117 117 88
Width: 599
GlyphClass: 2
Flags: W
LayerCount: 2
Fore
SplineSet
452 500 m 1,0,-1
 509 500 l 1,1,-1
 509 0 l 1,2,-1
 459 0 l 1,3,-1
 455 93 l 1,4,5
 405 -10 405 -10 266 -10 c 0,6,7
 184 -10 184 -10 134.5 35.5 c 128,-1,8
 85 81 85 81 85 171 c 2,9,-1
 85 500 l 1,10,-1
 142 500 l 1,11,-1
 142 185 l 2,12,13
 142 40 142 40 276 40 c 0,14,15
 355 40 355 40 403.5 89.5 c 128,-1,16
 452 139 452 139 452 217 c 2,17,-1
 452 500 l 1,0,-1
EndSplineSet
Substitution2: "'smcp' Lowercase to Small Capitals lookup 12 subtable" u.sc
Substitution2: "'aalt' Access All Alternates lookup 0 subtable" u.sc
EndChar

StartChar: v
Encoding: 118 118 89
Width: 506
GlyphClass: 2
Flags: W
LayerCount: 2
Fore
SplineSet
430 500 m 1,0,-1
 490 500 l 1,1,-1
 282 0 l 1,2,-1
 224 0 l 1,3,-1
 16 500 l 1,4,-1
 80 500 l 1,5,-1
 254 58 l 1,6,-1
 430 500 l 1,0,-1
EndSplineSet
Substitution2: "'smcp' Lowercase to Small Capitals lookup 12 subtable" v.sc
Substitution2: "'aalt' Access All Alternates lookup 0 subtable" v.sc
EndChar

StartChar: w
Encoding: 119 119 90
Width: 828
GlyphClass: 2
Flags: W
LayerCount: 2
Fore
SplineSet
731 500 m 1,0,-1
 794 500 l 1,1,-1
 623 0 l 1,2,-1
 566 0 l 1,3,-1
 411 428 l 1,4,-1
 262 0 l 1,5,-1
 205 0 l 1,6,-1
 34 500 l 1,7,-1
 97 500 l 1,8,-1
 235 66 l 1,9,-1
 385 500 l 1,10,-1
 443 500 l 1,11,-1
 594 66 l 1,12,-1
 731 500 l 1,0,-1
EndSplineSet
Substitution2: "'smcp' Lowercase to Small Capitals lookup 12 subtable" w.sc
Substitution2: "'aalt' Access All Alternates lookup 0 subtable" w.sc
EndChar

StartChar: x
Encoding: 120 120 91
Width: 511
GlyphClass: 2
Flags: W
LayerCount: 2
Fore
SplineSet
486 0 m 1,0,-1
 415 0 l 1,1,-1
 254 213 l 1,2,-1
 93 0 l 1,3,-1
 25 0 l 1,4,-1
 221 255 l 1,5,-1
 36 500 l 1,6,-1
 108 500 l 1,7,-1
 259 300 l 1,8,-1
 406 500 l 1,9,-1
 474 500 l 1,10,-1
 291 258 l 1,11,-1
 486 0 l 1,0,-1
EndSplineSet
Substitution2: "'smcp' Lowercase to Small Capitals lookup 12 subtable" x.sc
Substitution2: "'aalt' Access All Alternates lookup 0 subtable" x.sc
EndChar

StartChar: y
Encoding: 121 121 92
Width: 516
GlyphClass: 2
Flags: W
LayerCount: 2
Fore
SplineSet
497 500 m 1,0,-1
 257 -90 l 2,1,2
 229 -159 229 -159 194.5 -187 c 128,-1,3
 160 -215 160 -215 107 -215 c 0,4,5
 42 -215 42 -215 8 -177 c 1,6,-1
 29 -128 l 1,7,8
 55 -165 55 -165 106 -165 c 0,9,10
 140 -165 140 -165 164 -145.5 c 128,-1,11
 188 -126 188 -126 208 -76 c 2,12,-1
 239 0 l 1,13,-1
 28 500 l 1,14,-1
 93 500 l 1,15,-1
 240 133 l 1,16,-1
 266 61 l 1,17,-1
 295 140 l 1,18,-1
 435 500 l 1,19,-1
 497 500 l 1,0,-1
EndSplineSet
Substitution2: "Single Substitution lookup 57 subtable" y.swsh
Substitution2: "'swsh' Swash lookup 38 subtable" y.swsh
Substitution2: "'smcp' Lowercase to Small Capitals lookup 12 subtable" y.sc
AlternateSubs2: "'aalt' Access All Alternates lookup 1 subtable" y.sc y.swsh
EndChar

StartChar: z
Encoding: 122 122 93
Width: 512
GlyphClass: 2
Flags: W
LayerCount: 2
Fore
SplineSet
51 0 m 1,0,-1
 51 44 l 1,1,-1
 337 393 l 1,2,-1
 392 452 l 1,3,-1
 311 451 l 1,4,-1
 50 451 l 1,5,-1
 50 500 l 1,6,-1
 456 500 l 1,7,-1
 456 456 l 1,8,-1
 176 114 l 1,9,-1
 116 48 l 1,10,-1
 207 49 l 1,11,-1
 467 49 l 1,12,-1
 467 0 l 1,13,-1
 51 0 l 1,0,-1
EndSplineSet
Substitution2: "'smcp' Lowercase to Small Capitals lookup 12 subtable" z.sc
Substitution2: "'aalt' Access All Alternates lookup 0 subtable" z.sc
EndChar

StartChar: braceleft
Encoding: 123 123 94
Width: 318
GlyphClass: 2
Flags: W
LayerCount: 2
Fore
SplineSet
187 -66 m 2,0,1
 187 -136 187 -136 284 -136 c 1,2,-1
 276 -182 l 1,3,4
 134 -182 134 -182 134 -62 c 2,5,-1
 134 157 l 2,6,7
 134 209 134 209 106.5 233.5 c 128,-1,8
 79 258 79 258 21 258 c 1,9,-1
 21 307 l 1,10,11
 134 307 134 307 134 408 c 2,12,-1
 134 627 l 2,13,14
 134 747 134 747 276 747 c 1,15,-1
 284 700 l 1,16,17
 187 700 187 700 187 631 c 2,18,-1
 187 403 l 2,19,20
 187 306 187 306 86 283 c 1,21,22
 187 258 187 258 187 162 c 2,23,-1
 187 -66 l 2,0,1
EndSplineSet
Substitution2: "'case' Case-Sensitive Forms lookup 29 subtable" braceleft.case
Substitution2: "'aalt' Access All Alternates lookup 0 subtable" braceleft.case
EndChar

StartChar: bar
Encoding: 124 124 95
Width: 216
GlyphClass: 2
Flags: W
LayerCount: 2
Fore
SplineSet
133 730 m 1,0,-1
 133 -168 l 1,1,-1
 83 -168 l 1,2,-1
 83 730 l 1,3,-1
 133 730 l 1,0,-1
EndSplineSet
Substitution2: "'case' Case-Sensitive Forms lookup 29 subtable" bar.case
Substitution2: "'aalt' Access All Alternates lookup 0 subtable" bar.case
EndChar

StartChar: braceright
Encoding: 125 125 96
Width: 318
GlyphClass: 2
Flags: W
LayerCount: 2
Fore
SplineSet
184 408 m 2,0,1
 184 307 184 307 297 307 c 1,2,-1
 297 258 l 1,3,4
 239 258 239 258 211.5 233.5 c 128,-1,5
 184 209 184 209 184 157 c 2,6,-1
 184 -62 l 2,7,8
 184 -182 184 -182 42 -182 c 1,9,-1
 33 -136 l 1,10,11
 131 -136 131 -136 131 -66 c 2,12,-1
 131 162 l 2,13,14
 131 260 131 260 233 283 c 1,15,16
 131 306 131 306 131 403 c 2,17,-1
 131 631 l 2,18,19
 131 700 131 700 33 700 c 1,20,-1
 42 747 l 1,21,22
 184 747 184 747 184 627 c 2,23,-1
 184 408 l 2,0,1
EndSplineSet
Substitution2: "'case' Case-Sensitive Forms lookup 29 subtable" braceright.case
Substitution2: "'aalt' Access All Alternates lookup 0 subtable" braceright.case
EndChar

StartChar: asciitilde
Encoding: 126 126 97
Width: 518
GlyphClass: 2
Flags: W
LayerCount: 2
Fore
SplineSet
475 388 m 1,0,1
 463 259 463 259 358 259 c 0,2,3
 310 259 310 259 254 296 c 128,-1,4
 198 333 198 333 166 333 c 0,5,6
 111 333 111 333 97 257 c 1,7,-1
 43 257 l 1,8,9
 55 386 55 386 161 386 c 0,10,11
 199 386 199 386 232.5 367.5 c 128,-1,12
 266 349 266 349 295.5 330.5 c 128,-1,13
 325 312 325 312 353 312 c 0,14,15
 407 312 407 312 421 388 c 1,16,-1
 475 388 l 1,0,1
EndSplineSet
EndChar

StartChar: exclamdown
Encoding: 161 161 99
Width: 232
GlyphClass: 2
Flags: W
LayerCount: 2
Fore
SplineSet
116 409 m 128,-1,1
 94 409 94 409 80 422.5 c 128,-1,2
 66 436 66 436 66 459 c 0,3,4
 66 481 66 481 80 494.5 c 128,-1,5
 94 508 94 508 116 508 c 128,-1,6
 138 508 138 508 151.5 494.5 c 128,-1,7
 165 481 165 481 165 459 c 128,-1,8
 165 437 165 437 151.5 423 c 128,-1,0
 138 409 138 409 116 409 c 128,-1,1
86 -160 m 1,9,-1
 86 152 l 1,10,-1
 94 306 l 1,11,-1
 138 306 l 1,12,-1
 146 152 l 1,13,-1
 146 -160 l 1,14,-1
 86 -160 l 1,9,-1
EndSplineSet
Substitution2: "'case' Case-Sensitive Forms lookup 29 subtable" exclamdown.case
Substitution2: "'smcp' Lowercase to Small Capitals lookup 12 subtable" exclamdown.sc
Substitution2: "'c2sc' Capitals to Small Capitals lookup 11 subtable" exclamdown.sc
AlternateSubs2: "'aalt' Access All Alternates lookup 1 subtable" exclamdown.sc exclamdown.case
EndChar

StartChar: cent
Encoding: 162 162 100
Width: 604
GlyphClass: 2
Flags: W
LayerCount: 2
Fore
SplineSet
523 138 m 1,0,1
 504 73 504 73 454 34.5 c 128,-1,2
 404 -4 404 -4 333 -9 c 1,3,-1
 333 -100 l 1,4,-1
 285 -100 l 1,5,-1
 285 -9 l 1,6,7
 187 1 187 1 132.5 69 c 128,-1,8
 78 137 78 137 78 250 c 0,9,10
 78 362 78 362 132.5 430.5 c 128,-1,11
 187 499 187 499 285 509 c 1,12,-1
 285 600 l 1,13,-1
 333 600 l 1,14,-1
 333 510 l 1,15,16
 472 501 472 501 518 376 c 1,17,-1
 464 350 l 1,18,19
 450 400 450 400 416 428.5 c 128,-1,20
 382 457 382 457 333 462 c 1,21,-1
 333 38 l 1,22,23
 386 43 386 43 422.5 73 c 128,-1,24
 459 103 459 103 472 155 c 1,25,-1
 523 138 l 1,0,1
132 250 m 0,26,27
 132 158 132 158 172 103 c 128,-1,28
 212 48 212 48 285 39 c 1,29,-1
 285 461 l 1,30,31
 212 451 212 451 172 396 c 128,-1,32
 132 341 132 341 132 250 c 0,26,27
EndSplineSet
Substitution2: "'tnum' Tabular Numbers lookup 26 subtable" cent.tf
Substitution2: "'aalt' Access All Alternates lookup 0 subtable" cent.tf
EndChar

StartChar: sterling
Encoding: 163 163 101
Width: 604
GlyphClass: 2
Flags: W
LayerCount: 2
Fore
SplineSet
509 139 m 1,0,-1
 555 139 l 1,1,2
 555 65 555 65 521.5 27.5 c 128,-1,3
 488 -10 488 -10 428 -10 c 0,4,5
 400 -10 400 -10 371.5 0 c 128,-1,6
 343 10 343 10 326.5 20.5 c 128,-1,7
 310 31 310 31 283 51 c 1,8,9
 234 -10 234 -10 154 -10 c 0,10,11
 108 -10 108 -10 82 11.5 c 128,-1,12
 56 33 56 33 56 69 c 0,13,14
 56 104 56 104 84.5 127.5 c 128,-1,15
 113 151 113 151 162 151 c 0,16,17
 219 151 219 151 271 115 c 1,18,19
 278 137 278 137 278 166 c 0,20,21
 278 224 278 224 236 287 c 1,22,-1
 91 287 l 1,23,-1
 91 334 l 1,24,-1
 203 334 l 1,25,26
 149 411 149 411 149 475 c 0,27,28
 149 561 149 561 204 615.5 c 128,-1,29
 259 670 259 670 345 670 c 0,30,31
 493 670 493 670 527 518 c 1,32,-1
 477 491 l 1,33,34
 454 618 454 618 342 618 c 0,35,36
 278 618 278 618 240 581 c 128,-1,37
 202 544 202 544 202 483 c 0,38,39
 202 448 202 448 214 418 c 128,-1,40
 226 388 226 388 259 339 c 0,41,42
 261 335 261 335 263 334 c 2,43,-1
 458 334 l 1,44,-1
 458 287 l 1,45,-1
 291 287 l 1,46,47
 323 226 323 226 323 164 c 0,48,49
 322 125 322 125 306 88 c 1,50,51
 327 71 327 71 340 62 c 128,-1,52
 353 53 353 53 375.5 44.5 c 128,-1,53
 398 36 398 36 421 36 c 0,54,55
 508 36 508 36 509 139 c 1,0,-1
161 30 m 0,56,57
 218 30 218 30 251 75 c 1,58,59
 203 107 203 107 163 107 c 0,60,61
 107 107 107 107 107 69 c 0,62,63
 107 30 107 30 161 30 c 0,56,57
EndSplineSet
Substitution2: "'tnum' Tabular Numbers lookup 26 subtable" sterling.tf
Substitution2: "'aalt' Access All Alternates lookup 0 subtable" sterling.tf
EndChar

StartChar: currency
Encoding: 164 164 102
Width: 604
GlyphClass: 2
Flags: W
LayerCount: 2
Fore
SplineSet
500 330 m 0,0,1
 500 256 500 256 461 205 c 1,2,-1
 556 112 l 1,3,-1
 519 75 l 1,4,-1
 425 168 l 1,5,6
 374 129 374 129 302 129 c 0,7,8
 228 129 228 129 177 169 c 1,9,-1
 85 75 l 1,10,-1
 48 112 l 1,11,-1
 141 206 l 1,12,13
 103 260 103 260 103 330 c 0,14,15
 103 402 103 402 141 454 c 1,16,-1
 48 546 l 1,17,-1
 85 583 l 1,18,-1
 177 491 l 1,19,20
 229 531 229 531 302 531 c 128,-1,21
 375 531 375 531 427 490 c 1,22,-1
 519 583 l 1,23,-1
 556 546 l 1,24,-1
 464 452 l 1,25,26
 500 400 500 400 500 330 c 0,0,1
302 180 m 0,27,28
 364 180 364 180 403.5 221.5 c 128,-1,29
 443 263 443 263 443 330 c 128,-1,30
 443 397 443 397 403.5 438.5 c 128,-1,31
 364 480 364 480 302 480 c 0,32,33
 239 480 239 480 199.5 438.5 c 128,-1,34
 160 397 160 397 160 330 c 128,-1,35
 160 263 160 263 199.5 221.5 c 128,-1,36
 239 180 239 180 302 180 c 0,27,28
EndSplineSet
Substitution2: "'tnum' Tabular Numbers lookup 26 subtable" currency.tf
Substitution2: "'aalt' Access All Alternates lookup 0 subtable" currency.tf
EndChar

StartChar: yen
Encoding: 165 165 103
Width: 604
GlyphClass: 2
Flags: W
LayerCount: 2
Fore
SplineSet
342 284 m 1,0,-1
 374 287 l 1,1,-1
 525 287 l 1,2,-1
 525 244 l 1,3,-1
 327 244 l 1,4,-1
 327 157 l 1,5,-1
 525 157 l 1,6,-1
 525 116 l 1,7,-1
 327 116 l 1,8,-1
 327 0 l 1,9,-1
 277 0 l 1,10,-1
 277 116 l 1,11,-1
 80 116 l 1,12,-1
 80 157 l 1,13,-1
 277 157 l 1,14,-1
 277 244 l 1,15,-1
 80 244 l 1,16,-1
 80 287 l 1,17,-1
 230 287 l 1,18,-1
 262 284 l 1,19,-1
 39 660 l 1,20,-1
 105 660 l 1,21,-1
 265 374 l 1,22,-1
 301 302 l 1,23,-1
 303 302 l 1,24,-1
 339 375 l 1,25,-1
 499 660 l 1,26,-1
 565 660 l 1,27,-1
 342 284 l 1,0,-1
EndSplineSet
Substitution2: "'tnum' Tabular Numbers lookup 26 subtable" yen.tf
Substitution2: "'aalt' Access All Alternates lookup 0 subtable" yen.tf
EndChar

StartChar: brokenbar
Encoding: 166 166 104
Width: 228
GlyphClass: 2
Flags: W
LayerCount: 2
Fore
SplineSet
139 730 m 1,0,-1
 139 366 l 1,1,-1
 89 366 l 1,2,-1
 89 730 l 1,3,-1
 139 730 l 1,0,-1
139 196 m 1,4,-1
 139 -168 l 1,5,-1
 89 -168 l 1,6,-1
 89 196 l 1,7,-1
 139 196 l 1,4,-1
EndSplineSet
EndChar

StartChar: section
Encoding: 167 167 105
Width: 576
GlyphClass: 2
Flags: W
LayerCount: 2
Fore
SplineSet
546 269 m 0,0,1
 546 182 546 182 446 138 c 1,2,3
 489 101 489 101 489 36 c 0,4,5
 489 -26 489 -26 435 -68 c 128,-1,6
 381 -110 381 -110 291 -110 c 0,7,8
 146 -110 146 -110 90 -15 c 1,9,-1
 132 20 l 1,10,11
 171 -60 171 -60 290 -60 c 0,12,13
 357 -60 357 -60 394.5 -35.5 c 128,-1,14
 432 -11 432 -11 432 31 c 0,15,16
 432 79 432 79 392.5 104.5 c 128,-1,17
 353 130 353 130 250 145 c 0,18,19
 133 161 133 161 85.5 194.5 c 128,-1,20
 38 228 38 228 38 291 c 0,21,22
 38 378 38 378 138 422 c 1,23,24
 95 459 95 459 95 524 c 0,25,26
 95 586 95 586 149.5 628 c 128,-1,27
 204 670 204 670 298 670 c 0,28,29
 439 670 439 670 494 575 c 1,30,-1
 454 541 l 1,31,32
 411 620 411 620 297 620 c 0,33,34
 228 620 228 620 190 595.5 c 128,-1,35
 152 571 152 571 152 529 c 0,36,37
 152 480 152 480 192 454.5 c 128,-1,38
 232 429 232 429 334 415 c 0,39,40
 451 399 451 399 498.5 366 c 128,-1,41
 546 333 546 333 546 269 c 0,0,1
393 167 m 1,42,43
 489 199 489 199 489 265 c 0,44,45
 489 306 489 306 451.5 328.5 c 128,-1,46
 414 351 414 351 320 363 c 0,47,48
 240 373 240 373 190 393 c 1,49,50
 95 361 95 361 95 295 c 0,51,52
 95 254 95 254 132 232 c 128,-1,53
 169 210 169 210 264 197 c 0,54,55
 343 187 343 187 393 167 c 1,42,43
EndSplineSet
EndChar

StartChar: dieresis
Encoding: 168 168 106
Width: 518
GlyphClass: 2
Flags: W
LayerCount: 2
Fore
SplineSet
166 677 m 128,-1,1
 186 677 186 677 198 664.5 c 128,-1,2
 210 652 210 652 210 632 c 128,-1,3
 210 612 210 612 198 600 c 128,-1,4
 186 588 186 588 166 588 c 128,-1,5
 146 588 146 588 133.5 600 c 128,-1,6
 121 612 121 612 121 632 c 128,-1,7
 121 652 121 652 133.5 664.5 c 128,-1,0
 146 677 146 677 166 677 c 128,-1,1
356 677 m 128,-1,9
 376 677 376 677 388.5 664.5 c 128,-1,10
 401 652 401 652 401 632 c 128,-1,11
 401 612 401 612 388.5 600 c 128,-1,12
 376 588 376 588 356 588 c 128,-1,13
 336 588 336 588 324 600 c 128,-1,14
 312 612 312 612 312 632 c 128,-1,15
 312 652 312 652 324 664.5 c 128,-1,8
 336 677 336 677 356 677 c 128,-1,9
EndSplineSet
EndChar

StartChar: copyright
Encoding: 169 169 107
Width: 811
GlyphClass: 2
Flags: W
LayerCount: 2
Fore
SplineSet
406 670 m 128,-1,1
 561 670 561 670 654.5 577 c 128,-1,2
 748 484 748 484 748 330 c 128,-1,3
 748 176 748 176 654.5 83 c 128,-1,4
 561 -10 561 -10 406 -10 c 128,-1,5
 251 -10 251 -10 157.5 83 c 128,-1,6
 64 176 64 176 64 330 c 128,-1,7
 64 484 64 484 157.5 577 c 128,-1,0
 251 670 251 670 406 670 c 128,-1,1
406 623 m 0,8,9
 274 623 274 623 194.5 543 c 128,-1,10
 115 463 115 463 115 330 c 128,-1,11
 115 197 115 197 194.5 117 c 128,-1,12
 274 37 274 37 406 37 c 0,13,14
 537 37 537 37 616.5 117 c 128,-1,15
 696 197 696 197 696 330 c 128,-1,16
 696 463 696 463 616.5 543 c 128,-1,17
 537 623 537 623 406 623 c 0,8,9
414 513 m 0,18,19
 529 513 529 513 568 416 c 1,20,-1
 526 395 l 1,21,22
 499 470 499 470 413 470 c 0,23,24
 351 470 351 470 316 432.5 c 128,-1,25
 281 395 281 395 281 328 c 128,-1,26
 281 261 281 261 316 223.5 c 128,-1,27
 351 186 351 186 413 186 c 0,28,29
 505 186 505 186 532 266 c 1,30,-1
 572 250 l 1,31,32
 555 200 555 200 514 171.5 c 128,-1,33
 473 143 473 143 414 143 c 0,34,35
 329 143 329 143 280.5 192.5 c 128,-1,36
 232 242 232 242 232 328 c 128,-1,37
 232 414 232 414 280.5 463.5 c 128,-1,38
 329 513 329 513 414 513 c 0,18,19
EndSplineSet
EndChar

StartChar: ordfeminine
Encoding: 170 170 108
Width: 371
GlyphClass: 2
Flags: W
LayerCount: 2
Fore
SplineSet
334 363 m 0,0,1
 352 363 352 363 359 368 c 1,2,-1
 355 335 l 1,3,4
 341 327 341 327 321 327 c 0,5,6
 267 327 267 327 260 381 c 1,7,8
 226 327 226 327 133 327 c 0,9,10
 83 327 83 327 53.5 348.5 c 128,-1,11
 24 370 24 370 24 409 c 0,12,13
 24 488 24 488 153 511 c 2,14,-1
 253 528 l 1,15,-1
 253 549 l 2,16,17
 253 585 253 585 231 605 c 128,-1,18
 209 625 209 625 168 625 c 0,19,20
 90 625 90 625 66 560 c 1,21,-1
 30 581 l 1,22,23
 42 620 42 620 78.5 642.5 c 128,-1,24
 115 665 115 665 170 665 c 0,25,26
 234 665 234 665 268 636 c 128,-1,27
 302 607 302 607 302 551 c 2,28,-1
 302 398 l 2,29,30
 302 363 302 363 334 363 c 0,0,1
145 366 m 0,31,32
 185 366 185 366 219 387 c 128,-1,33
 253 408 253 408 253 443 c 2,34,-1
 253 495 l 1,35,-1
 169 479 l 2,36,37
 119 469 119 469 97 454.5 c 128,-1,38
 75 440 75 440 75 414 c 0,39,40
 75 366 75 366 145 366 c 0,31,32
30 209 m 1,41,-1
 30 248 l 1,42,-1
 342 248 l 1,43,-1
 342 209 l 1,44,-1
 30 209 l 1,41,-1
EndSplineSet
EndChar

StartChar: guillemotleft
Encoding: 171 171 109
Width: 452
GlyphClass: 2
Flags: W
LayerCount: 2
Fore
SplineSet
245 461 m 1,0,-1
 111 265 l 1,1,-1
 245 69 l 1,2,-1
 182 69 l 1,3,-1
 49 265 l 1,4,-1
 182 461 l 1,5,-1
 245 461 l 1,0,-1
401 461 m 1,6,-1
 267 265 l 1,7,-1
 401 69 l 1,8,-1
 337 69 l 1,9,-1
 205 265 l 1,10,-1
 337 461 l 1,11,-1
 401 461 l 1,6,-1
EndSplineSet
Substitution2: "'case' Case-Sensitive Forms lookup 29 subtable" guillemotleft.case
Substitution2: "'aalt' Access All Alternates lookup 0 subtable" guillemotleft.case
EndChar

StartChar: logicalnot
Encoding: 172 172 110
Width: 604
GlyphClass: 2
Flags: W
LayerCount: 2
Fore
SplineSet
65 343 m 1,0,-1
 539 343 l 1,1,-1
 539 147 l 1,2,-1
 482 147 l 1,3,-1
 482 290 l 1,4,-1
 65 290 l 1,5,-1
 65 343 l 1,0,-1
EndSplineSet
EndChar

StartChar: uni00AD
Encoding: 173 173 111
Width: 477
GlyphClass: 2
Flags: W
LayerCount: 2
Fore
SplineSet
394 294 m 1,0,-1
 394 235 l 1,1,-1
 82 235 l 1,2,-1
 82 294 l 1,3,-1
 394 294 l 1,0,-1
EndSplineSet
EndChar

StartChar: registered
Encoding: 174 174 112
Width: 811
GlyphClass: 2
Flags: W
LayerCount: 2
Fore
SplineSet
406 670 m 128,-1,1
 561 670 561 670 654.5 577 c 128,-1,2
 748 484 748 484 748 330 c 128,-1,3
 748 176 748 176 654.5 83 c 128,-1,4
 561 -10 561 -10 406 -10 c 128,-1,5
 251 -10 251 -10 157.5 83 c 128,-1,6
 64 176 64 176 64 330 c 128,-1,7
 64 484 64 484 157.5 577 c 128,-1,0
 251 670 251 670 406 670 c 128,-1,1
406 37 m 0,8,9
 537 37 537 37 616.5 117 c 128,-1,10
 696 197 696 197 696 330 c 128,-1,11
 696 463 696 463 616.5 543 c 128,-1,12
 537 623 537 623 406 623 c 0,13,14
 274 623 274 623 194.5 543 c 128,-1,15
 115 463 115 463 115 330 c 128,-1,16
 115 197 115 197 194.5 117 c 128,-1,17
 274 37 274 37 406 37 c 0,8,9
565 401 m 0,18,19
 565 357 565 357 540 329 c 128,-1,20
 515 301 515 301 470 293 c 1,21,-1
 572 143 l 1,22,-1
 517 143 l 1,23,-1
 421 289 l 1,24,-1
 328 289 l 1,25,-1
 328 143 l 1,26,-1
 279 143 l 1,27,-1
 279 513 l 1,28,-1
 432 513 l 2,29,30
 494 513 494 513 529.5 483.5 c 128,-1,31
 565 454 565 454 565 401 c 0,18,19
328 475 m 1,32,-1
 328 327 l 1,33,-1
 432 327 l 2,34,35
 516 327 516 327 516 401 c 128,-1,36
 516 475 516 475 432 475 c 2,37,-1
 328 475 l 1,32,-1
EndSplineSet
Substitution2: "'ordn' Ordinals lookup 22 subtable" registeredsuperior
Substitution2: "'sups' Superscript lookup 15 subtable" registeredsuperior
Substitution2: "'aalt' Access All Alternates lookup 0 subtable" registeredsuperior
EndChar

StartChar: macron
Encoding: 175 175 113
Width: 518
GlyphClass: 2
Flags: W
LayerCount: 2
Fore
SplineSet
422 647 m 1,0,-1
 422 599 l 1,1,-1
 96 599 l 1,2,-1
 96 647 l 1,3,-1
 422 647 l 1,0,-1
EndSplineSet
EndChar

StartChar: degree
Encoding: 176 176 114
Width: 428
GlyphClass: 2
Flags: W
LayerCount: 2
Fore
SplineSet
214 362 m 0,0,1
 144 362 144 362 100.5 405 c 128,-1,2
 57 448 57 448 57 516 c 128,-1,3
 57 584 57 584 100.5 627 c 128,-1,4
 144 670 144 670 214 670 c 0,5,6
 283 670 283 670 327 627 c 128,-1,7
 371 584 371 584 371 516 c 128,-1,8
 371 448 371 448 327 405 c 128,-1,9
 283 362 283 362 214 362 c 0,0,1
214 408 m 128,-1,11
 261 408 261 408 290.5 438.5 c 128,-1,12
 320 469 320 469 320 516 c 128,-1,13
 320 563 320 563 290.5 593 c 128,-1,14
 261 623 261 623 214 623 c 128,-1,15
 167 623 167 623 137 593 c 128,-1,16
 107 563 107 563 107 516 c 128,-1,17
 107 469 107 469 137 438.5 c 128,-1,10
 167 408 167 408 214 408 c 128,-1,11
EndSplineSet
EndChar

StartChar: plusminus
Encoding: 177 177 115
Width: 604
GlyphClass: 2
Flags: W
LayerCount: 2
Fore
SplineSet
329 412 m 1,0,-1
 539 412 l 1,1,-1
 539 359 l 1,2,-1
 329 359 l 1,3,-1
 329 137 l 1,4,-1
 276 137 l 1,5,-1
 276 359 l 1,6,-1
 65 359 l 1,7,-1
 65 412 l 1,8,-1
 276 412 l 1,9,-1
 276 634 l 1,10,-1
 329 634 l 1,11,-1
 329 412 l 1,0,-1
65 0 m 1,12,-1
 65 53 l 1,13,-1
 539 53 l 1,14,-1
 539 0 l 1,15,-1
 65 0 l 1,12,-1
EndSplineSet
EndChar

StartChar: uni00B2
Encoding: 178 178 116
Width: 352
GlyphClass: 2
Flags: W
LayerCount: 2
Fore
SplineSet
38 333 m 1,0,-1
 38 369 l 1,1,2
 109 424 109 424 138 447 c 0,3,4
 203 499 203 499 230.5 535 c 128,-1,5
 258 571 258 571 258 609 c 0,6,7
 258 646 258 646 235 669.5 c 128,-1,8
 212 693 212 693 171 693 c 0,9,10
 128 693 128 693 102 666.5 c 128,-1,11
 76 640 76 640 74 593 c 1,12,-1
 29 608 l 1,13,14
 33 667 33 667 71 701 c 128,-1,15
 109 735 109 735 172 735 c 0,16,17
 237 735 237 735 274 700 c 128,-1,18
 311 665 311 665 311 611 c 0,19,20
 311 527 311 527 174 427 c 0,21,22
 128 391 128 391 104 374 c 1,23,-1
 104 373 l 1,24,25
 109 373 109 373 129 374 c 128,-1,26
 149 375 149 375 155 375 c 2,27,-1
 322 375 l 1,28,-1
 322 333 l 1,29,-1
 38 333 l 1,0,-1
EndSplineSet
EndChar

StartChar: uni00B3
Encoding: 179 179 117
Width: 342
GlyphClass: 2
Flags: W
LayerCount: 2
Fore
SplineSet
167 735 m 0,0,1
 228 735 228 735 262.5 705.5 c 128,-1,2
 297 676 297 676 297 628 c 0,3,4
 297 588 297 588 274.5 563.5 c 128,-1,5
 252 539 252 539 220 533 c 1,6,-1
 220 532 l 1,7,8
 255 530 255 530 280.5 505 c 128,-1,9
 306 480 306 480 306 439 c 0,10,11
 306 389 306 389 266.5 358 c 128,-1,12
 227 327 227 327 165 327 c 0,13,14
 50 327 50 327 20 421 c 1,15,-1
 68 443 l 1,16,17
 82 369 82 369 165 369 c 0,18,19
 205 369 205 369 229.5 389.5 c 128,-1,20
 254 410 254 410 254 445 c 0,21,22
 254 513 254 513 167 513 c 2,23,-1
 143 513 l 1,24,-1
 143 550 l 1,25,-1
 165 550 l 2,26,27
 203 550 203 550 223.5 569.5 c 128,-1,28
 244 589 244 589 244 621 c 0,29,30
 244 655 244 655 223.5 674 c 128,-1,31
 203 693 203 693 165 693 c 0,32,33
 93 693 93 693 79 628 c 1,34,-1
 32 645 l 1,35,36
 44 688 44 688 80 711.5 c 128,-1,37
 116 735 116 735 167 735 c 0,0,1
EndSplineSet
EndChar

StartChar: acute
Encoding: 180 180 118
Width: 518
GlyphClass: 2
Flags: W
LayerCount: 2
Fore
SplineSet
319 743 m 1,0,-1
 381 743 l 1,1,-1
 286 583 l 1,2,-1
 239 583 l 1,3,-1
 319 743 l 1,0,-1
EndSplineSet
EndChar

StartChar: uni00B5
Encoding: 181 181 119
Width: 588
GlyphClass: 2
Flags: W
LayerCount: 2
Fore
SplineSet
450 500 m 1,0,-1
 507 500 l 1,1,-1
 507 0 l 1,2,-1
 459 0 l 1,3,-1
 455 96 l 1,4,5
 403 -10 403 -10 263 -10 c 0,6,7
 180 -10 180 -10 139 52 c 1,8,-1
 139 -210 l 1,9,-1
 82 -210 l 1,10,-1
 82 500 l 1,11,-1
 139 500 l 1,12,-1
 139 185 l 2,13,14
 139 40 139 40 273 40 c 0,15,16
 346 40 346 40 394.5 81.5 c 128,-1,17
 443 123 443 123 450 189 c 1,18,-1
 450 500 l 1,0,-1
EndSplineSet
EndChar

StartChar: paragraph
Encoding: 182 182 120
Width: 606
GlyphClass: 2
Flags: W
LayerCount: 2
Fore
SplineSet
519 660 m 1,0,-1
 519 -100 l 1,1,-1
 468 -100 l 1,2,-1
 468 612 l 1,3,-1
 336 612 l 1,4,-1
 336 -100 l 1,5,-1
 283 -100 l 1,6,-1
 283 214 l 1,7,8
 172 214 172 214 104.5 275.5 c 128,-1,9
 37 337 37 337 37 437 c 128,-1,10
 37 537 37 537 108 598.5 c 128,-1,11
 179 660 179 660 295 660 c 2,12,-1
 519 660 l 1,0,-1
283 612 m 1,13,14
 194 612 194 612 142.5 564.5 c 128,-1,15
 91 517 91 517 91 437 c 0,16,17
 91 356 91 356 142 309 c 128,-1,18
 193 262 193 262 283 262 c 1,19,-1
 283 612 l 1,13,14
EndSplineSet
Substitution2: "'ornm' Ornaments lookup 40 subtable" uni2761
Substitution2: "'aalt' Access All Alternates lookup 0 subtable" uni2761
EndChar

StartChar: periodcentered
Encoding: 183 183 121
Width: 214
GlyphClass: 2
Flags: W
LayerCount: 2
Fore
SplineSet
107 406 m 128,-1,1
 129 406 129 406 142.5 392.5 c 128,-1,2
 156 379 156 379 156 357 c 0,3,4
 156 334 156 334 142.5 320.5 c 128,-1,5
 129 307 129 307 107 307 c 0,6,7
 84 307 84 307 70.5 320.5 c 128,-1,8
 57 334 57 334 57 357 c 0,9,10
 57 379 57 379 71 392.5 c 128,-1,0
 85 406 85 406 107 406 c 128,-1,1
EndSplineSet
Substitution2: "Single Substitution lookup 55 subtable" periodcentered.loclCAT.sc
Substitution2: "Single Substitution lookup 54 subtable" periodcentered.loclCAT.case
Substitution2: "Single Substitution lookup 53 subtable" periodcentered.loclCAT
Substitution2: "'case' Case-Sensitive Forms lookup 29 subtable" periodcentered.case
Substitution2: "'smcp' Lowercase to Small Capitals lookup 12 subtable" periodcentered.sc
Substitution2: "'c2sc' Capitals to Small Capitals lookup 11 subtable" periodcentered.sc
AlternateSubs2: "'aalt' Access All Alternates lookup 1 subtable" periodcentered.sc periodcentered.case
Position2: "Single Positioning lookup 6 subtable" dx=0 dy=0 dh=-30 dv=0
EndChar

StartChar: cedilla
Encoding: 184 184 122
Width: 518
GlyphClass: 2
Flags: W
LayerCount: 2
Fore
SplineSet
221 3 m 1,0,-1
 257 20 l 1,1,2
 316 -2 316 -2 345.5 -36.5 c 128,-1,3
 375 -71 375 -71 375 -112 c 128,-1,4
 375 -153 375 -153 346 -181.5 c 128,-1,5
 317 -210 317 -210 269 -210 c 0,6,7
 201 -210 201 -210 165 -173 c 1,8,-1
 187 -133 l 1,9,10
 215 -167 215 -167 262 -167 c 0,11,12
 289 -167 289 -167 307 -149.5 c 128,-1,13
 325 -132 325 -132 325 -105 c 0,14,15
 325 -73 325 -73 303 -49.5 c 128,-1,16
 281 -26 281 -26 221 3 c 1,0,-1
EndSplineSet
EndChar

StartChar: uni00B9
Encoding: 185 185 123
Width: 225
GlyphClass: 2
Flags: W
LayerCount: 2
Fore
SplineSet
126 730 m 1,0,-1
 170 730 l 1,1,-1
 170 333 l 1,2,-1
 119 333 l 1,3,-1
 119 605 l 2,4,5
 119 638 119 638 122 674 c 1,6,7
 71 624 71 624 10 611 c 1,8,-1
 10 654 l 1,9,10
 39 661 39 661 75 683 c 128,-1,11
 111 705 111 705 126 730 c 1,0,-1
EndSplineSet
EndChar

StartChar: ordmasculine
Encoding: 186 186 124
Width: 358
GlyphClass: 2
Flags: W
LayerCount: 2
Fore
SplineSet
179 327 m 0,0,1
 28 327 28 327 28 496 c 128,-1,2
 28 665 28 665 179 665 c 0,3,4
 329 665 329 665 329 496 c 128,-1,5
 329 327 329 327 179 327 c 0,0,1
179 367 m 128,-1,7
 279 367 279 367 279 496 c 128,-1,8
 279 625 279 625 179 625 c 128,-1,9
 79 625 79 625 79 496 c 128,-1,6
 79 367 79 367 179 367 c 128,-1,7
39 209 m 1,10,-1
 39 248 l 1,11,-1
 319 248 l 1,12,-1
 319 209 l 1,13,-1
 39 209 l 1,10,-1
EndSplineSet
EndChar

StartChar: guillemotright
Encoding: 187 187 125
Width: 450
GlyphClass: 2
Flags: W
LayerCount: 2
Fore
SplineSet
49 461 m 1,0,-1
 113 461 l 1,1,-1
 245 265 l 1,2,-1
 113 69 l 1,3,-1
 49 69 l 1,4,-1
 183 265 l 1,5,-1
 49 461 l 1,0,-1
205 461 m 1,6,-1
 268 461 l 1,7,-1
 401 265 l 1,8,-1
 268 69 l 1,9,-1
 205 69 l 1,10,-1
 339 265 l 1,11,-1
 205 461 l 1,6,-1
EndSplineSet
Substitution2: "'case' Case-Sensitive Forms lookup 29 subtable" guillemotright.case
Substitution2: "'aalt' Access All Alternates lookup 0 subtable" guillemotright.case
EndChar

StartChar: onequarter
Encoding: 188 188 126
Width: 733
GlyphClass: 2
Flags: W
LayerCount: 2
Fore
SplineSet
121 609 m 1,0,1
 74 560 74 560 10 546 c 1,2,-1
 10 589 l 1,3,4
 39 596 39 596 75 618 c 128,-1,5
 111 640 111 640 126 665 c 1,6,-1
 170 665 l 1,7,-1
 170 268 l 1,8,-1
 119 268 l 1,9,-1
 119 540 l 2,10,11
 119 561 119 561 121 609 c 1,0,1
548 660 m 1,12,-1
 606 660 l 1,13,-1
 133 0 l 1,14,-1
 76 0 l 1,15,-1
 548 660 l 1,12,-1
638 140 m 1,16,-1
 713 140 l 1,17,-1
 713 103 l 1,18,-1
 638 103 l 1,19,-1
 638 -4 l 1,20,-1
 595 -4 l 1,21,-1
 595 103 l 1,22,-1
 396 103 l 1,23,-1
 396 131 l 1,24,-1
 582 393 l 1,25,-1
 638 393 l 1,26,-1
 638 140 l 1,16,-1
595 286 m 2,27,28
 595 329 595 329 597 350 c 1,29,-1
 594 350 l 1,30,31
 573 315 573 315 562 299 c 2,32,-1
 446 140 l 1,33,-1
 595 140 l 1,34,-1
 595 286 l 2,27,28
EndSplineSet
EndChar

StartChar: onehalf
Encoding: 189 189 127
Width: 808
GlyphClass: 2
Flags: W
LayerCount: 2
Fore
SplineSet
121 609 m 1,0,1
 74 560 74 560 10 546 c 1,2,-1
 10 589 l 1,3,4
 39 596 39 596 75 618 c 128,-1,5
 111 640 111 640 126 665 c 1,6,-1
 170 665 l 1,7,-1
 170 268 l 1,8,-1
 119 268 l 1,9,-1
 119 540 l 2,10,11
 119 561 119 561 121 609 c 1,0,1
548 660 m 1,12,-1
 606 660 l 1,13,-1
 133 0 l 1,14,-1
 76 0 l 1,15,-1
 548 660 l 1,12,-1
611 38 m 2,16,-1
 778 38 l 1,17,-1
 778 -4 l 1,18,-1
 494 -4 l 1,19,-1
 494 32 l 1,20,21
 565 87 565 87 594 110 c 0,22,23
 659 162 659 162 686.5 198 c 128,-1,24
 714 234 714 234 714 272 c 128,-1,25
 714 310 714 310 691 333 c 128,-1,26
 668 356 668 356 627 356 c 0,27,28
 584 356 584 356 558 329.5 c 128,-1,29
 532 303 532 303 530 256 c 1,30,-1
 485 271 l 1,31,32
 489 330 489 330 527 364 c 128,-1,33
 565 398 565 398 628 398 c 0,34,35
 693 398 693 398 730 363 c 128,-1,36
 767 328 767 328 767 274 c 0,37,38
 767 190 767 190 630 90 c 0,39,40
 584 54 584 54 560 37 c 1,41,-1
 560 36 l 1,42,43
 565 36 565 36 585 37 c 128,-1,44
 605 38 605 38 611 38 c 2,16,-1
EndSplineSet
EndChar

StartChar: threequarters
Encoding: 190 190 128
Width: 850
GlyphClass: 2
Flags: W
LayerCount: 2
Fore
SplineSet
167 670 m 0,0,1
 228 670 228 670 262.5 640.5 c 128,-1,2
 297 611 297 611 297 563 c 0,3,4
 297 523 297 523 274.5 498.5 c 128,-1,5
 252 474 252 474 220 468 c 1,6,-1
 220 467 l 1,7,8
 255 465 255 465 280.5 440 c 128,-1,9
 306 415 306 415 306 374 c 0,10,11
 306 324 306 324 266.5 293 c 128,-1,12
 227 262 227 262 165 262 c 0,13,14
 50 262 50 262 20 356 c 1,15,-1
 68 378 l 1,16,17
 82 304 82 304 165 304 c 0,18,19
 205 304 205 304 229.5 324.5 c 128,-1,20
 254 345 254 345 254 380 c 0,21,22
 254 448 254 448 167 448 c 2,23,-1
 143 448 l 1,24,-1
 143 485 l 1,25,-1
 165 485 l 2,26,27
 203 485 203 485 223.5 504.5 c 128,-1,28
 244 524 244 524 244 556 c 0,29,30
 244 590 244 590 223.5 609 c 128,-1,31
 203 628 203 628 165 628 c 0,32,33
 93 628 93 628 79 563 c 1,34,-1
 32 580 l 1,35,36
 44 623 44 623 80 646.5 c 128,-1,37
 116 670 116 670 167 670 c 0,0,1
193 0 m 1,38,-1
 665 660 l 1,39,-1
 723 660 l 1,40,-1
 250 0 l 1,41,-1
 193 0 l 1,38,-1
831 140 m 1,42,-1
 831 103 l 1,43,-1
 756 103 l 1,44,-1
 756 -4 l 1,45,-1
 713 -4 l 1,46,-1
 713 103 l 1,47,-1
 514 103 l 1,48,-1
 514 131 l 1,49,-1
 700 393 l 1,50,-1
 756 393 l 1,51,-1
 756 140 l 1,52,-1
 831 140 l 1,42,-1
564 140 m 1,53,-1
 713 140 l 1,54,-1
 713 286 l 2,55,56
 713 329 713 329 715 350 c 1,57,-1
 712 350 l 1,58,59
 691 315 691 315 680 299 c 2,60,-1
 564 140 l 1,53,-1
EndSplineSet
EndChar

StartChar: questiondown
Encoding: 191 191 129
Width: 513
GlyphClass: 2
Flags: W
LayerCount: 2
Fore
SplineSet
267 407 m 0,0,1
 244 407 244 407 230.5 420.5 c 128,-1,2
 217 434 217 434 217 457 c 0,3,4
 217 479 217 479 231 492.5 c 128,-1,5
 245 506 245 506 267 506 c 128,-1,6
 289 506 289 506 302.5 492.5 c 128,-1,7
 316 479 316 479 316 457 c 128,-1,8
 316 435 316 435 302.5 421 c 128,-1,9
 289 407 289 407 267 407 c 0,0,1
253 -172 m 0,10,11
 160 -172 160 -172 102 -126 c 128,-1,12
 44 -80 44 -80 44 -2 c 0,13,14
 44 161 44 161 236 195 c 1,15,-1
 236 311 l 1,16,-1
 295 311 l 1,17,-1
 295 165 l 1,18,19
 190 142 190 142 147 106 c 128,-1,20
 104 70 104 70 104 4 c 0,21,22
 104 -53 104 -53 144 -86 c 128,-1,23
 184 -119 184 -119 257 -119 c 0,24,25
 332 -119 332 -119 376 -81 c 128,-1,26
 420 -43 420 -43 428 26 c 1,27,-1
 479 -2 l 1,28,29
 464 -82 464 -82 405.5 -127 c 128,-1,30
 347 -172 347 -172 253 -172 c 0,10,11
EndSplineSet
Substitution2: "'case' Case-Sensitive Forms lookup 29 subtable" questiondown.case
Substitution2: "'smcp' Lowercase to Small Capitals lookup 12 subtable" questiondown.sc
Substitution2: "'c2sc' Capitals to Small Capitals lookup 11 subtable" questiondown.sc
AlternateSubs2: "'aalt' Access All Alternates lookup 1 subtable" questiondown.sc questiondown.case
EndChar

StartChar: Agrave
Encoding: 192 192 130
Width: 633
GlyphClass: 2
Flags: W
LayerCount: 2
Fore
SplineSet
338 743 m 1,0,-1
 291 743 l 1,1,-1
 208 891 l 1,2,-1
 274 891 l 1,3,-1
 338 743 l 1,0,-1
552 0 m 1,4,-1
 472 201 l 1,5,-1
 160 201 l 1,6,-1
 81 0 l 1,7,-1
 21 0 l 1,8,-1
 283 660 l 1,9,-1
 351 660 l 1,10,-1
 612 0 l 1,11,-1
 552 0 l 1,4,-1
181 254 m 1,12,-1
 451 254 l 1,13,-1
 343 529 l 1,14,-1
 317 605 l 1,15,-1
 315 605 l 1,16,-1
 291 532 l 1,17,-1
 181 254 l 1,12,-1
EndSplineSet
Substitution2: "Single Substitution lookup 56 subtable" Agrave.swsh
Substitution2: "'swsh' Swash lookup 32 subtable" Agrave.swsh
Substitution2: "'c2sc' Capitals to Small Capitals lookup 11 subtable" agrave.sc
AlternateSubs2: "'aalt' Access All Alternates lookup 1 subtable" agrave.sc Agrave.swsh
EndChar

StartChar: Aacute
Encoding: 193 193 131
Width: 633
GlyphClass: 2
Flags: W
LayerCount: 2
Fore
SplineSet
419 891 m 1,0,-1
 336 743 l 1,1,-1
 289 743 l 1,2,-1
 353 891 l 1,3,-1
 419 891 l 1,0,-1
552 0 m 1,4,-1
 472 201 l 1,5,-1
 160 201 l 1,6,-1
 81 0 l 1,7,-1
 21 0 l 1,8,-1
 283 660 l 1,9,-1
 351 660 l 1,10,-1
 612 0 l 1,11,-1
 552 0 l 1,4,-1
181 254 m 1,12,-1
 451 254 l 1,13,-1
 343 529 l 1,14,-1
 317 605 l 1,15,-1
 315 605 l 1,16,-1
 291 532 l 1,17,-1
 181 254 l 1,12,-1
EndSplineSet
Substitution2: "Single Substitution lookup 56 subtable" Aacute.swsh
Substitution2: "'swsh' Swash lookup 32 subtable" Aacute.swsh
Substitution2: "'c2sc' Capitals to Small Capitals lookup 11 subtable" aacute.sc
AlternateSubs2: "'aalt' Access All Alternates lookup 1 subtable" aacute.sc Aacute.swsh
EndChar

StartChar: Acircumflex
Encoding: 194 194 132
Width: 633
GlyphClass: 2
Flags: W
LayerCount: 2
Fore
SplineSet
317 858 m 1,0,-1
 225 738 l 1,1,-1
 172 738 l 1,2,-1
 285 896 l 1,3,-1
 349 896 l 1,4,-1
 462 738 l 1,5,-1
 409 738 l 1,6,-1
 317 858 l 1,0,-1
552 0 m 1,7,-1
 472 201 l 1,8,-1
 160 201 l 1,9,-1
 81 0 l 1,10,-1
 21 0 l 1,11,-1
 283 660 l 1,12,-1
 351 660 l 1,13,-1
 612 0 l 1,14,-1
 552 0 l 1,7,-1
181 254 m 1,15,-1
 451 254 l 1,16,-1
 343 529 l 1,17,-1
 317 605 l 1,18,-1
 315 605 l 1,19,-1
 291 532 l 1,20,-1
 181 254 l 1,15,-1
EndSplineSet
Substitution2: "Single Substitution lookup 56 subtable" Acircumflex.swsh
Substitution2: "'swsh' Swash lookup 32 subtable" Acircumflex.swsh
Substitution2: "'c2sc' Capitals to Small Capitals lookup 11 subtable" acircumflex.sc
AlternateSubs2: "'aalt' Access All Alternates lookup 1 subtable" acircumflex.sc Acircumflex.swsh
EndChar

StartChar: Atilde
Encoding: 195 195 133
Width: 633
GlyphClass: 2
Flags: W
LayerCount: 2
Fore
SplineSet
246 817 m 0,0,1
 221 817 221 817 209 800 c 128,-1,2
 197 783 197 783 190 748 c 1,3,-1
 144 748 l 1,4,5
 156 864 156 864 247 864 c 0,6,7
 279 864 279 864 303 847 c 128,-1,8
 327 830 327 830 346.5 812.5 c 128,-1,9
 366 795 366 795 387 795 c 0,10,11
 412 795 412 795 425 812.5 c 128,-1,12
 438 830 438 830 444 865 c 1,13,-1
 489 865 l 1,14,15
 477 749 477 749 387 749 c 0,16,17
 355 749 355 749 330.5 766 c 128,-1,18
 306 783 306 783 286.5 800 c 128,-1,19
 267 817 267 817 246 817 c 0,0,1
552 0 m 1,20,-1
 472 201 l 1,21,-1
 160 201 l 1,22,-1
 81 0 l 1,23,-1
 21 0 l 1,24,-1
 283 660 l 1,25,-1
 351 660 l 1,26,-1
 612 0 l 1,27,-1
 552 0 l 1,20,-1
181 254 m 1,28,-1
 451 254 l 1,29,-1
 343 529 l 1,30,-1
 317 605 l 1,31,-1
 315 605 l 1,32,-1
 291 532 l 1,33,-1
 181 254 l 1,28,-1
EndSplineSet
Substitution2: "Single Substitution lookup 56 subtable" Atilde.swsh
Substitution2: "'swsh' Swash lookup 32 subtable" Atilde.swsh
Substitution2: "'c2sc' Capitals to Small Capitals lookup 11 subtable" atilde.sc
AlternateSubs2: "'aalt' Access All Alternates lookup 1 subtable" atilde.sc Atilde.swsh
EndChar

StartChar: Adieresis
Encoding: 196 196 134
Width: 633
GlyphClass: 2
Flags: W
LayerCount: 2
Fore
SplineSet
221 748 m 0,0,1
 201 748 201 748 188.5 760 c 128,-1,2
 176 772 176 772 176 792 c 128,-1,3
 176 812 176 812 188.5 824.5 c 128,-1,4
 201 837 201 837 221 837 c 128,-1,5
 241 837 241 837 253 824.5 c 128,-1,6
 265 812 265 812 265 792 c 128,-1,7
 265 772 265 772 252.5 760 c 128,-1,8
 240 748 240 748 221 748 c 0,0,1
411 748 m 0,9,10
 392 748 392 748 379.5 760 c 128,-1,11
 367 772 367 772 367 792 c 128,-1,12
 367 812 367 812 379 824.5 c 128,-1,13
 391 837 391 837 411 837 c 128,-1,14
 431 837 431 837 443.5 824.5 c 128,-1,15
 456 812 456 812 456 792 c 128,-1,16
 456 772 456 772 443.5 760 c 128,-1,17
 431 748 431 748 411 748 c 0,9,10
552 0 m 1,18,-1
 472 201 l 1,19,-1
 160 201 l 1,20,-1
 81 0 l 1,21,-1
 21 0 l 1,22,-1
 283 660 l 1,23,-1
 351 660 l 1,24,-1
 612 0 l 1,25,-1
 552 0 l 1,18,-1
181 254 m 1,26,-1
 451 254 l 1,27,-1
 343 529 l 1,28,-1
 317 605 l 1,29,-1
 315 605 l 1,30,-1
 291 532 l 1,31,-1
 181 254 l 1,26,-1
EndSplineSet
Substitution2: "Single Substitution lookup 56 subtable" Adieresis.swsh
Substitution2: "'titl' Titling lookup 41 subtable" Adieresis.titl
Substitution2: "'swsh' Swash lookup 32 subtable" Adieresis.swsh
Substitution2: "'c2sc' Capitals to Small Capitals lookup 11 subtable" adieresis.sc
AlternateSubs2: "'aalt' Access All Alternates lookup 1 subtable" adieresis.sc Adieresis.swsh Adieresis.titl
EndChar

StartChar: Aring
Encoding: 197 197 135
Width: 633
GlyphClass: 2
Flags: W
LayerCount: 2
Fore
SplineSet
552 0 m 1,0,-1
 472 201 l 1,1,-1
 160 201 l 1,2,-1
 81 0 l 1,3,-1
 21 0 l 1,4,-1
 273 634 l 1,5,6
 211 657 211 657 211 728 c 0,7,8
 211 772 211 772 240.5 800 c 128,-1,9
 270 828 270 828 317 828 c 0,10,11
 365 828 365 828 394 800 c 128,-1,12
 423 772 423 772 423 728 c 0,13,14
 423 656 423 656 361 634 c 1,15,-1
 612 0 l 1,16,-1
 552 0 l 1,0,-1
251 728 m 0,17,18
 251 699 251 699 269.5 681 c 128,-1,19
 288 663 288 663 317 663 c 128,-1,20
 346 663 346 663 364 681.5 c 128,-1,21
 382 700 382 700 382 728 c 128,-1,22
 382 756 382 756 363.5 774 c 128,-1,23
 345 792 345 792 317 792 c 0,24,25
 288 792 288 792 269.5 774 c 128,-1,26
 251 756 251 756 251 728 c 0,17,18
181 254 m 1,27,-1
 451 254 l 1,28,-1
 343 529 l 1,29,-1
 317 605 l 1,30,-1
 315 605 l 1,31,-1
 291 532 l 1,32,-1
 181 254 l 1,27,-1
EndSplineSet
Substitution2: "'c2sc' Capitals to Small Capitals lookup 11 subtable" aring.sc
Substitution2: "'aalt' Access All Alternates lookup 0 subtable" aring.sc
EndChar

StartChar: AE
Encoding: 198 198 136
Width: 929
GlyphClass: 2
Flags: W
LayerCount: 2
Fore
SplineSet
503 53 m 1,0,-1
 885 53 l 1,1,-1
 885 0 l 1,2,-1
 446 0 l 1,3,-1
 446 228 l 1,4,-1
 200 228 l 1,5,-1
 64 0 l 1,6,-1
 1 0 l 1,7,-1
 399 660 l 1,8,-1
 870 660 l 1,9,-1
 870 607 l 1,10,-1
 503 607 l 1,11,-1
 503 361 l 1,12,-1
 788 361 l 1,13,-1
 788 308 l 1,14,-1
 503 308 l 1,15,-1
 503 53 l 1,0,-1
232 281 m 1,16,-1
 446 281 l 1,17,-1
 446 607 l 1,18,-1
 426 607 l 1,19,-1
 232 281 l 1,16,-1
EndSplineSet
Substitution2: "'c2sc' Capitals to Small Capitals lookup 11 subtable" ae.sc
Substitution2: "'aalt' Access All Alternates lookup 0 subtable" ae.sc
EndChar

StartChar: Ccedilla
Encoding: 199 199 137
Width: 673
GlyphClass: 2
Flags: W
LayerCount: 2
Fore
SplineSet
629 168 m 1,0,1
 604 93 604 93 545.5 47.5 c 128,-1,2
 487 2 487 2 406 -8 c 1,3,4
 468 -50 468 -50 468 -112 c 0,5,6
 468 -153 468 -153 439 -181.5 c 128,-1,7
 410 -210 410 -210 362 -210 c 0,8,9
 294 -210 294 -210 258 -173 c 1,10,-1
 280 -133 l 1,11,12
 308 -167 308 -167 355 -167 c 0,13,14
 382 -167 382 -167 400 -149.5 c 128,-1,15
 418 -132 418 -132 418 -105 c 0,16,17
 418 -76 418 -76 401 -55 c 128,-1,18
 384 -34 384 -34 338 -9 c 1,19,20
 212 1 212 1 138 91.5 c 128,-1,21
 64 182 64 182 64 330 c 0,22,23
 64 486 64 486 146 578 c 128,-1,24
 228 670 228 670 364 670 c 0,25,26
 561 670 561 670 620 509 c 1,27,-1
 564 483 l 1,28,29
 517 617 517 617 368 617 c 0,30,31
 257 617 257 617 190 540 c 128,-1,32
 123 463 123 463 123 330 c 128,-1,33
 123 197 123 197 188.5 120 c 128,-1,34
 254 43 254 43 365 43 c 0,35,36
 442 43 442 43 496.5 80.5 c 128,-1,37
 551 118 551 118 573 189 c 1,38,-1
 629 168 l 1,0,1
EndSplineSet
Substitution2: "'c2sc' Capitals to Small Capitals lookup 11 subtable" ccedilla.sc
Substitution2: "'aalt' Access All Alternates lookup 0 subtable" ccedilla.sc
EndChar

StartChar: Egrave
Encoding: 200 200 138
Width: 618
GlyphClass: 2
Flags: W
AnchorPoint: "Anchor-0" 331 0 basechar 0
LayerCount: 2
Fore
SplineSet
369 743 m 1,0,-1
 322 743 l 1,1,-1
 239 891 l 1,2,-1
 305 891 l 1,3,-1
 369 743 l 1,0,-1
162 53 m 1,4,-1
 574 53 l 1,5,-1
 574 0 l 1,6,-1
 105 0 l 1,7,-1
 105 660 l 1,8,-1
 558 660 l 1,9,-1
 558 607 l 1,10,-1
 162 607 l 1,11,-1
 162 362 l 1,12,-1
 474 362 l 1,13,-1
 474 309 l 1,14,-1
 162 309 l 1,15,-1
 162 53 l 1,4,-1
EndSplineSet
Substitution2: "Single Substitution lookup 57 subtable" Egrave.swsh.001
Substitution2: "Single Substitution lookup 56 subtable" Egrave.swsh
AlternateSubs2: "'swsh' Swash lookup 33 subtable" Egrave.swsh Egrave.swsh.001
Substitution2: "'c2sc' Capitals to Small Capitals lookup 11 subtable" egrave.sc
AlternateSubs2: "'aalt' Access All Alternates lookup 1 subtable" egrave.sc Egrave.swsh Egrave.swsh.001
EndChar

StartChar: Eacute
Encoding: 201 201 139
Width: 618
GlyphClass: 2
Flags: W
AnchorPoint: "Anchor-0" 331 0 basechar 0
LayerCount: 2
Fore
SplineSet
430 891 m 1,0,-1
 347 743 l 1,1,-1
 300 743 l 1,2,-1
 364 891 l 1,3,-1
 430 891 l 1,0,-1
162 53 m 1,4,-1
 574 53 l 1,5,-1
 574 0 l 1,6,-1
 105 0 l 1,7,-1
 105 660 l 1,8,-1
 558 660 l 1,9,-1
 558 607 l 1,10,-1
 162 607 l 1,11,-1
 162 362 l 1,12,-1
 474 362 l 1,13,-1
 474 309 l 1,14,-1
 162 309 l 1,15,-1
 162 53 l 1,4,-1
EndSplineSet
Substitution2: "Single Substitution lookup 57 subtable" Eacute.swsh.001
Substitution2: "Single Substitution lookup 56 subtable" Eacute.swsh
AlternateSubs2: "'swsh' Swash lookup 33 subtable" Eacute.swsh Eacute.swsh.001
Substitution2: "'c2sc' Capitals to Small Capitals lookup 11 subtable" eacute.sc
AlternateSubs2: "'aalt' Access All Alternates lookup 1 subtable" eacute.sc Eacute.swsh Eacute.swsh.001
EndChar

StartChar: Ecircumflex
Encoding: 202 202 140
Width: 618
GlyphClass: 2
Flags: W
AnchorPoint: "Anchor-0" 331 0 basechar 0
LayerCount: 2
Fore
SplineSet
331 858 m 1,0,-1
 239 738 l 1,1,-1
 186 738 l 1,2,-1
 299 896 l 1,3,-1
 363 896 l 1,4,-1
 476 738 l 1,5,-1
 423 738 l 1,6,-1
 331 858 l 1,0,-1
162 53 m 1,7,-1
 574 53 l 1,8,-1
 574 0 l 1,9,-1
 105 0 l 1,10,-1
 105 660 l 1,11,-1
 558 660 l 1,12,-1
 558 607 l 1,13,-1
 162 607 l 1,14,-1
 162 362 l 1,15,-1
 474 362 l 1,16,-1
 474 309 l 1,17,-1
 162 309 l 1,18,-1
 162 53 l 1,7,-1
EndSplineSet
Substitution2: "Single Substitution lookup 57 subtable" Ecircumflex.swsh.001
Substitution2: "Single Substitution lookup 56 subtable" Ecircumflex.swsh
AlternateSubs2: "'swsh' Swash lookup 33 subtable" Ecircumflex.swsh Ecircumflex.swsh.001
Substitution2: "'c2sc' Capitals to Small Capitals lookup 11 subtable" ecircumflex.sc
AlternateSubs2: "'aalt' Access All Alternates lookup 1 subtable" ecircumflex.sc Ecircumflex.swsh Ecircumflex.swsh.001
EndChar

StartChar: Edieresis
Encoding: 203 203 141
Width: 618
GlyphClass: 2
Flags: W
AnchorPoint: "Anchor-0" 331 0 basechar 0
LayerCount: 2
Fore
SplineSet
236 748 m 128,-1,1
 216 748 216 748 203.5 760 c 128,-1,2
 191 772 191 772 191 792 c 128,-1,3
 191 812 191 812 203.5 824.5 c 128,-1,4
 216 837 216 837 236 837 c 128,-1,5
 256 837 256 837 268 824.5 c 128,-1,6
 280 812 280 812 280 792 c 128,-1,7
 280 772 280 772 268 760 c 128,-1,0
 256 748 256 748 236 748 c 128,-1,1
426 748 m 128,-1,9
 406 748 406 748 394 760 c 128,-1,10
 382 772 382 772 382 792 c 128,-1,11
 382 812 382 812 394 824.5 c 128,-1,12
 406 837 406 837 426 837 c 128,-1,13
 446 837 446 837 458.5 824.5 c 128,-1,14
 471 812 471 812 471 792 c 128,-1,15
 471 772 471 772 458.5 760 c 128,-1,8
 446 748 446 748 426 748 c 128,-1,9
162 53 m 1,16,-1
 574 53 l 1,17,-1
 574 0 l 1,18,-1
 105 0 l 1,19,-1
 105 660 l 1,20,-1
 558 660 l 1,21,-1
 558 607 l 1,22,-1
 162 607 l 1,23,-1
 162 362 l 1,24,-1
 474 362 l 1,25,-1
 474 309 l 1,26,-1
 162 309 l 1,27,-1
 162 53 l 1,16,-1
EndSplineSet
Substitution2: "Single Substitution lookup 57 subtable" Edieresis.swsh.001
Substitution2: "Single Substitution lookup 56 subtable" Edieresis.swsh
AlternateSubs2: "'swsh' Swash lookup 33 subtable" Edieresis.swsh Edieresis.swsh.001
Substitution2: "'c2sc' Capitals to Small Capitals lookup 11 subtable" edieresis.sc
AlternateSubs2: "'aalt' Access All Alternates lookup 1 subtable" edieresis.sc Edieresis.swsh Edieresis.swsh.001
EndChar

StartChar: Igrave
Encoding: 204 204 142
Width: 267
GlyphClass: 2
Flags: W
LayerCount: 2
Fore
SplineSet
90 891 m 1,0,-1
 154 743 l 1,1,-1
 107 743 l 1,2,-1
 24 891 l 1,3,-1
 90 891 l 1,0,-1
162 660 m 1,4,-1
 162 0 l 1,5,-1
 105 0 l 1,6,-1
 105 660 l 1,7,-1
 162 660 l 1,4,-1
EndSplineSet
Substitution2: "'c2sc' Capitals to Small Capitals lookup 11 subtable" igrave.sc
Substitution2: "'aalt' Access All Alternates lookup 0 subtable" igrave.sc
EndChar

StartChar: Iacute
Encoding: 205 205 143
Width: 267
GlyphClass: 2
Flags: W
LayerCount: 2
Fore
SplineSet
170 891 m 1,0,-1
 236 891 l 1,1,-1
 153 743 l 1,2,-1
 106 743 l 1,3,-1
 170 891 l 1,0,-1
162 660 m 1,4,-1
 162 0 l 1,5,-1
 105 0 l 1,6,-1
 105 660 l 1,7,-1
 162 660 l 1,4,-1
EndSplineSet
Substitution2: "'c2sc' Capitals to Small Capitals lookup 11 subtable" iacute.sc
Substitution2: "'aalt' Access All Alternates lookup 0 subtable" iacute.sc
EndChar

StartChar: Icircumflex
Encoding: 206 206 144
Width: 267
GlyphClass: 2
Flags: W
LayerCount: 2
Fore
SplineSet
278 738 m 1,0,-1
 225 738 l 1,1,-1
 133 858 l 1,2,-1
 41 738 l 1,3,-1
 -12 738 l 1,4,-1
 101 896 l 1,5,-1
 165 896 l 1,6,-1
 278 738 l 1,0,-1
162 660 m 1,7,-1
 162 0 l 1,8,-1
 105 0 l 1,9,-1
 105 660 l 1,10,-1
 162 660 l 1,7,-1
EndSplineSet
Substitution2: "'c2sc' Capitals to Small Capitals lookup 11 subtable" icircumflex.sc
Substitution2: "'aalt' Access All Alternates lookup 0 subtable" icircumflex.sc
EndChar

StartChar: Idieresis
Encoding: 207 207 145
Width: 267
GlyphClass: 2
Flags: W
LayerCount: 2
Fore
SplineSet
57 837 m 128,-1,1
 77 837 77 837 89 824.5 c 128,-1,2
 101 812 101 812 101 792 c 128,-1,3
 101 772 101 772 88.5 760 c 128,-1,4
 76 748 76 748 57 748 c 128,-1,5
 38 748 38 748 25.5 760 c 128,-1,6
 13 772 13 772 13 792 c 128,-1,7
 13 812 13 812 25 824.5 c 128,-1,0
 37 837 37 837 57 837 c 128,-1,1
210 837 m 128,-1,9
 230 837 230 837 242 824.5 c 128,-1,10
 254 812 254 812 254 792 c 128,-1,11
 254 772 254 772 242 760 c 128,-1,12
 230 748 230 748 210 748 c 128,-1,13
 190 748 190 748 177.5 760 c 128,-1,14
 165 772 165 772 165 792 c 128,-1,15
 165 812 165 812 177.5 824.5 c 128,-1,8
 190 837 190 837 210 837 c 128,-1,9
162 660 m 1,16,-1
 162 0 l 1,17,-1
 105 0 l 1,18,-1
 105 660 l 1,19,-1
 162 660 l 1,16,-1
EndSplineSet
Substitution2: "'c2sc' Capitals to Small Capitals lookup 11 subtable" idieresis.sc
Substitution2: "'aalt' Access All Alternates lookup 0 subtable" idieresis.sc
EndChar

StartChar: Eth
Encoding: 208 208 146
Width: 720
GlyphClass: 2
Flags: W
LayerCount: 2
Fore
SplineSet
327 660 m 2,0,1
 485 660 485 660 571 576 c 128,-1,2
 657 492 657 492 657 334 c 0,3,4
 657 173 657 173 571 86.5 c 128,-1,5
 485 0 485 0 327 0 c 2,6,-1
 118 0 l 1,7,-1
 118 312 l 1,8,-1
 18 312 l 1,9,-1
 18 355 l 1,10,-1
 118 355 l 1,11,-1
 118 660 l 1,12,-1
 327 660 l 2,0,1
332 53 m 2,13,14
 459 53 459 53 528 126 c 128,-1,15
 597 199 597 199 597 334 c 0,16,17
 597 465 597 465 528 536 c 128,-1,18
 459 607 459 607 332 607 c 2,19,-1
 175 607 l 1,20,-1
 175 355 l 1,21,-1
 375 355 l 1,22,-1
 375 312 l 1,23,-1
 175 312 l 1,24,-1
 175 53 l 1,25,-1
 332 53 l 2,13,14
EndSplineSet
Substitution2: "'c2sc' Capitals to Small Capitals lookup 11 subtable" eth.sc
Substitution2: "'aalt' Access All Alternates lookup 0 subtable" eth.sc
EndChar

StartChar: Ntilde
Encoding: 209 209 147
Width: 720
GlyphClass: 2
Flags: W
AnchorPoint: "Anchor-0" 379 0 basechar 0
LayerCount: 2
Fore
SplineSet
537 865 m 1,0,1
 525 749 525 749 435 749 c 0,2,3
 403 749 403 749 378.5 766 c 128,-1,4
 354 783 354 783 334.5 800 c 128,-1,5
 315 817 315 817 294 817 c 0,6,7
 269 817 269 817 257 800 c 128,-1,8
 245 783 245 783 238 748 c 1,9,-1
 192 748 l 1,10,11
 204 864 204 864 295 864 c 0,12,13
 327 864 327 864 351 847 c 128,-1,14
 375 830 375 830 394.5 812.5 c 128,-1,15
 414 795 414 795 435 795 c 0,16,17
 460 795 460 795 473 812.5 c 128,-1,18
 486 830 486 830 492 865 c 1,19,-1
 537 865 l 1,0,1
615 660 m 1,20,-1
 615 0 l 1,21,-1
 544 0 l 1,22,-1
 211 501 l 1,23,-1
 157 598 l 1,24,-1
 156 598 l 1,25,-1
 159 509 l 1,26,-1
 159 0 l 1,27,-1
 105 0 l 1,28,-1
 105 660 l 1,29,-1
 176 660 l 1,30,-1
 508 161 l 1,31,-1
 563 62 l 1,32,-1
 560 151 l 1,33,-1
 560 660 l 1,34,-1
 615 660 l 1,20,-1
EndSplineSet
Substitution2: "Single Substitution lookup 57 subtable" Ntilde.swsh
Substitution2: "'swsh' Swash lookup 36 subtable" Ntilde.swsh
Substitution2: "'c2sc' Capitals to Small Capitals lookup 11 subtable" ntilde.sc
AlternateSubs2: "'aalt' Access All Alternates lookup 1 subtable" ntilde.sc Ntilde.swsh
EndChar

StartChar: Ograve
Encoding: 210 210 148
Width: 736
GlyphClass: 2
Flags: W
LayerCount: 2
Fore
SplineSet
325 891 m 1,0,-1
 389 743 l 1,1,-1
 342 743 l 1,2,-1
 259 891 l 1,3,-1
 325 891 l 1,0,-1
368 670 m 128,-1,5
 508 670 508 670 590 578.5 c 128,-1,6
 672 487 672 487 672 330 c 128,-1,7
 672 173 672 173 590 81.5 c 128,-1,8
 508 -10 508 -10 368 -10 c 128,-1,9
 228 -10 228 -10 146 81.5 c 128,-1,10
 64 173 64 173 64 330 c 128,-1,11
 64 487 64 487 146 578.5 c 128,-1,4
 228 670 228 670 368 670 c 128,-1,5
368 617 m 128,-1,13
 255 617 255 617 189 540 c 128,-1,14
 123 463 123 463 123 330 c 128,-1,15
 123 197 123 197 189 120 c 128,-1,16
 255 43 255 43 368 43 c 128,-1,17
 481 43 481 43 547 120 c 128,-1,18
 613 197 613 197 613 330 c 128,-1,19
 613 463 613 463 547 540 c 128,-1,12
 481 617 481 617 368 617 c 128,-1,13
EndSplineSet
Substitution2: "'c2sc' Capitals to Small Capitals lookup 11 subtable" ograve.sc
Substitution2: "'aalt' Access All Alternates lookup 0 subtable" ograve.sc
EndChar

StartChar: Oacute
Encoding: 211 211 149
Width: 736
GlyphClass: 2
Flags: W
LayerCount: 2
Fore
SplineSet
404 891 m 1,0,-1
 470 891 l 1,1,-1
 387 743 l 1,2,-1
 340 743 l 1,3,-1
 404 891 l 1,0,-1
368 670 m 128,-1,5
 508 670 508 670 590 578.5 c 128,-1,6
 672 487 672 487 672 330 c 128,-1,7
 672 173 672 173 590 81.5 c 128,-1,8
 508 -10 508 -10 368 -10 c 128,-1,9
 228 -10 228 -10 146 81.5 c 128,-1,10
 64 173 64 173 64 330 c 128,-1,11
 64 487 64 487 146 578.5 c 128,-1,4
 228 670 228 670 368 670 c 128,-1,5
368 617 m 128,-1,13
 255 617 255 617 189 540 c 128,-1,14
 123 463 123 463 123 330 c 128,-1,15
 123 197 123 197 189 120 c 128,-1,16
 255 43 255 43 368 43 c 128,-1,17
 481 43 481 43 547 120 c 128,-1,18
 613 197 613 197 613 330 c 128,-1,19
 613 463 613 463 547 540 c 128,-1,12
 481 617 481 617 368 617 c 128,-1,13
EndSplineSet
Substitution2: "'c2sc' Capitals to Small Capitals lookup 11 subtable" oacute.sc
Substitution2: "'aalt' Access All Alternates lookup 0 subtable" oacute.sc
EndChar

StartChar: Ocircumflex
Encoding: 212 212 150
Width: 736
GlyphClass: 2
Flags: W
LayerCount: 2
Fore
SplineSet
513 738 m 1,0,-1
 460 738 l 1,1,-1
 368 858 l 1,2,-1
 276 738 l 1,3,-1
 223 738 l 1,4,-1
 336 896 l 1,5,-1
 400 896 l 1,6,-1
 513 738 l 1,0,-1
368 670 m 128,-1,8
 508 670 508 670 590 578.5 c 128,-1,9
 672 487 672 487 672 330 c 128,-1,10
 672 173 672 173 590 81.5 c 128,-1,11
 508 -10 508 -10 368 -10 c 128,-1,12
 228 -10 228 -10 146 81.5 c 128,-1,13
 64 173 64 173 64 330 c 128,-1,14
 64 487 64 487 146 578.5 c 128,-1,7
 228 670 228 670 368 670 c 128,-1,8
368 617 m 128,-1,16
 255 617 255 617 189 540 c 128,-1,17
 123 463 123 463 123 330 c 128,-1,18
 123 197 123 197 189 120 c 128,-1,19
 255 43 255 43 368 43 c 128,-1,20
 481 43 481 43 547 120 c 128,-1,21
 613 197 613 197 613 330 c 128,-1,22
 613 463 613 463 547 540 c 128,-1,15
 481 617 481 617 368 617 c 128,-1,16
EndSplineSet
Substitution2: "'c2sc' Capitals to Small Capitals lookup 11 subtable" ocircumflex.sc
Substitution2: "'aalt' Access All Alternates lookup 0 subtable" ocircumflex.sc
EndChar

StartChar: Otilde
Encoding: 213 213 151
Width: 736
GlyphClass: 2
Flags: W
LayerCount: 2
Fore
SplineSet
540 865 m 1,0,1
 528 749 528 749 438 749 c 0,2,3
 406 749 406 749 381.5 766 c 128,-1,4
 357 783 357 783 337.5 800 c 128,-1,5
 318 817 318 817 297 817 c 0,6,7
 272 817 272 817 260 800 c 128,-1,8
 248 783 248 783 241 748 c 1,9,-1
 195 748 l 1,10,11
 207 864 207 864 298 864 c 0,12,13
 330 864 330 864 354 847 c 128,-1,14
 378 830 378 830 397.5 812.5 c 128,-1,15
 417 795 417 795 438 795 c 0,16,17
 463 795 463 795 476 812.5 c 128,-1,18
 489 830 489 830 495 865 c 1,19,-1
 540 865 l 1,0,1
368 670 m 128,-1,21
 508 670 508 670 590 578.5 c 128,-1,22
 672 487 672 487 672 330 c 128,-1,23
 672 173 672 173 590 81.5 c 128,-1,24
 508 -10 508 -10 368 -10 c 128,-1,25
 228 -10 228 -10 146 81.5 c 128,-1,26
 64 173 64 173 64 330 c 128,-1,27
 64 487 64 487 146 578.5 c 128,-1,20
 228 670 228 670 368 670 c 128,-1,21
368 617 m 128,-1,29
 255 617 255 617 189 540 c 128,-1,30
 123 463 123 463 123 330 c 128,-1,31
 123 197 123 197 189 120 c 128,-1,32
 255 43 255 43 368 43 c 128,-1,33
 481 43 481 43 547 120 c 128,-1,34
 613 197 613 197 613 330 c 128,-1,35
 613 463 613 463 547 540 c 128,-1,28
 481 617 481 617 368 617 c 128,-1,29
EndSplineSet
Substitution2: "'c2sc' Capitals to Small Capitals lookup 11 subtable" otilde.sc
Substitution2: "'aalt' Access All Alternates lookup 0 subtable" otilde.sc
EndChar

StartChar: Odieresis
Encoding: 214 214 152
Width: 736
GlyphClass: 2
Flags: W
LayerCount: 2
Fore
SplineSet
273 837 m 128,-1,1
 293 837 293 837 305 824.5 c 128,-1,2
 317 812 317 812 317 792 c 128,-1,3
 317 772 317 772 304.5 760 c 128,-1,4
 292 748 292 748 273 748 c 0,5,6
 253 748 253 748 240.5 760 c 128,-1,7
 228 772 228 772 228 792 c 128,-1,8
 228 812 228 812 240.5 824.5 c 128,-1,0
 253 837 253 837 273 837 c 128,-1,1
463 837 m 128,-1,10
 483 837 483 837 495.5 824.5 c 128,-1,11
 508 812 508 812 508 792 c 128,-1,12
 508 772 508 772 495.5 760 c 128,-1,13
 483 748 483 748 463 748 c 0,14,15
 444 748 444 748 431.5 760 c 128,-1,16
 419 772 419 772 419 792 c 128,-1,17
 419 812 419 812 431 824.5 c 128,-1,9
 443 837 443 837 463 837 c 128,-1,10
368 670 m 128,-1,19
 508 670 508 670 590 578.5 c 128,-1,20
 672 487 672 487 672 330 c 128,-1,21
 672 173 672 173 590 81.5 c 128,-1,22
 508 -10 508 -10 368 -10 c 128,-1,23
 228 -10 228 -10 146 81.5 c 128,-1,24
 64 173 64 173 64 330 c 128,-1,25
 64 487 64 487 146 578.5 c 128,-1,18
 228 670 228 670 368 670 c 128,-1,19
368 617 m 128,-1,27
 255 617 255 617 189 540 c 128,-1,28
 123 463 123 463 123 330 c 128,-1,29
 123 197 123 197 189 120 c 128,-1,30
 255 43 255 43 368 43 c 128,-1,31
 481 43 481 43 547 120 c 128,-1,32
 613 197 613 197 613 330 c 128,-1,33
 613 463 613 463 547 540 c 128,-1,26
 481 617 481 617 368 617 c 128,-1,27
EndSplineSet
Substitution2: "'titl' Titling lookup 41 subtable" Odieresis.titl
Substitution2: "'c2sc' Capitals to Small Capitals lookup 11 subtable" odieresis.sc
AlternateSubs2: "'aalt' Access All Alternates lookup 1 subtable" odieresis.sc Odieresis.titl
EndChar

StartChar: multiply
Encoding: 215 215 153
Width: 604
GlyphClass: 2
Flags: W
LayerCount: 2
Fore
SplineSet
507 482 m 1,0,-1
 340 316 l 1,1,-1
 507 149 l 1,2,-1
 468 110 l 1,3,-1
 302 277 l 1,4,-1
 135 110 l 1,5,-1
 96 149 l 1,6,-1
 263 316 l 1,7,-1
 96 482 l 1,8,-1
 135 521 l 1,9,-1
 302 354 l 1,10,-1
 468 521 l 1,11,-1
 507 482 l 1,0,-1
EndSplineSet
EndChar

StartChar: Oslash
Encoding: 216 216 154
Width: 736
GlyphClass: 2
Flags: W
LayerCount: 2
Fore
SplineSet
581 588 m 1,0,1
 672 495 672 495 672 330 c 0,2,3
 672 173 672 173 590 81.5 c 128,-1,4
 508 -10 508 -10 368 -10 c 0,5,6
 266 -10 266 -10 193 40 c 1,7,-1
 140 -34 l 1,8,-1
 87 -34 l 1,9,-1
 159 68 l 1,10,11
 64 160 64 160 64 330 c 0,12,13
 64 487 64 487 146 578.5 c 128,-1,14
 228 670 228 670 368 670 c 0,15,16
 472 670 472 670 548 617 c 1,17,-1
 596 686 l 1,18,-1
 649 686 l 1,19,-1
 581 588 l 1,0,1
123 330 m 0,20,21
 123 193 123 193 193 115 c 1,22,-1
 515 570 l 1,23,24
 456 617 456 617 368 617 c 0,25,26
 255 617 255 617 189 540 c 128,-1,27
 123 463 123 463 123 330 c 0,20,21
368 43 m 0,28,29
 481 43 481 43 547 120 c 128,-1,30
 613 197 613 197 613 330 c 128,-1,31
 613 463 613 463 547 540 c 1,32,-1
 225 86 l 1,33,34
 285 43 285 43 368 43 c 0,28,29
EndSplineSet
Substitution2: "'c2sc' Capitals to Small Capitals lookup 11 subtable" oslash.sc
Substitution2: "'aalt' Access All Alternates lookup 0 subtable" oslash.sc
EndChar

StartChar: Ugrave
Encoding: 217 217 155
Width: 706
GlyphClass: 2
Flags: W
LayerCount: 2
Fore
SplineSet
317 891 m 1,0,-1
 381 743 l 1,1,-1
 334 743 l 1,2,-1
 251 891 l 1,3,-1
 317 891 l 1,0,-1
608 660 m 1,4,-1
 608 242 l 2,5,6
 608 119 608 119 542 54.5 c 128,-1,7
 476 -10 476 -10 353 -10 c 128,-1,8
 230 -10 230 -10 163.5 54.5 c 128,-1,9
 97 119 97 119 97 242 c 2,10,-1
 97 660 l 1,11,-1
 154 660 l 1,12,-1
 154 255 l 2,13,14
 154 43 154 43 353 43 c 0,15,16
 551 43 551 43 551 255 c 2,17,-1
 551 660 l 1,18,-1
 608 660 l 1,4,-1
EndSplineSet
Substitution2: "'c2sc' Capitals to Small Capitals lookup 11 subtable" ugrave.sc
Substitution2: "'aalt' Access All Alternates lookup 0 subtable" ugrave.sc
EndChar

StartChar: Uacute
Encoding: 218 218 156
Width: 706
GlyphClass: 2
Flags: W
LayerCount: 2
Fore
SplineSet
389 891 m 1,0,-1
 455 891 l 1,1,-1
 372 743 l 1,2,-1
 325 743 l 1,3,-1
 389 891 l 1,0,-1
608 660 m 1,4,-1
 608 242 l 2,5,6
 608 119 608 119 542 54.5 c 128,-1,7
 476 -10 476 -10 353 -10 c 128,-1,8
 230 -10 230 -10 163.5 54.5 c 128,-1,9
 97 119 97 119 97 242 c 2,10,-1
 97 660 l 1,11,-1
 154 660 l 1,12,-1
 154 255 l 2,13,14
 154 43 154 43 353 43 c 0,15,16
 551 43 551 43 551 255 c 2,17,-1
 551 660 l 1,18,-1
 608 660 l 1,4,-1
EndSplineSet
Substitution2: "'c2sc' Capitals to Small Capitals lookup 11 subtable" uacute.sc
Substitution2: "'aalt' Access All Alternates lookup 0 subtable" uacute.sc
EndChar

StartChar: Ucircumflex
Encoding: 219 219 157
Width: 706
GlyphClass: 2
Flags: W
LayerCount: 2
Fore
SplineSet
498 738 m 1,0,-1
 445 738 l 1,1,-1
 353 858 l 1,2,-1
 261 738 l 1,3,-1
 208 738 l 1,4,-1
 321 896 l 1,5,-1
 385 896 l 1,6,-1
 498 738 l 1,0,-1
608 660 m 1,7,-1
 608 242 l 2,8,9
 608 119 608 119 542 54.5 c 128,-1,10
 476 -10 476 -10 353 -10 c 128,-1,11
 230 -10 230 -10 163.5 54.5 c 128,-1,12
 97 119 97 119 97 242 c 2,13,-1
 97 660 l 1,14,-1
 154 660 l 1,15,-1
 154 255 l 2,16,17
 154 43 154 43 353 43 c 0,18,19
 551 43 551 43 551 255 c 2,20,-1
 551 660 l 1,21,-1
 608 660 l 1,7,-1
EndSplineSet
Substitution2: "'c2sc' Capitals to Small Capitals lookup 11 subtable" ucircumflex.sc
Substitution2: "'aalt' Access All Alternates lookup 0 subtable" ucircumflex.sc
EndChar

StartChar: Udieresis
Encoding: 220 220 158
Width: 706
GlyphClass: 2
Flags: W
LayerCount: 2
Fore
SplineSet
258 837 m 128,-1,1
 278 837 278 837 290 824.5 c 128,-1,2
 302 812 302 812 302 792 c 128,-1,3
 302 772 302 772 290 760 c 128,-1,4
 278 748 278 748 258 748 c 128,-1,5
 238 748 238 748 225.5 760 c 128,-1,6
 213 772 213 772 213 792 c 128,-1,7
 213 812 213 812 225.5 824.5 c 128,-1,0
 238 837 238 837 258 837 c 128,-1,1
448 837 m 128,-1,9
 468 837 468 837 480.5 824.5 c 128,-1,10
 493 812 493 812 493 792 c 128,-1,11
 493 772 493 772 480.5 760 c 128,-1,12
 468 748 468 748 448 748 c 128,-1,13
 428 748 428 748 416 760 c 128,-1,14
 404 772 404 772 404 792 c 128,-1,15
 404 812 404 812 416 824.5 c 128,-1,8
 428 837 428 837 448 837 c 128,-1,9
608 660 m 1,16,-1
 608 242 l 2,17,18
 608 119 608 119 542 54.5 c 128,-1,19
 476 -10 476 -10 353 -10 c 128,-1,20
 230 -10 230 -10 163.5 54.5 c 128,-1,21
 97 119 97 119 97 242 c 2,22,-1
 97 660 l 1,23,-1
 154 660 l 1,24,-1
 154 255 l 2,25,26
 154 43 154 43 353 43 c 0,27,28
 551 43 551 43 551 255 c 2,29,-1
 551 660 l 1,30,-1
 608 660 l 1,16,-1
EndSplineSet
Substitution2: "'titl' Titling lookup 41 subtable" Udieresis.titl
Substitution2: "'c2sc' Capitals to Small Capitals lookup 11 subtable" udieresis.sc
AlternateSubs2: "'aalt' Access All Alternates lookup 1 subtable" udieresis.sc Udieresis.titl
EndChar

StartChar: Yacute
Encoding: 221 221 159
Width: 550
GlyphClass: 2
Flags: W
LayerCount: 2
Fore
SplineSet
312 891 m 1,0,-1
 378 891 l 1,1,-1
 295 743 l 1,2,-1
 248 743 l 1,3,-1
 312 891 l 1,0,-1
538 660 m 1,4,-1
 304 257 l 1,5,-1
 304 0 l 1,6,-1
 247 0 l 1,7,-1
 247 257 l 1,8,-1
 12 660 l 1,9,-1
 80 660 l 1,10,-1
 275 316 l 1,11,-1
 471 660 l 1,12,-1
 538 660 l 1,4,-1
EndSplineSet
Substitution2: "'c2sc' Capitals to Small Capitals lookup 11 subtable" yacute.sc
Substitution2: "'aalt' Access All Alternates lookup 0 subtable" yacute.sc
EndChar

StartChar: Thorn
Encoding: 222 222 160
Width: 605
GlyphClass: 2
Flags: W
LayerCount: 2
Fore
SplineSet
315 536 m 2,0,1
 435 536 435 536 495.5 485.5 c 128,-1,2
 556 435 556 435 556 338 c 128,-1,3
 556 241 556 241 495.5 190.5 c 128,-1,4
 435 140 435 140 315 140 c 2,5,-1
 162 140 l 1,6,-1
 162 0 l 1,7,-1
 105 0 l 1,8,-1
 105 660 l 1,9,-1
 162 660 l 1,10,-1
 162 536 l 1,11,-1
 315 536 l 2,0,1
324 193 m 2,12,13
 497 193 497 193 497 338 c 128,-1,14
 497 483 497 483 324 483 c 2,15,-1
 162 483 l 1,16,-1
 162 193 l 1,17,-1
 324 193 l 2,12,13
EndSplineSet
Substitution2: "'c2sc' Capitals to Small Capitals lookup 11 subtable" thorn.sc
Substitution2: "'aalt' Access All Alternates lookup 0 subtable" thorn.sc
EndChar

StartChar: germandbls
Encoding: 223 223 161
Width: 597
GlyphClass: 2
Flags: W
LayerCount: 2
Fore
SplineSet
355 386 m 1,0,1
 447 385 447 385 494 329 c 128,-1,2
 541 273 541 273 541 192 c 0,3,4
 541 106 541 106 485.5 48 c 128,-1,5
 430 -10 430 -10 332 -10 c 0,6,7
 262 -10 262 -10 227 27 c 1,8,-1
 245 72 l 1,9,10
 279 41 279 41 335 41 c 0,11,12
 405 41 405 41 445.5 84 c 128,-1,13
 486 127 486 127 486 197 c 0,14,15
 486 275 486 275 438 315 c 128,-1,16
 390 355 390 355 303 355 c 2,17,-1
 262 355 l 1,18,-1
 262 408 l 1,19,-1
 303 408 l 2,20,21
 372 408 372 408 413.5 447 c 128,-1,22
 455 486 455 486 455 551 c 0,23,24
 455 615 455 615 417 648.5 c 128,-1,25
 379 682 379 682 309 682 c 0,26,27
 223 682 223 682 185 633 c 128,-1,28
 147 584 147 584 147 485 c 2,29,-1
 147 0 l 1,30,-1
 90 0 l 1,31,-1
 90 504 l 2,32,33
 90 735 90 735 314 735 c 0,34,35
 412 735 412 735 463 682 c 128,-1,36
 514 629 514 629 514 553 c 0,37,38
 514 487 514 487 471.5 438 c 128,-1,39
 429 389 429 389 355 388 c 1,40,-1
 355 386 l 1,0,1
EndSplineSet
Substitution2: "Single Substitution lookup 57 subtable" germandbls.calt
Substitution2: "'smcp' Lowercase to Small Capitals lookup 12 subtable" germandbls.sc
AlternateSubs2: "'aalt' Access All Alternates lookup 1 subtable" germandbls.sc germandbls.calt
EndChar

StartChar: agrave
Encoding: 224 224 162
Width: 548
GlyphClass: 2
Flags: W
LayerCount: 2
Fore
SplineSet
295 583 m 1,0,-1
 248 583 l 1,1,-1
 153 743 l 1,2,-1
 215 743 l 1,3,-1
 295 583 l 1,0,-1
494 39 m 0,4,5
 516 39 516 39 533 45 c 1,6,-1
 530 0 l 1,7,8
 510 -10 510 -10 478 -10 c 0,9,10
 402 -10 402 -10 394 72 c 1,11,12
 371 34 371 34 322 12 c 128,-1,13
 273 -10 273 -10 218 -10 c 0,14,15
 144 -10 144 -10 98.5 23.5 c 128,-1,16
 53 57 53 57 53 118 c 0,17,18
 53 237 53 237 244 270 c 2,19,-1
 393 296 l 1,20,-1
 393 336 l 2,21,22
 393 394 393 394 358.5 427 c 128,-1,23
 324 460 324 460 261 460 c 0,24,25
 146 460 146 460 105 357 c 1,26,-1
 62 388 l 1,27,28
 83 446 83 446 135.5 478 c 128,-1,29
 188 510 188 510 261 510 c 0,30,31
 348 510 348 510 399 467.5 c 128,-1,32
 450 425 450 425 450 343 c 2,33,-1
 450 88 l 2,34,35
 450 39 450 39 494 39 c 0,4,5
222 40 m 0,36,37
 288 40 288 40 340.5 73 c 128,-1,38
 393 106 393 106 393 162 c 2,39,-1
 393 249 l 1,40,-1
 262 225 l 2,41,42
 112 198 112 198 112 118 c 0,43,44
 112 81 112 81 141 60.5 c 128,-1,45
 170 40 170 40 222 40 c 0,36,37
EndSplineSet
Substitution2: "'smcp' Lowercase to Small Capitals lookup 12 subtable" agrave.sc
Substitution2: "'aalt' Access All Alternates lookup 0 subtable" agrave.sc
EndChar

StartChar: aacute
Encoding: 225 225 163
Width: 548
GlyphClass: 2
Flags: W
LayerCount: 2
Fore
SplineSet
372 743 m 1,0,-1
 277 583 l 1,1,-1
 230 583 l 1,2,-1
 310 743 l 1,3,-1
 372 743 l 1,0,-1
494 39 m 0,4,5
 516 39 516 39 533 45 c 1,6,-1
 530 0 l 1,7,8
 510 -10 510 -10 478 -10 c 0,9,10
 402 -10 402 -10 394 72 c 1,11,12
 371 34 371 34 322 12 c 128,-1,13
 273 -10 273 -10 218 -10 c 0,14,15
 144 -10 144 -10 98.5 23.5 c 128,-1,16
 53 57 53 57 53 118 c 0,17,18
 53 237 53 237 244 270 c 2,19,-1
 393 296 l 1,20,-1
 393 336 l 2,21,22
 393 394 393 394 358.5 427 c 128,-1,23
 324 460 324 460 261 460 c 0,24,25
 146 460 146 460 105 357 c 1,26,-1
 62 388 l 1,27,28
 83 446 83 446 135.5 478 c 128,-1,29
 188 510 188 510 261 510 c 0,30,31
 348 510 348 510 399 467.5 c 128,-1,32
 450 425 450 425 450 343 c 2,33,-1
 450 88 l 2,34,35
 450 39 450 39 494 39 c 0,4,5
222 40 m 0,36,37
 288 40 288 40 340.5 73 c 128,-1,38
 393 106 393 106 393 162 c 2,39,-1
 393 249 l 1,40,-1
 262 225 l 2,41,42
 112 198 112 198 112 118 c 0,43,44
 112 81 112 81 141 60.5 c 128,-1,45
 170 40 170 40 222 40 c 0,36,37
EndSplineSet
Substitution2: "'smcp' Lowercase to Small Capitals lookup 12 subtable" aacute.sc
Substitution2: "'aalt' Access All Alternates lookup 0 subtable" aacute.sc
EndChar

StartChar: acircumflex
Encoding: 226 226 164
Width: 548
GlyphClass: 2
Flags: W
LayerCount: 2
Fore
SplineSet
264 696 m 1,0,-1
 174 579 l 1,1,-1
 121 579 l 1,2,-1
 231 737 l 1,3,-1
 297 737 l 1,4,-1
 407 579 l 1,5,-1
 354 579 l 1,6,-1
 264 696 l 1,0,-1
494 39 m 0,7,8
 516 39 516 39 533 45 c 1,9,-1
 530 0 l 1,10,11
 510 -10 510 -10 478 -10 c 0,12,13
 402 -10 402 -10 394 72 c 1,14,15
 371 34 371 34 322 12 c 128,-1,16
 273 -10 273 -10 218 -10 c 0,17,18
 144 -10 144 -10 98.5 23.5 c 128,-1,19
 53 57 53 57 53 118 c 0,20,21
 53 237 53 237 244 270 c 2,22,-1
 393 296 l 1,23,-1
 393 336 l 2,24,25
 393 394 393 394 358.5 427 c 128,-1,26
 324 460 324 460 261 460 c 0,27,28
 146 460 146 460 105 357 c 1,29,-1
 62 388 l 1,30,31
 83 446 83 446 135.5 478 c 128,-1,32
 188 510 188 510 261 510 c 0,33,34
 348 510 348 510 399 467.5 c 128,-1,35
 450 425 450 425 450 343 c 2,36,-1
 450 88 l 2,37,38
 450 39 450 39 494 39 c 0,7,8
222 40 m 0,39,40
 288 40 288 40 340.5 73 c 128,-1,41
 393 106 393 106 393 162 c 2,42,-1
 393 249 l 1,43,-1
 262 225 l 2,44,45
 112 198 112 198 112 118 c 0,46,47
 112 81 112 81 141 60.5 c 128,-1,48
 170 40 170 40 222 40 c 0,39,40
EndSplineSet
Substitution2: "'smcp' Lowercase to Small Capitals lookup 12 subtable" acircumflex.sc
Substitution2: "'aalt' Access All Alternates lookup 0 subtable" acircumflex.sc
EndChar

StartChar: atilde
Encoding: 227 227 165
Width: 548
GlyphClass: 2
Flags: W
LayerCount: 2
Fore
SplineSet
193 657 m 0,0,1
 168 657 168 657 156 640 c 128,-1,2
 144 623 144 623 137 588 c 1,3,-1
 91 588 l 1,4,5
 103 704 103 704 194 704 c 0,6,7
 226 704 226 704 250 687 c 128,-1,8
 274 670 274 670 293.5 652.5 c 128,-1,9
 313 635 313 635 334 635 c 0,10,11
 359 635 359 635 372 652.5 c 128,-1,12
 385 670 385 670 391 705 c 1,13,-1
 436 705 l 1,14,15
 424 589 424 589 334 589 c 0,16,17
 302 589 302 589 277.5 606 c 128,-1,18
 253 623 253 623 233.5 640 c 128,-1,19
 214 657 214 657 193 657 c 0,0,1
494 39 m 0,20,21
 516 39 516 39 533 45 c 1,22,-1
 530 0 l 1,23,24
 510 -10 510 -10 478 -10 c 0,25,26
 402 -10 402 -10 394 72 c 1,27,28
 371 34 371 34 322 12 c 128,-1,29
 273 -10 273 -10 218 -10 c 0,30,31
 144 -10 144 -10 98.5 23.5 c 128,-1,32
 53 57 53 57 53 118 c 0,33,34
 53 237 53 237 244 270 c 2,35,-1
 393 296 l 1,36,-1
 393 336 l 2,37,38
 393 394 393 394 358.5 427 c 128,-1,39
 324 460 324 460 261 460 c 0,40,41
 146 460 146 460 105 357 c 1,42,-1
 62 388 l 1,43,44
 83 446 83 446 135.5 478 c 128,-1,45
 188 510 188 510 261 510 c 0,46,47
 348 510 348 510 399 467.5 c 128,-1,48
 450 425 450 425 450 343 c 2,49,-1
 450 88 l 2,50,51
 450 39 450 39 494 39 c 0,20,21
222 40 m 0,52,53
 288 40 288 40 340.5 73 c 128,-1,54
 393 106 393 106 393 162 c 2,55,-1
 393 249 l 1,56,-1
 262 225 l 2,57,58
 112 198 112 198 112 118 c 0,59,60
 112 81 112 81 141 60.5 c 128,-1,61
 170 40 170 40 222 40 c 0,52,53
EndSplineSet
Substitution2: "'smcp' Lowercase to Small Capitals lookup 12 subtable" atilde.sc
Substitution2: "'aalt' Access All Alternates lookup 0 subtable" atilde.sc
EndChar

StartChar: adieresis
Encoding: 228 228 166
Width: 548
GlyphClass: 2
Flags: W
LayerCount: 2
Fore
SplineSet
169 588 m 0,0,1
 149 588 149 588 136.5 600 c 128,-1,2
 124 612 124 612 124 632 c 128,-1,3
 124 652 124 652 136.5 664.5 c 128,-1,4
 149 677 149 677 169 677 c 128,-1,5
 189 677 189 677 201 664.5 c 128,-1,6
 213 652 213 652 213 632 c 128,-1,7
 213 612 213 612 200.5 600 c 128,-1,8
 188 588 188 588 169 588 c 0,0,1
359 588 m 0,9,10
 340 588 340 588 327.5 600 c 128,-1,11
 315 612 315 612 315 632 c 128,-1,12
 315 652 315 652 327 664.5 c 128,-1,13
 339 677 339 677 359 677 c 128,-1,14
 379 677 379 677 391.5 664.5 c 128,-1,15
 404 652 404 652 404 632 c 128,-1,16
 404 612 404 612 391.5 600 c 128,-1,17
 379 588 379 588 359 588 c 0,9,10
494 39 m 0,18,19
 516 39 516 39 533 45 c 1,20,-1
 530 0 l 1,21,22
 510 -10 510 -10 478 -10 c 0,23,24
 402 -10 402 -10 394 72 c 1,25,26
 371 34 371 34 322 12 c 128,-1,27
 273 -10 273 -10 218 -10 c 0,28,29
 144 -10 144 -10 98.5 23.5 c 128,-1,30
 53 57 53 57 53 118 c 0,31,32
 53 237 53 237 244 270 c 2,33,-1
 393 296 l 1,34,-1
 393 336 l 2,35,36
 393 394 393 394 358.5 427 c 128,-1,37
 324 460 324 460 261 460 c 0,38,39
 146 460 146 460 105 357 c 1,40,-1
 62 388 l 1,41,42
 83 446 83 446 135.5 478 c 128,-1,43
 188 510 188 510 261 510 c 0,44,45
 348 510 348 510 399 467.5 c 128,-1,46
 450 425 450 425 450 343 c 2,47,-1
 450 88 l 2,48,49
 450 39 450 39 494 39 c 0,18,19
222 40 m 0,50,51
 288 40 288 40 340.5 73 c 128,-1,52
 393 106 393 106 393 162 c 2,53,-1
 393 249 l 1,54,-1
 262 225 l 2,55,56
 112 198 112 198 112 118 c 0,57,58
 112 81 112 81 141 60.5 c 128,-1,59
 170 40 170 40 222 40 c 0,50,51
EndSplineSet
Substitution2: "'smcp' Lowercase to Small Capitals lookup 12 subtable" adieresis.sc
Substitution2: "'aalt' Access All Alternates lookup 0 subtable" adieresis.sc
EndChar

StartChar: aring
Encoding: 229 229 167
Width: 548
GlyphClass: 2
Flags: W
LayerCount: 2
Fore
SplineSet
261 575 m 128,-1,1
 212 575 212 575 181.5 604 c 128,-1,2
 151 633 151 633 151 680 c 0,3,4
 151 726 151 726 181.5 755 c 128,-1,5
 212 784 212 784 261 784 c 128,-1,6
 310 784 310 784 340.5 755 c 128,-1,7
 371 726 371 726 371 680 c 0,8,9
 371 633 371 633 340.5 604 c 128,-1,0
 310 575 310 575 261 575 c 128,-1,1
261 748 m 0,10,11
 232 748 232 748 212 728.5 c 128,-1,12
 192 709 192 709 192 680 c 128,-1,13
 192 651 192 651 212 631.5 c 128,-1,14
 232 612 232 612 261 612 c 0,15,16
 291 612 291 612 311 631.5 c 128,-1,17
 331 651 331 651 331 680 c 128,-1,18
 331 709 331 709 311 728.5 c 128,-1,19
 291 748 291 748 261 748 c 0,10,11
494 39 m 0,20,21
 516 39 516 39 533 45 c 1,22,-1
 530 0 l 1,23,24
 510 -10 510 -10 478 -10 c 0,25,26
 402 -10 402 -10 394 72 c 1,27,28
 371 34 371 34 322 12 c 128,-1,29
 273 -10 273 -10 218 -10 c 0,30,31
 144 -10 144 -10 98.5 23.5 c 128,-1,32
 53 57 53 57 53 118 c 0,33,34
 53 237 53 237 244 270 c 2,35,-1
 393 296 l 1,36,-1
 393 336 l 2,37,38
 393 394 393 394 358.5 427 c 128,-1,39
 324 460 324 460 261 460 c 0,40,41
 146 460 146 460 105 357 c 1,42,-1
 62 388 l 1,43,44
 83 446 83 446 135.5 478 c 128,-1,45
 188 510 188 510 261 510 c 0,46,47
 348 510 348 510 399 467.5 c 128,-1,48
 450 425 450 425 450 343 c 2,49,-1
 450 88 l 2,50,51
 450 39 450 39 494 39 c 0,20,21
222 40 m 0,52,53
 288 40 288 40 340.5 73 c 128,-1,54
 393 106 393 106 393 162 c 2,55,-1
 393 249 l 1,56,-1
 262 225 l 2,57,58
 112 198 112 198 112 118 c 0,59,60
 112 81 112 81 141 60.5 c 128,-1,61
 170 40 170 40 222 40 c 0,52,53
EndSplineSet
Substitution2: "'smcp' Lowercase to Small Capitals lookup 12 subtable" aring.sc
Substitution2: "'aalt' Access All Alternates lookup 0 subtable" aring.sc
EndChar

StartChar: ae
Encoding: 230 230 168
Width: 878
GlyphClass: 2
Flags: W
LayerCount: 2
Fore
SplineSet
822 272 m 0,0,1
 822 253 822 253 820 233 c 1,2,-1
 449 233 l 1,3,4
 453 143 453 143 498.5 91.5 c 128,-1,5
 544 40 544 40 617 40 c 0,6,7
 730 40 730 40 765 128 c 1,8,-1
 813 103 l 1,9,10
 785 47 785 47 738.5 18.5 c 128,-1,11
 692 -10 692 -10 617 -10 c 0,12,13
 468 -10 468 -10 422 126 c 1,14,15
 404 59 404 59 346.5 24.5 c 128,-1,16
 289 -10 289 -10 214 -10 c 0,17,18
 141 -10 141 -10 97 24.5 c 128,-1,19
 53 59 53 59 53 118 c 128,-1,20
 53 177 53 177 99.5 216 c 128,-1,21
 146 255 146 255 238 266 c 2,22,-1
 397 284 l 1,23,-1
 397 335 l 2,24,25
 397 393 397 393 361.5 426.5 c 128,-1,26
 326 460 326 460 261 460 c 0,27,28
 147 460 147 460 105 357 c 1,29,-1
 62 388 l 1,30,31
 84 447 84 447 136.5 478.5 c 128,-1,32
 189 510 189 510 263 510 c 0,33,34
 327 510 327 510 371 481.5 c 128,-1,35
 415 453 415 453 434 398 c 1,36,37
 490 510 490 510 612 510 c 0,38,39
 715 510 715 510 768.5 446 c 128,-1,40
 822 382 822 382 822 272 c 0,0,1
612 460 m 0,41,42
 544 460 544 460 500.5 413.5 c 128,-1,43
 457 367 457 367 450 284 c 1,44,-1
 769 284 l 1,45,46
 758 460 758 460 612 460 c 0,41,42
224 40 m 0,47,48
 292 40 292 40 344.5 80 c 128,-1,49
 397 120 397 120 397 194 c 2,50,-1
 397 240 l 1,51,-1
 256 221 l 2,52,53
 112 202 112 202 112 118 c 0,54,55
 112 80 112 80 142 60 c 128,-1,56
 172 40 172 40 224 40 c 0,47,48
EndSplineSet
Substitution2: "'smcp' Lowercase to Small Capitals lookup 12 subtable" ae.sc
Substitution2: "'aalt' Access All Alternates lookup 0 subtable" ae.sc
EndChar

StartChar: ccedilla
Encoding: 231 231 169
Width: 550
GlyphClass: 2
Flags: W
LayerCount: 2
Fore
SplineSet
504 137 m 1,0,1
 485 76 485 76 439 37.5 c 128,-1,2
 393 -1 393 -1 327 -8 c 1,3,4
 389 -50 389 -50 389 -112 c 0,5,6
 389 -153 389 -153 360 -181.5 c 128,-1,7
 331 -210 331 -210 283 -210 c 0,8,9
 215 -210 215 -210 179 -173 c 1,10,-1
 201 -133 l 1,11,12
 229 -167 229 -167 276 -167 c 0,13,14
 303 -167 303 -167 321 -149.5 c 128,-1,15
 339 -132 339 -132 339 -105 c 0,16,17
 339 -76 339 -76 321.5 -54.5 c 128,-1,18
 304 -33 304 -33 256 -8 c 1,19,20
 162 4 162 4 110 72 c 128,-1,21
 58 140 58 140 58 250 c 0,22,23
 58 372 58 372 121 441 c 128,-1,24
 184 510 184 510 296 510 c 0,25,26
 371 510 371 510 423 475 c 128,-1,27
 475 440 475 440 499 376 c 1,28,-1
 445 350 l 1,29,30
 412 460 412 460 294 460 c 0,31,32
 210 460 210 460 162.5 404 c 128,-1,33
 115 348 115 348 115 250 c 128,-1,34
 115 152 115 152 162 96 c 128,-1,35
 209 40 209 40 293 40 c 0,36,37
 356 40 356 40 398.5 70.5 c 128,-1,38
 441 101 441 101 451 155 c 1,39,-1
 504 137 l 1,0,1
EndSplineSet
Substitution2: "'smcp' Lowercase to Small Capitals lookup 12 subtable" ccedilla.sc
Substitution2: "'aalt' Access All Alternates lookup 0 subtable" ccedilla.sc
EndChar

StartChar: egrave
Encoding: 232 232 170
Width: 564
GlyphClass: 2
Flags: W
AnchorPoint: "Anchor-0" 297 0 basechar 0
LayerCount: 2
Fore
SplineSet
318 583 m 1,0,-1
 271 583 l 1,1,-1
 176 743 l 1,2,-1
 238 743 l 1,3,-1
 318 583 l 1,0,-1
509 265 m 0,4,5
 509 247 509 247 507 227 c 1,6,-1
 115 227 l 1,7,8
 120 139 120 139 167.5 89.5 c 128,-1,9
 215 40 215 40 295 40 c 0,10,11
 353 40 353 40 394.5 63 c 128,-1,12
 436 86 436 86 454 128 c 1,13,-1
 501 103 l 1,14,15
 442 -10 442 -10 295 -10 c 0,16,17
 184 -10 184 -10 121 59 c 128,-1,18
 58 128 58 128 58 250 c 128,-1,19
 58 372 58 372 119 441 c 128,-1,20
 180 510 180 510 290 510 c 0,21,22
 393 510 393 510 451 442 c 128,-1,23
 509 374 509 374 509 265 c 0,4,5
290 460 m 0,24,25
 212 460 212 460 166.5 412.5 c 128,-1,26
 121 365 121 365 115 278 c 1,27,-1
 455 278 l 1,28,29
 449 364 449 364 406 412 c 128,-1,30
 363 460 363 460 290 460 c 0,24,25
EndSplineSet
Substitution2: "'smcp' Lowercase to Small Capitals lookup 12 subtable" egrave.sc
Substitution2: "'aalt' Access All Alternates lookup 0 subtable" egrave.sc
EndChar

StartChar: eacute
Encoding: 233 233 171
Width: 564
GlyphClass: 2
Flags: W
AnchorPoint: "Anchor-0" 297 0 basechar 0
LayerCount: 2
Fore
SplineSet
394 743 m 1,0,-1
 299 583 l 1,1,-1
 252 583 l 1,2,-1
 332 743 l 1,3,-1
 394 743 l 1,0,-1
509 265 m 0,4,5
 509 247 509 247 507 227 c 1,6,-1
 115 227 l 1,7,8
 120 139 120 139 167.5 89.5 c 128,-1,9
 215 40 215 40 295 40 c 0,10,11
 353 40 353 40 394.5 63 c 128,-1,12
 436 86 436 86 454 128 c 1,13,-1
 501 103 l 1,14,15
 442 -10 442 -10 295 -10 c 0,16,17
 184 -10 184 -10 121 59 c 128,-1,18
 58 128 58 128 58 250 c 128,-1,19
 58 372 58 372 119 441 c 128,-1,20
 180 510 180 510 290 510 c 0,21,22
 393 510 393 510 451 442 c 128,-1,23
 509 374 509 374 509 265 c 0,4,5
290 460 m 0,24,25
 212 460 212 460 166.5 412.5 c 128,-1,26
 121 365 121 365 115 278 c 1,27,-1
 455 278 l 1,28,29
 449 364 449 364 406 412 c 128,-1,30
 363 460 363 460 290 460 c 0,24,25
EndSplineSet
Substitution2: "'smcp' Lowercase to Small Capitals lookup 12 subtable" eacute.sc
Substitution2: "'aalt' Access All Alternates lookup 0 subtable" eacute.sc
EndChar

StartChar: ecircumflex
Encoding: 234 234 172
Width: 564
GlyphClass: 2
Flags: W
AnchorPoint: "Anchor-0" 297 0 basechar 0
LayerCount: 2
Fore
SplineSet
286 696 m 1,0,-1
 196 579 l 1,1,-1
 143 579 l 1,2,-1
 253 737 l 1,3,-1
 319 737 l 1,4,-1
 429 579 l 1,5,-1
 376 579 l 1,6,-1
 286 696 l 1,0,-1
509 265 m 0,7,8
 509 247 509 247 507 227 c 1,9,-1
 115 227 l 1,10,11
 120 139 120 139 167.5 89.5 c 128,-1,12
 215 40 215 40 295 40 c 0,13,14
 353 40 353 40 394.5 63 c 128,-1,15
 436 86 436 86 454 128 c 1,16,-1
 501 103 l 1,17,18
 442 -10 442 -10 295 -10 c 0,19,20
 184 -10 184 -10 121 59 c 128,-1,21
 58 128 58 128 58 250 c 128,-1,22
 58 372 58 372 119 441 c 128,-1,23
 180 510 180 510 290 510 c 0,24,25
 393 510 393 510 451 442 c 128,-1,26
 509 374 509 374 509 265 c 0,7,8
290 460 m 0,27,28
 212 460 212 460 166.5 412.5 c 128,-1,29
 121 365 121 365 115 278 c 1,30,-1
 455 278 l 1,31,32
 449 364 449 364 406 412 c 128,-1,33
 363 460 363 460 290 460 c 0,27,28
EndSplineSet
Substitution2: "'smcp' Lowercase to Small Capitals lookup 12 subtable" ecircumflex.sc
Substitution2: "'aalt' Access All Alternates lookup 0 subtable" ecircumflex.sc
EndChar

StartChar: edieresis
Encoding: 235 235 173
Width: 564
GlyphClass: 2
Flags: W
AnchorPoint: "Anchor-0" 297 0 basechar 0
LayerCount: 2
Fore
SplineSet
191 588 m 0,0,1
 171 588 171 588 158.5 600 c 128,-1,2
 146 612 146 612 146 632 c 128,-1,3
 146 652 146 652 158.5 664.5 c 128,-1,4
 171 677 171 677 191 677 c 128,-1,5
 211 677 211 677 223 664.5 c 128,-1,6
 235 652 235 652 235 632 c 128,-1,7
 235 612 235 612 222.5 600 c 128,-1,8
 210 588 210 588 191 588 c 0,0,1
381 588 m 0,9,10
 362 588 362 588 349.5 600 c 128,-1,11
 337 612 337 612 337 632 c 128,-1,12
 337 652 337 652 349 664.5 c 128,-1,13
 361 677 361 677 381 677 c 128,-1,14
 401 677 401 677 413.5 664.5 c 128,-1,15
 426 652 426 652 426 632 c 128,-1,16
 426 612 426 612 413.5 600 c 128,-1,17
 401 588 401 588 381 588 c 0,9,10
509 265 m 0,18,19
 509 247 509 247 507 227 c 1,20,-1
 115 227 l 1,21,22
 120 139 120 139 167.5 89.5 c 128,-1,23
 215 40 215 40 295 40 c 0,24,25
 353 40 353 40 394.5 63 c 128,-1,26
 436 86 436 86 454 128 c 1,27,-1
 501 103 l 1,28,29
 442 -10 442 -10 295 -10 c 0,30,31
 184 -10 184 -10 121 59 c 128,-1,32
 58 128 58 128 58 250 c 128,-1,33
 58 372 58 372 119 441 c 128,-1,34
 180 510 180 510 290 510 c 0,35,36
 393 510 393 510 451 442 c 128,-1,37
 509 374 509 374 509 265 c 0,18,19
290 460 m 0,38,39
 212 460 212 460 166.5 412.5 c 128,-1,40
 121 365 121 365 115 278 c 1,41,-1
 455 278 l 1,42,43
 449 364 449 364 406 412 c 128,-1,44
 363 460 363 460 290 460 c 0,38,39
EndSplineSet
Substitution2: "'smcp' Lowercase to Small Capitals lookup 12 subtable" edieresis.sc
Substitution2: "'aalt' Access All Alternates lookup 0 subtable" edieresis.sc
EndChar

StartChar: igrave
Encoding: 236 236 174
Width: 237
GlyphClass: 2
Flags: W
LayerCount: 2
Fore
SplineSet
70 743 m 1,0,-1
 150 583 l 1,1,-1
 103 583 l 1,2,-1
 8 743 l 1,3,-1
 70 743 l 1,0,-1
147 500 m 1,4,-1
 147 0 l 1,5,-1
 90 0 l 1,6,-1
 90 500 l 1,7,-1
 147 500 l 1,4,-1
EndSplineSet
Substitution2: "'smcp' Lowercase to Small Capitals lookup 12 subtable" igrave.sc
Substitution2: "'aalt' Access All Alternates lookup 0 subtable" igrave.sc
EndChar

StartChar: iacute
Encoding: 237 237 175
Width: 237
GlyphClass: 2
Flags: W
LayerCount: 2
Fore
SplineSet
164 743 m 1,0,-1
 226 743 l 1,1,-1
 131 583 l 1,2,-1
 84 583 l 1,3,-1
 164 743 l 1,0,-1
147 500 m 1,4,-1
 147 0 l 1,5,-1
 90 0 l 1,6,-1
 90 500 l 1,7,-1
 147 500 l 1,4,-1
EndSplineSet
Substitution2: "'smcp' Lowercase to Small Capitals lookup 12 subtable" iacute.sc
Substitution2: "'aalt' Access All Alternates lookup 0 subtable" iacute.sc
EndChar

StartChar: icircumflex
Encoding: 238 238 176
Width: 237
GlyphClass: 2
Flags: W
LayerCount: 2
Fore
SplineSet
262 579 m 1,0,-1
 209 579 l 1,1,-1
 119 696 l 1,2,-1
 29 579 l 1,3,-1
 -24 579 l 1,4,-1
 86 737 l 1,5,-1
 152 737 l 1,6,-1
 262 579 l 1,0,-1
147 500 m 1,7,-1
 147 0 l 1,8,-1
 90 0 l 1,9,-1
 90 500 l 1,10,-1
 147 500 l 1,7,-1
EndSplineSet
Substitution2: "'smcp' Lowercase to Small Capitals lookup 12 subtable" icircumflex.sc
Substitution2: "'aalt' Access All Alternates lookup 0 subtable" icircumflex.sc
EndChar

StartChar: idieresis
Encoding: 239 239 177
Width: 237
GlyphClass: 2
Flags: W
LayerCount: 2
Fore
SplineSet
49 588 m 0,0,1
 30 588 30 588 17.5 600 c 128,-1,2
 5 612 5 612 5 632 c 128,-1,3
 5 652 5 652 17 664.5 c 128,-1,4
 29 677 29 677 49 677 c 0,5,6
 70 677 70 677 82 664.5 c 128,-1,7
 94 652 94 652 94 632 c 128,-1,8
 94 612 94 612 82 600 c 128,-1,9
 70 588 70 588 49 588 c 0,0,1
188 588 m 128,-1,11
 168 588 168 588 155.5 600 c 128,-1,12
 143 612 143 612 143 632 c 128,-1,13
 143 652 143 652 155.5 664.5 c 128,-1,14
 168 677 168 677 188 677 c 128,-1,15
 208 677 208 677 220 664.5 c 128,-1,16
 232 652 232 652 232 632 c 128,-1,17
 232 612 232 612 220 600 c 128,-1,10
 208 588 208 588 188 588 c 128,-1,11
147 500 m 1,18,-1
 147 0 l 1,19,-1
 90 0 l 1,20,-1
 90 500 l 1,21,-1
 147 500 l 1,18,-1
EndSplineSet
Substitution2: "'smcp' Lowercase to Small Capitals lookup 12 subtable" idieresis.sc
Substitution2: "'aalt' Access All Alternates lookup 0 subtable" idieresis.sc
EndChar

StartChar: eth
Encoding: 240 240 178
Width: 605
GlyphClass: 2
Flags: W
LayerCount: 2
Fore
SplineSet
540 632 m 1,0,-1
 440 611 l 1,1,2
 533 487 533 487 533 286 c 0,3,4
 533 147 533 147 472 68.5 c 128,-1,5
 411 -10 411 -10 294 -10 c 0,6,7
 185 -10 185 -10 121.5 56.5 c 128,-1,8
 58 123 58 123 58 238 c 0,9,10
 58 351 58 351 122.5 418 c 128,-1,11
 187 485 187 485 290 485 c 0,12,13
 422 485 422 485 477 391 c 1,14,15
 456 518 456 518 390 599 c 1,16,-1
 209 555 l 1,17,-1
 201 591 l 1,18,-1
 366 627 l 1,19,20
 310 684 310 684 217 730 c 1,21,-1
 299 730 l 1,22,23
 369 691 369 691 417 639 c 1,24,-1
 529 668 l 1,25,-1
 540 632 l 1,0,-1
297 40 m 128,-1,27
 380 40 380 40 428.5 97 c 128,-1,28
 477 154 477 154 479 245 c 0,29,30
 479 329 479 329 430.5 382 c 128,-1,31
 382 435 382 435 297 435 c 0,32,33
 214 435 214 435 165.5 382 c 128,-1,34
 117 329 117 329 117 238 c 0,35,36
 117 146 117 146 165.5 93 c 128,-1,26
 214 40 214 40 297 40 c 128,-1,27
EndSplineSet
Substitution2: "'smcp' Lowercase to Small Capitals lookup 12 subtable" eth.sc
Substitution2: "'aalt' Access All Alternates lookup 0 subtable" eth.sc
EndChar

StartChar: ntilde
Encoding: 241 241 179
Width: 603
GlyphClass: 2
Flags: W
AnchorPoint: "Anchor-0" 335 0 basechar 0
LayerCount: 2
Fore
SplineSet
238 657 m 0,0,1
 213 657 213 657 201 640 c 128,-1,2
 189 623 189 623 182 588 c 1,3,-1
 136 588 l 1,4,5
 148 704 148 704 239 704 c 0,6,7
 279 704 279 704 317.5 669.5 c 128,-1,8
 356 635 356 635 379 635 c 0,9,10
 404 635 404 635 417 652.5 c 128,-1,11
 430 670 430 670 436 705 c 1,12,-1
 481 705 l 1,13,14
 469 589 469 589 379 589 c 0,15,16
 347 589 347 589 322.5 606 c 128,-1,17
 298 623 298 623 278.5 640 c 128,-1,18
 259 657 259 657 238 657 c 0,0,1
326 510 m 0,19,20
 412 510 412 510 465 461.5 c 128,-1,21
 518 413 518 413 518 323 c 2,22,-1
 518 0 l 1,23,-1
 461 0 l 1,24,-1
 461 305 l 2,25,26
 461 383 461 383 423 421.5 c 128,-1,27
 385 460 385 460 320 460 c 0,28,29
 249 460 249 460 198 412 c 128,-1,30
 147 364 147 364 147 279 c 2,31,-1
 147 0 l 1,32,-1
 90 0 l 1,33,-1
 90 500 l 1,34,-1
 141 500 l 1,35,-1
 144 405 l 1,36,37
 168 456 168 456 216.5 483 c 128,-1,38
 265 510 265 510 326 510 c 0,19,20
EndSplineSet
Substitution2: "Single Substitution lookup 57 subtable" ntilde.swsh
Substitution2: "'swsh' Swash lookup 38 subtable" ntilde.swsh
Substitution2: "'smcp' Lowercase to Small Capitals lookup 12 subtable" ntilde.sc
AlternateSubs2: "'aalt' Access All Alternates lookup 1 subtable" ntilde.sc ntilde.swsh
EndChar

StartChar: ograve
Encoding: 242 242 180
Width: 594
GlyphClass: 2
Flags: W
LayerCount: 2
Fore
SplineSet
248 743 m 1,0,-1
 328 583 l 1,1,-1
 281 583 l 1,2,-1
 186 743 l 1,3,-1
 248 743 l 1,0,-1
297 510 m 128,-1,5
 409 510 409 510 472.5 441 c 128,-1,6
 536 372 536 372 536 250 c 128,-1,7
 536 128 536 128 472.5 59 c 128,-1,8
 409 -10 409 -10 297 -10 c 128,-1,9
 185 -10 185 -10 121.5 59 c 128,-1,10
 58 128 58 128 58 250 c 128,-1,11
 58 372 58 372 121.5 441 c 128,-1,4
 185 510 185 510 297 510 c 128,-1,5
297 461 m 128,-1,13
 212 461 212 461 163.5 404.5 c 128,-1,14
 115 348 115 348 115 250 c 128,-1,15
 115 152 115 152 163.5 95.5 c 128,-1,16
 212 39 212 39 297 39 c 128,-1,17
 382 39 382 39 430.5 95.5 c 128,-1,18
 479 152 479 152 479 250 c 128,-1,19
 479 348 479 348 430.5 404.5 c 128,-1,12
 382 461 382 461 297 461 c 128,-1,13
EndSplineSet
Substitution2: "'smcp' Lowercase to Small Capitals lookup 12 subtable" ograve.sc
Substitution2: "'aalt' Access All Alternates lookup 0 subtable" ograve.sc
EndChar

StartChar: oacute
Encoding: 243 243 181
Width: 594
GlyphClass: 2
Flags: W
LayerCount: 2
Fore
SplineSet
343 743 m 1,0,-1
 405 743 l 1,1,-1
 310 583 l 1,2,-1
 263 583 l 1,3,-1
 343 743 l 1,0,-1
297 510 m 128,-1,5
 409 510 409 510 472.5 441 c 128,-1,6
 536 372 536 372 536 250 c 128,-1,7
 536 128 536 128 472.5 59 c 128,-1,8
 409 -10 409 -10 297 -10 c 128,-1,9
 185 -10 185 -10 121.5 59 c 128,-1,10
 58 128 58 128 58 250 c 128,-1,11
 58 372 58 372 121.5 441 c 128,-1,4
 185 510 185 510 297 510 c 128,-1,5
297 461 m 128,-1,13
 212 461 212 461 163.5 404.5 c 128,-1,14
 115 348 115 348 115 250 c 128,-1,15
 115 152 115 152 163.5 95.5 c 128,-1,16
 212 39 212 39 297 39 c 128,-1,17
 382 39 382 39 430.5 95.5 c 128,-1,18
 479 152 479 152 479 250 c 128,-1,19
 479 348 479 348 430.5 404.5 c 128,-1,12
 382 461 382 461 297 461 c 128,-1,13
EndSplineSet
Substitution2: "'smcp' Lowercase to Small Capitals lookup 12 subtable" oacute.sc
Substitution2: "'aalt' Access All Alternates lookup 0 subtable" oacute.sc
EndChar

StartChar: ocircumflex
Encoding: 244 244 182
Width: 594
GlyphClass: 2
Flags: W
LayerCount: 2
Fore
SplineSet
440 579 m 1,0,-1
 387 579 l 1,1,-1
 297 696 l 1,2,-1
 207 579 l 1,3,-1
 154 579 l 1,4,-1
 264 737 l 1,5,-1
 330 737 l 1,6,-1
 440 579 l 1,0,-1
297 510 m 128,-1,8
 409 510 409 510 472.5 441 c 128,-1,9
 536 372 536 372 536 250 c 128,-1,10
 536 128 536 128 472.5 59 c 128,-1,11
 409 -10 409 -10 297 -10 c 128,-1,12
 185 -10 185 -10 121.5 59 c 128,-1,13
 58 128 58 128 58 250 c 128,-1,14
 58 372 58 372 121.5 441 c 128,-1,7
 185 510 185 510 297 510 c 128,-1,8
297 461 m 128,-1,16
 212 461 212 461 163.5 404.5 c 128,-1,17
 115 348 115 348 115 250 c 128,-1,18
 115 152 115 152 163.5 95.5 c 128,-1,19
 212 39 212 39 297 39 c 128,-1,20
 382 39 382 39 430.5 95.5 c 128,-1,21
 479 152 479 152 479 250 c 128,-1,22
 479 348 479 348 430.5 404.5 c 128,-1,15
 382 461 382 461 297 461 c 128,-1,16
EndSplineSet
Substitution2: "'smcp' Lowercase to Small Capitals lookup 12 subtable" ocircumflex.sc
Substitution2: "'aalt' Access All Alternates lookup 0 subtable" ocircumflex.sc
EndChar

StartChar: otilde
Encoding: 245 245 183
Width: 594
GlyphClass: 2
Flags: W
LayerCount: 2
Fore
SplineSet
469 705 m 1,0,1
 457 589 457 589 367 589 c 0,2,3
 335 589 335 589 310.5 606 c 128,-1,4
 286 623 286 623 266.5 640 c 128,-1,5
 247 657 247 657 226 657 c 0,6,7
 201 657 201 657 189 640 c 128,-1,8
 177 623 177 623 170 588 c 1,9,-1
 124 588 l 1,10,11
 136 704 136 704 227 704 c 0,12,13
 259 704 259 704 283 687 c 128,-1,14
 307 670 307 670 326.5 652.5 c 128,-1,15
 346 635 346 635 367 635 c 0,16,17
 392 635 392 635 405 652.5 c 128,-1,18
 418 670 418 670 424 705 c 1,19,-1
 469 705 l 1,0,1
297 510 m 128,-1,21
 409 510 409 510 472.5 441 c 128,-1,22
 536 372 536 372 536 250 c 128,-1,23
 536 128 536 128 472.5 59 c 128,-1,24
 409 -10 409 -10 297 -10 c 128,-1,25
 185 -10 185 -10 121.5 59 c 128,-1,26
 58 128 58 128 58 250 c 128,-1,27
 58 372 58 372 121.5 441 c 128,-1,20
 185 510 185 510 297 510 c 128,-1,21
297 461 m 128,-1,29
 212 461 212 461 163.5 404.5 c 128,-1,30
 115 348 115 348 115 250 c 128,-1,31
 115 152 115 152 163.5 95.5 c 128,-1,32
 212 39 212 39 297 39 c 128,-1,33
 382 39 382 39 430.5 95.5 c 128,-1,34
 479 152 479 152 479 250 c 128,-1,35
 479 348 479 348 430.5 404.5 c 128,-1,28
 382 461 382 461 297 461 c 128,-1,29
EndSplineSet
Substitution2: "'smcp' Lowercase to Small Capitals lookup 12 subtable" otilde.sc
Substitution2: "'aalt' Access All Alternates lookup 0 subtable" otilde.sc
EndChar

StartChar: odieresis
Encoding: 246 246 184
Width: 594
GlyphClass: 2
Flags: W
LayerCount: 2
Fore
SplineSet
202 677 m 128,-1,1
 222 677 222 677 234 664.5 c 128,-1,2
 246 652 246 652 246 632 c 128,-1,3
 246 612 246 612 234 600 c 128,-1,4
 222 588 222 588 202 588 c 128,-1,5
 182 588 182 588 169.5 600 c 128,-1,6
 157 612 157 612 157 632 c 128,-1,7
 157 652 157 652 169.5 664.5 c 128,-1,0
 182 677 182 677 202 677 c 128,-1,1
392 677 m 128,-1,9
 412 677 412 677 424.5 664.5 c 128,-1,10
 437 652 437 652 437 632 c 128,-1,11
 437 612 437 612 424.5 600 c 128,-1,12
 412 588 412 588 392 588 c 128,-1,13
 372 588 372 588 360 600 c 128,-1,14
 348 612 348 612 348 632 c 128,-1,15
 348 652 348 652 360 664.5 c 128,-1,8
 372 677 372 677 392 677 c 128,-1,9
297 510 m 128,-1,17
 409 510 409 510 472.5 441 c 128,-1,18
 536 372 536 372 536 250 c 128,-1,19
 536 128 536 128 472.5 59 c 128,-1,20
 409 -10 409 -10 297 -10 c 128,-1,21
 185 -10 185 -10 121.5 59 c 128,-1,22
 58 128 58 128 58 250 c 128,-1,23
 58 372 58 372 121.5 441 c 128,-1,16
 185 510 185 510 297 510 c 128,-1,17
297 461 m 128,-1,25
 212 461 212 461 163.5 404.5 c 128,-1,26
 115 348 115 348 115 250 c 128,-1,27
 115 152 115 152 163.5 95.5 c 128,-1,28
 212 39 212 39 297 39 c 128,-1,29
 382 39 382 39 430.5 95.5 c 128,-1,30
 479 152 479 152 479 250 c 128,-1,31
 479 348 479 348 430.5 404.5 c 128,-1,24
 382 461 382 461 297 461 c 128,-1,25
EndSplineSet
Substitution2: "'smcp' Lowercase to Small Capitals lookup 12 subtable" odieresis.sc
Substitution2: "'aalt' Access All Alternates lookup 0 subtable" odieresis.sc
EndChar

StartChar: divide
Encoding: 247 247 185
Width: 604
GlyphClass: 2
Flags: W
LayerCount: 2
Fore
SplineSet
302 557 m 128,-1,1
 324 557 324 557 338 543.5 c 128,-1,2
 352 530 352 530 352 508 c 128,-1,3
 352 486 352 486 338 472 c 128,-1,4
 324 458 324 458 302 458 c 128,-1,5
 280 458 280 458 266 472 c 128,-1,6
 252 486 252 486 252 508 c 128,-1,7
 252 530 252 530 266 543.5 c 128,-1,0
 280 557 280 557 302 557 c 128,-1,1
539 343 m 1,8,-1
 539 290 l 1,9,-1
 65 290 l 1,10,-1
 65 343 l 1,11,-1
 539 343 l 1,8,-1
302 174 m 128,-1,13
 324 174 324 174 338 160 c 128,-1,14
 352 146 352 146 352 124 c 128,-1,15
 352 102 352 102 338 88.5 c 128,-1,16
 324 75 324 75 302 75 c 128,-1,17
 280 75 280 75 266 88.5 c 128,-1,18
 252 102 252 102 252 124 c 128,-1,19
 252 146 252 146 266 160 c 128,-1,12
 280 174 280 174 302 174 c 128,-1,13
EndSplineSet
EndChar

StartChar: oslash
Encoding: 248 248 186
Width: 595
GlyphClass: 2
Flags: W
LayerCount: 2
Fore
SplineSet
297 510 m 0,0,1
 385 510 385 510 443 466 c 1,2,-1
 489 526 l 1,3,-1
 540 526 l 1,4,-1
 473 440 l 1,5,6
 536 371 536 371 536 250 c 0,7,8
 536 128 536 128 472.5 59 c 128,-1,9
 409 -10 409 -10 297 -10 c 0,10,11
 216 -10 216 -10 158 29 c 1,12,-1
 109 -34 l 1,13,-1
 59 -34 l 1,14,-1
 126 54 l 1,15,16
 58 124 58 124 58 250 c 0,17,18
 58 372 58 372 121.5 441 c 128,-1,19
 185 510 185 510 297 510 c 0,0,1
161 99 m 1,20,-1
 162 99 l 1,21,-1
 194 142 l 1,22,-1
 411 424 l 1,23,24
 365 461 365 461 297 461 c 0,25,26
 212 461 212 461 163.5 404.5 c 128,-1,27
 115 348 115 348 115 250 c 0,28,29
 115 154 115 154 161 99 c 1,20,-1
297 39 m 0,30,31
 382 39 382 39 430.5 95.5 c 128,-1,32
 479 152 479 152 479 250 c 0,33,34
 479 339 479 339 438 394 c 1,35,-1
 437 394 l 1,36,-1
 410 357 l 1,37,-1
 191 72 l 1,38,39
 232 39 232 39 297 39 c 0,30,31
EndSplineSet
Substitution2: "'smcp' Lowercase to Small Capitals lookup 12 subtable" oslash.sc
Substitution2: "'aalt' Access All Alternates lookup 0 subtable" oslash.sc
EndChar

StartChar: ugrave
Encoding: 249 249 187
Width: 599
GlyphClass: 2
Flags: W
LayerCount: 2
Fore
SplineSet
329 583 m 1,0,-1
 282 583 l 1,1,-1
 187 743 l 1,2,-1
 249 743 l 1,3,-1
 329 583 l 1,0,-1
452 500 m 1,4,-1
 509 500 l 1,5,-1
 509 0 l 1,6,-1
 459 0 l 1,7,-1
 455 93 l 1,8,9
 405 -10 405 -10 266 -10 c 0,10,11
 184 -10 184 -10 134.5 35.5 c 128,-1,12
 85 81 85 81 85 171 c 2,13,-1
 85 500 l 1,14,-1
 142 500 l 1,15,-1
 142 185 l 2,16,17
 142 40 142 40 276 40 c 0,18,19
 355 40 355 40 403.5 89.5 c 128,-1,20
 452 139 452 139 452 217 c 2,21,-1
 452 500 l 1,4,-1
EndSplineSet
Substitution2: "'smcp' Lowercase to Small Capitals lookup 12 subtable" ugrave.sc
Substitution2: "'aalt' Access All Alternates lookup 0 subtable" ugrave.sc
EndChar

StartChar: uacute
Encoding: 250 250 188
Width: 599
GlyphClass: 2
Flags: W
LayerCount: 2
Fore
SplineSet
406 743 m 1,0,-1
 311 583 l 1,1,-1
 264 583 l 1,2,-1
 344 743 l 1,3,-1
 406 743 l 1,0,-1
452 500 m 1,4,-1
 509 500 l 1,5,-1
 509 0 l 1,6,-1
 459 0 l 1,7,-1
 455 93 l 1,8,9
 405 -10 405 -10 266 -10 c 0,10,11
 184 -10 184 -10 134.5 35.5 c 128,-1,12
 85 81 85 81 85 171 c 2,13,-1
 85 500 l 1,14,-1
 142 500 l 1,15,-1
 142 185 l 2,16,17
 142 40 142 40 276 40 c 0,18,19
 355 40 355 40 403.5 89.5 c 128,-1,20
 452 139 452 139 452 217 c 2,21,-1
 452 500 l 1,4,-1
EndSplineSet
Substitution2: "'smcp' Lowercase to Small Capitals lookup 12 subtable" uacute.sc
Substitution2: "'aalt' Access All Alternates lookup 0 subtable" uacute.sc
EndChar

StartChar: ucircumflex
Encoding: 251 251 189
Width: 599
GlyphClass: 2
Flags: W
LayerCount: 2
Fore
SplineSet
298 696 m 1,0,-1
 208 579 l 1,1,-1
 155 579 l 1,2,-1
 265 737 l 1,3,-1
 331 737 l 1,4,-1
 441 579 l 1,5,-1
 388 579 l 1,6,-1
 298 696 l 1,0,-1
452 500 m 1,7,-1
 509 500 l 1,8,-1
 509 0 l 1,9,-1
 459 0 l 1,10,-1
 455 93 l 1,11,12
 405 -10 405 -10 266 -10 c 0,13,14
 184 -10 184 -10 134.5 35.5 c 128,-1,15
 85 81 85 81 85 171 c 2,16,-1
 85 500 l 1,17,-1
 142 500 l 1,18,-1
 142 185 l 2,19,20
 142 40 142 40 276 40 c 0,21,22
 355 40 355 40 403.5 89.5 c 128,-1,23
 452 139 452 139 452 217 c 2,24,-1
 452 500 l 1,7,-1
EndSplineSet
Substitution2: "'smcp' Lowercase to Small Capitals lookup 12 subtable" ucircumflex.sc
Substitution2: "'aalt' Access All Alternates lookup 0 subtable" ucircumflex.sc
EndChar

StartChar: udieresis
Encoding: 252 252 190
Width: 599
GlyphClass: 2
Flags: W
LayerCount: 2
Fore
SplineSet
203 588 m 0,0,1
 183 588 183 588 170.5 600 c 128,-1,2
 158 612 158 612 158 632 c 128,-1,3
 158 652 158 652 170.5 664.5 c 128,-1,4
 183 677 183 677 203 677 c 128,-1,5
 223 677 223 677 235 664.5 c 128,-1,6
 247 652 247 652 247 632 c 128,-1,7
 247 612 247 612 234.5 600 c 128,-1,8
 222 588 222 588 203 588 c 0,0,1
393 588 m 0,9,10
 374 588 374 588 361.5 600 c 128,-1,11
 349 612 349 612 349 632 c 128,-1,12
 349 652 349 652 361 664.5 c 128,-1,13
 373 677 373 677 393 677 c 128,-1,14
 413 677 413 677 425.5 664.5 c 128,-1,15
 438 652 438 652 438 632 c 128,-1,16
 438 612 438 612 425.5 600 c 128,-1,17
 413 588 413 588 393 588 c 0,9,10
452 500 m 1,18,-1
 509 500 l 1,19,-1
 509 0 l 1,20,-1
 459 0 l 1,21,-1
 455 93 l 1,22,23
 405 -10 405 -10 266 -10 c 0,24,25
 184 -10 184 -10 134.5 35.5 c 128,-1,26
 85 81 85 81 85 171 c 2,27,-1
 85 500 l 1,28,-1
 142 500 l 1,29,-1
 142 185 l 2,30,31
 142 40 142 40 276 40 c 0,32,33
 355 40 355 40 403.5 89.5 c 128,-1,34
 452 139 452 139 452 217 c 2,35,-1
 452 500 l 1,18,-1
EndSplineSet
Substitution2: "'smcp' Lowercase to Small Capitals lookup 12 subtable" udieresis.sc
Substitution2: "'aalt' Access All Alternates lookup 0 subtable" udieresis.sc
EndChar

StartChar: yacute
Encoding: 253 253 191
Width: 516
GlyphClass: 2
Flags: W
LayerCount: 2
Fore
SplineSet
308 743 m 1,0,-1
 370 743 l 1,1,-1
 275 583 l 1,2,-1
 228 583 l 1,3,-1
 308 743 l 1,0,-1
497 500 m 1,4,-1
 257 -90 l 2,5,6
 229 -159 229 -159 194.5 -187 c 128,-1,7
 160 -215 160 -215 107 -215 c 0,8,9
 42 -215 42 -215 8 -177 c 1,10,-1
 29 -128 l 1,11,12
 55 -165 55 -165 106 -165 c 0,13,14
 140 -165 140 -165 164 -145.5 c 128,-1,15
 188 -126 188 -126 208 -76 c 2,16,-1
 239 0 l 1,17,-1
 28 500 l 1,18,-1
 93 500 l 1,19,-1
 240 133 l 1,20,-1
 266 61 l 1,21,-1
 295 140 l 1,22,-1
 435 500 l 1,23,-1
 497 500 l 1,4,-1
EndSplineSet
Substitution2: "Single Substitution lookup 57 subtable" yacute.swsh
Substitution2: "'swsh' Swash lookup 38 subtable" yacute.swsh
Substitution2: "'smcp' Lowercase to Small Capitals lookup 12 subtable" yacute.sc
AlternateSubs2: "'aalt' Access All Alternates lookup 1 subtable" yacute.sc yacute.swsh
EndChar

StartChar: thorn
Encoding: 254 254 192
Width: 614
GlyphClass: 2
Flags: W
LayerCount: 2
Fore
SplineSet
327 510 m 0,0,1
 433 510 433 510 494 441 c 128,-1,2
 555 372 555 372 555 250 c 128,-1,3
 555 128 555 128 494 59 c 128,-1,4
 433 -10 433 -10 327 -10 c 0,5,6
 265 -10 265 -10 218 17 c 128,-1,7
 171 44 171 44 147 91 c 1,8,-1
 147 -210 l 1,9,-1
 90 -210 l 1,10,-1
 90 730 l 1,11,-1
 147 730 l 1,12,-1
 147 409 l 1,13,14
 171 456 171 456 218 483 c 128,-1,15
 265 510 265 510 327 510 c 0,0,1
320 40 m 0,16,17
 404 40 404 40 451 96 c 128,-1,18
 498 152 498 152 498 250 c 128,-1,19
 498 348 498 348 451 404 c 128,-1,20
 404 460 404 460 320 460 c 0,21,22
 241 460 241 460 194 405 c 128,-1,23
 147 350 147 350 147 255 c 2,24,-1
 147 245 l 2,25,26
 147 150 147 150 194 95 c 128,-1,27
 241 40 241 40 320 40 c 0,16,17
EndSplineSet
Substitution2: "'smcp' Lowercase to Small Capitals lookup 12 subtable" thorn.sc
Substitution2: "'aalt' Access All Alternates lookup 0 subtable" thorn.sc
EndChar

StartChar: ydieresis
Encoding: 255 255 193
Width: 516
GlyphClass: 2
Flags: W
LayerCount: 2
Fore
SplineSet
167 677 m 128,-1,1
 187 677 187 677 199 664.5 c 128,-1,2
 211 652 211 652 211 632 c 128,-1,3
 211 612 211 612 198.5 600 c 128,-1,4
 186 588 186 588 167 588 c 0,5,6
 147 588 147 588 134.5 600 c 128,-1,7
 122 612 122 612 122 632 c 128,-1,8
 122 652 122 652 134.5 664.5 c 128,-1,0
 147 677 147 677 167 677 c 128,-1,1
357 677 m 128,-1,10
 377 677 377 677 389.5 664.5 c 128,-1,11
 402 652 402 652 402 632 c 128,-1,12
 402 612 402 612 389.5 600 c 128,-1,13
 377 588 377 588 357 588 c 0,14,15
 338 588 338 588 325.5 600 c 128,-1,16
 313 612 313 612 313 632 c 128,-1,17
 313 652 313 652 325 664.5 c 128,-1,9
 337 677 337 677 357 677 c 128,-1,10
497 500 m 1,18,-1
 257 -90 l 2,19,20
 229 -159 229 -159 194.5 -187 c 128,-1,21
 160 -215 160 -215 107 -215 c 0,22,23
 42 -215 42 -215 8 -177 c 1,24,-1
 29 -128 l 1,25,26
 55 -165 55 -165 106 -165 c 0,27,28
 140 -165 140 -165 164 -145.5 c 128,-1,29
 188 -126 188 -126 208 -76 c 2,30,-1
 239 0 l 1,31,-1
 28 500 l 1,32,-1
 93 500 l 1,33,-1
 240 133 l 1,34,-1
 266 61 l 1,35,-1
 295 140 l 1,36,-1
 435 500 l 1,37,-1
 497 500 l 1,18,-1
EndSplineSet
Substitution2: "Single Substitution lookup 57 subtable" ydieresis.swsh
Substitution2: "'swsh' Swash lookup 38 subtable" ydieresis.swsh
Substitution2: "'smcp' Lowercase to Small Capitals lookup 12 subtable" ydieresis.sc
AlternateSubs2: "'aalt' Access All Alternates lookup 1 subtable" ydieresis.sc ydieresis.swsh
EndChar

StartChar: Amacron
Encoding: 256 256 194
Width: 633
GlyphClass: 2
Flags: W
LayerCount: 2
Fore
SplineSet
480 807 m 1,0,-1
 480 759 l 1,1,-1
 154 759 l 1,2,-1
 154 807 l 1,3,-1
 480 807 l 1,0,-1
552 0 m 1,4,-1
 472 201 l 1,5,-1
 160 201 l 1,6,-1
 81 0 l 1,7,-1
 21 0 l 1,8,-1
 283 660 l 1,9,-1
 351 660 l 1,10,-1
 612 0 l 1,11,-1
 552 0 l 1,4,-1
181 254 m 1,12,-1
 451 254 l 1,13,-1
 343 529 l 1,14,-1
 317 605 l 1,15,-1
 315 605 l 1,16,-1
 291 532 l 1,17,-1
 181 254 l 1,12,-1
EndSplineSet
Substitution2: "Single Substitution lookup 56 subtable" Amacron.swsh
Substitution2: "'swsh' Swash lookup 32 subtable" Amacron.swsh
Substitution2: "'c2sc' Capitals to Small Capitals lookup 11 subtable" amacron.sc
AlternateSubs2: "'aalt' Access All Alternates lookup 1 subtable" amacron.sc Amacron.swsh
EndChar

StartChar: amacron
Encoding: 257 257 195
Width: 548
GlyphClass: 2
Flags: W
LayerCount: 2
Fore
SplineSet
427 647 m 1,0,-1
 427 599 l 1,1,-1
 101 599 l 1,2,-1
 101 647 l 1,3,-1
 427 647 l 1,0,-1
494 39 m 0,4,5
 516 39 516 39 533 45 c 1,6,-1
 530 0 l 1,7,8
 510 -10 510 -10 478 -10 c 0,9,10
 402 -10 402 -10 394 72 c 1,11,12
 371 34 371 34 322 12 c 128,-1,13
 273 -10 273 -10 218 -10 c 0,14,15
 144 -10 144 -10 98.5 23.5 c 128,-1,16
 53 57 53 57 53 118 c 0,17,18
 53 237 53 237 244 270 c 2,19,-1
 393 296 l 1,20,-1
 393 336 l 2,21,22
 393 394 393 394 358.5 427 c 128,-1,23
 324 460 324 460 261 460 c 0,24,25
 146 460 146 460 105 357 c 1,26,-1
 62 388 l 1,27,28
 83 446 83 446 135.5 478 c 128,-1,29
 188 510 188 510 261 510 c 0,30,31
 348 510 348 510 399 467.5 c 128,-1,32
 450 425 450 425 450 343 c 2,33,-1
 450 88 l 2,34,35
 450 39 450 39 494 39 c 0,4,5
222 40 m 0,36,37
 288 40 288 40 340.5 73 c 128,-1,38
 393 106 393 106 393 162 c 2,39,-1
 393 249 l 1,40,-1
 262 225 l 2,41,42
 112 198 112 198 112 118 c 0,43,44
 112 81 112 81 141 60.5 c 128,-1,45
 170 40 170 40 222 40 c 0,36,37
EndSplineSet
Substitution2: "'smcp' Lowercase to Small Capitals lookup 12 subtable" amacron.sc
Substitution2: "'aalt' Access All Alternates lookup 0 subtable" amacron.sc
EndChar

StartChar: Abreve
Encoding: 258 258 196
Width: 633
GlyphClass: 2
Flags: W
LayerCount: 2
Fore
SplineSet
317 738 m 0,0,1
 254 738 254 738 216.5 776 c 128,-1,2
 179 814 179 814 179 877 c 1,3,-1
 226 877 l 1,4,5
 226 836 226 836 251.5 809 c 128,-1,6
 277 782 277 782 317 782 c 128,-1,7
 357 782 357 782 382.5 809 c 128,-1,8
 408 836 408 836 408 877 c 1,9,-1
 455 877 l 1,10,11
 455 814 455 814 417 776 c 128,-1,12
 379 738 379 738 317 738 c 0,0,1
552 0 m 1,13,-1
 472 201 l 1,14,-1
 160 201 l 1,15,-1
 81 0 l 1,16,-1
 21 0 l 1,17,-1
 283 660 l 1,18,-1
 351 660 l 1,19,-1
 612 0 l 1,20,-1
 552 0 l 1,13,-1
181 254 m 1,21,-1
 451 254 l 1,22,-1
 343 529 l 1,23,-1
 317 605 l 1,24,-1
 315 605 l 1,25,-1
 291 532 l 1,26,-1
 181 254 l 1,21,-1
EndSplineSet
Substitution2: "Single Substitution lookup 56 subtable" Abreve.swsh
Substitution2: "'swsh' Swash lookup 32 subtable" Abreve.swsh
Substitution2: "'c2sc' Capitals to Small Capitals lookup 11 subtable" abreve.sc
AlternateSubs2: "'aalt' Access All Alternates lookup 1 subtable" abreve.sc Abreve.swsh
EndChar

StartChar: abreve
Encoding: 259 259 197
Width: 548
GlyphClass: 2
Flags: W
LayerCount: 2
Fore
SplineSet
264 578 m 0,0,1
 201 578 201 578 163.5 616 c 128,-1,2
 126 654 126 654 126 717 c 1,3,-1
 173 717 l 1,4,5
 173 676 173 676 198.5 649 c 128,-1,6
 224 622 224 622 264 622 c 128,-1,7
 304 622 304 622 329.5 649 c 128,-1,8
 355 676 355 676 355 717 c 1,9,-1
 402 717 l 1,10,11
 402 654 402 654 364 616 c 128,-1,12
 326 578 326 578 264 578 c 0,0,1
494 39 m 0,13,14
 516 39 516 39 533 45 c 1,15,-1
 530 0 l 1,16,17
 510 -10 510 -10 478 -10 c 0,18,19
 402 -10 402 -10 394 72 c 1,20,21
 371 34 371 34 322 12 c 128,-1,22
 273 -10 273 -10 218 -10 c 0,23,24
 144 -10 144 -10 98.5 23.5 c 128,-1,25
 53 57 53 57 53 118 c 0,26,27
 53 237 53 237 244 270 c 2,28,-1
 393 296 l 1,29,-1
 393 336 l 2,30,31
 393 394 393 394 358.5 427 c 128,-1,32
 324 460 324 460 261 460 c 0,33,34
 146 460 146 460 105 357 c 1,35,-1
 62 388 l 1,36,37
 83 446 83 446 135.5 478 c 128,-1,38
 188 510 188 510 261 510 c 0,39,40
 348 510 348 510 399 467.5 c 128,-1,41
 450 425 450 425 450 343 c 2,42,-1
 450 88 l 2,43,44
 450 39 450 39 494 39 c 0,13,14
222 40 m 0,45,46
 288 40 288 40 340.5 73 c 128,-1,47
 393 106 393 106 393 162 c 2,48,-1
 393 249 l 1,49,-1
 262 225 l 2,50,51
 112 198 112 198 112 118 c 0,52,53
 112 81 112 81 141 60.5 c 128,-1,54
 170 40 170 40 222 40 c 0,45,46
EndSplineSet
Substitution2: "'smcp' Lowercase to Small Capitals lookup 12 subtable" abreve.sc
Substitution2: "'aalt' Access All Alternates lookup 0 subtable" abreve.sc
EndChar

StartChar: Aogonek
Encoding: 260 260 198
Width: 633
GlyphClass: 2
Flags: W
LayerCount: 2
Fore
SplineSet
613 -153 m 1,0,-1
 625 -191 l 1,1,2
 596 -210 596 -210 547 -210 c 128,-1,3
 498 -210 498 -210 468.5 -185.5 c 128,-1,4
 439 -161 439 -161 439 -116 c 0,5,6
 439 -36 439 -36 548 11 c 1,7,-1
 472 201 l 1,8,-1
 160 201 l 1,9,-1
 81 0 l 1,10,-1
 21 0 l 1,11,-1
 283 660 l 1,12,-1
 351 660 l 1,13,-1
 612 0 l 1,14,-1
 613 0 l 1,15,16
 542 -25 542 -25 514 -52 c 128,-1,17
 486 -79 486 -79 486 -112 c 0,18,19
 486 -139 486 -139 504.5 -154 c 128,-1,20
 523 -169 523 -169 553 -169 c 0,21,22
 590 -169 590 -169 613 -153 c 1,0,-1
181 254 m 1,23,-1
 451 254 l 1,24,-1
 343 529 l 1,25,-1
 317 605 l 1,26,-1
 315 605 l 1,27,-1
 291 532 l 1,28,-1
 181 254 l 1,23,-1
EndSplineSet
Substitution2: "Single Substitution lookup 56 subtable" Aogonek.swsh
Substitution2: "'swsh' Swash lookup 32 subtable" Aogonek.swsh
Substitution2: "'c2sc' Capitals to Small Capitals lookup 11 subtable" aogonek.sc
AlternateSubs2: "'aalt' Access All Alternates lookup 1 subtable" aogonek.sc Aogonek.swsh
EndChar

StartChar: aogonek
Encoding: 261 261 199
Width: 548
GlyphClass: 2
Flags: W
LayerCount: 2
Fore
SplineSet
463 -169 m 0,0,1
 501 -169 501 -169 521 -155 c 1,2,-1
 533 -193 l 1,3,4
 505 -210 505 -210 459 -210 c 0,5,6
 411 -210 411 -210 381.5 -186 c 128,-1,7
 352 -162 352 -162 352 -122 c 0,8,9
 352 -48 352 -48 447 -2 c 1,10,11
 403 17 403 17 395 74 c 1,12,13
 373 34 373 34 323 12 c 128,-1,14
 273 -10 273 -10 218 -10 c 0,15,16
 144 -10 144 -10 98.5 23.5 c 128,-1,17
 53 57 53 57 53 118 c 0,18,19
 53 237 53 237 244 270 c 2,20,-1
 393 296 l 1,21,-1
 393 336 l 2,22,23
 393 394 393 394 358.5 427 c 128,-1,24
 324 460 324 460 261 460 c 0,25,26
 147 460 147 460 105 357 c 1,27,-1
 62 388 l 1,28,29
 83 446 83 446 135.5 478 c 128,-1,30
 188 510 188 510 261 510 c 0,31,32
 348 510 348 510 399 467.5 c 128,-1,33
 450 425 450 425 450 343 c 2,34,-1
 450 88 l 2,35,36
 450 39 450 39 494 39 c 0,37,38
 516 39 516 39 533 45 c 1,39,-1
 530 0 l 1,40,-1
 529 -1 l 1,41,42
 457 -26 457 -26 428 -52 c 128,-1,43
 399 -78 399 -78 399 -113 c 0,44,45
 399 -139 399 -139 416.5 -154 c 128,-1,46
 434 -169 434 -169 463 -169 c 0,0,1
222 40 m 0,47,48
 288 40 288 40 340.5 73 c 128,-1,49
 393 106 393 106 393 162 c 2,50,-1
 393 249 l 1,51,-1
 262 225 l 2,52,53
 184 210 184 210 148 184.5 c 128,-1,54
 112 159 112 159 112 118 c 0,55,56
 112 81 112 81 141 60.5 c 128,-1,57
 170 40 170 40 222 40 c 0,47,48
EndSplineSet
Substitution2: "'smcp' Lowercase to Small Capitals lookup 12 subtable" aogonek.sc
Substitution2: "'aalt' Access All Alternates lookup 0 subtable" aogonek.sc
EndChar

StartChar: Cacute
Encoding: 262 262 200
Width: 673
GlyphClass: 2
Flags: W
LayerCount: 2
Fore
SplineSet
397 891 m 1,0,-1
 463 891 l 1,1,-1
 380 743 l 1,2,-1
 333 743 l 1,3,-1
 397 891 l 1,0,-1
629 168 m 1,4,5
 600 84 600 84 530.5 37 c 128,-1,6
 461 -10 461 -10 365 -10 c 0,7,8
 227 -10 227 -10 145.5 82 c 128,-1,9
 64 174 64 174 64 330 c 128,-1,10
 64 486 64 486 146 578 c 128,-1,11
 228 670 228 670 364 670 c 0,12,13
 561 670 561 670 620 509 c 1,14,-1
 564 483 l 1,15,16
 517 617 517 617 368 617 c 0,17,18
 257 617 257 617 190 540 c 128,-1,19
 123 463 123 463 123 330 c 128,-1,20
 123 197 123 197 188.5 120 c 128,-1,21
 254 43 254 43 365 43 c 0,22,23
 442 43 442 43 496.5 80.5 c 128,-1,24
 551 118 551 118 573 189 c 1,25,-1
 629 168 l 1,4,5
EndSplineSet
Substitution2: "'c2sc' Capitals to Small Capitals lookup 11 subtable" cacute.sc
Substitution2: "'aalt' Access All Alternates lookup 0 subtable" cacute.sc
EndChar

StartChar: cacute
Encoding: 263 263 201
Width: 550
GlyphClass: 2
Flags: W
LayerCount: 2
Fore
SplineSet
334 743 m 1,0,-1
 396 743 l 1,1,-1
 301 583 l 1,2,-1
 254 583 l 1,3,-1
 334 743 l 1,0,-1
296 510 m 0,4,5
 371 510 371 510 423 475 c 128,-1,6
 475 440 475 440 499 376 c 1,7,-1
 445 350 l 1,8,9
 412 460 412 460 294 460 c 0,10,11
 210 460 210 460 162.5 404 c 128,-1,12
 115 348 115 348 115 250 c 128,-1,13
 115 152 115 152 162 96 c 128,-1,14
 209 40 209 40 293 40 c 0,15,16
 356 40 356 40 398.5 70.5 c 128,-1,17
 441 101 441 101 451 155 c 1,18,-1
 504 137 l 1,19,20
 483 68 483 68 428 29 c 128,-1,21
 373 -10 373 -10 295 -10 c 0,22,23
 183 -10 183 -10 120.5 59 c 128,-1,24
 58 128 58 128 58 250 c 128,-1,25
 58 372 58 372 121 441 c 128,-1,26
 184 510 184 510 296 510 c 0,4,5
EndSplineSet
Substitution2: "'smcp' Lowercase to Small Capitals lookup 12 subtable" cacute.sc
Substitution2: "'aalt' Access All Alternates lookup 0 subtable" cacute.sc
EndChar

StartChar: Ccaron
Encoding: 268 268 202
Width: 673
GlyphClass: 2
Flags: W
LayerCount: 2
Fore
SplineSet
505 898 m 1,0,-1
 392 740 l 1,1,-1
 328 740 l 1,2,-1
 215 898 l 1,3,-1
 268 898 l 1,4,-1
 360 778 l 1,5,-1
 452 898 l 1,6,-1
 505 898 l 1,0,-1
629 168 m 1,7,8
 600 84 600 84 530.5 37 c 128,-1,9
 461 -10 461 -10 365 -10 c 0,10,11
 227 -10 227 -10 145.5 82 c 128,-1,12
 64 174 64 174 64 330 c 128,-1,13
 64 486 64 486 146 578 c 128,-1,14
 228 670 228 670 364 670 c 0,15,16
 561 670 561 670 620 509 c 1,17,-1
 564 483 l 1,18,19
 517 617 517 617 368 617 c 0,20,21
 257 617 257 617 190 540 c 128,-1,22
 123 463 123 463 123 330 c 128,-1,23
 123 197 123 197 188.5 120 c 128,-1,24
 254 43 254 43 365 43 c 0,25,26
 442 43 442 43 496.5 80.5 c 128,-1,27
 551 118 551 118 573 189 c 1,28,-1
 629 168 l 1,7,8
EndSplineSet
Substitution2: "'c2sc' Capitals to Small Capitals lookup 11 subtable" ccaron.sc
Substitution2: "'aalt' Access All Alternates lookup 0 subtable" ccaron.sc
EndChar

StartChar: ccaron
Encoding: 269 269 203
Width: 550
GlyphClass: 2
Flags: W
LayerCount: 2
Fore
SplineSet
431 741 m 1,0,-1
 321 583 l 1,1,-1
 255 583 l 1,2,-1
 145 741 l 1,3,-1
 198 741 l 1,4,-1
 288 624 l 1,5,-1
 378 741 l 1,6,-1
 431 741 l 1,0,-1
296 510 m 0,7,8
 371 510 371 510 423 475 c 128,-1,9
 475 440 475 440 499 376 c 1,10,-1
 445 350 l 1,11,12
 412 460 412 460 294 460 c 0,13,14
 210 460 210 460 162.5 404 c 128,-1,15
 115 348 115 348 115 250 c 128,-1,16
 115 152 115 152 162 96 c 128,-1,17
 209 40 209 40 293 40 c 0,18,19
 356 40 356 40 398.5 70.5 c 128,-1,20
 441 101 441 101 451 155 c 1,21,-1
 504 137 l 1,22,23
 483 68 483 68 428 29 c 128,-1,24
 373 -10 373 -10 295 -10 c 0,25,26
 183 -10 183 -10 120.5 59 c 128,-1,27
 58 128 58 128 58 250 c 128,-1,28
 58 372 58 372 121 441 c 128,-1,29
 184 510 184 510 296 510 c 0,7,8
EndSplineSet
Substitution2: "'smcp' Lowercase to Small Capitals lookup 12 subtable" ccaron.sc
Substitution2: "'aalt' Access All Alternates lookup 0 subtable" ccaron.sc
EndChar

StartChar: Dcaron
Encoding: 270 270 204
Width: 708
GlyphClass: 2
Flags: W
LayerCount: 2
Fore
SplineSet
351 740 m 1,0,-1
 287 740 l 1,1,-1
 174 898 l 1,2,-1
 227 898 l 1,3,-1
 319 778 l 1,4,-1
 411 898 l 1,5,-1
 464 898 l 1,6,-1
 351 740 l 1,0,-1
314 660 m 2,7,8
 472 660 472 660 558 576 c 128,-1,9
 644 492 644 492 644 334 c 0,10,11
 644 173 644 173 558 86.5 c 128,-1,12
 472 0 472 0 314 0 c 2,13,-1
 105 0 l 1,14,-1
 105 660 l 1,15,-1
 314 660 l 2,7,8
319 53 m 2,16,17
 446 53 446 53 515 126 c 128,-1,18
 584 199 584 199 584 334 c 0,19,20
 584 465 584 465 515 536 c 128,-1,21
 446 607 446 607 319 607 c 2,22,-1
 162 607 l 1,23,-1
 162 53 l 1,24,-1
 319 53 l 2,16,17
EndSplineSet
Substitution2: "'c2sc' Capitals to Small Capitals lookup 11 subtable" dcaron.sc
Substitution2: "'aalt' Access All Alternates lookup 0 subtable" dcaron.sc
EndChar

StartChar: dcaron
Encoding: 271 271 205
Width: 625
GlyphClass: 2
Flags: W
LayerCount: 2
Fore
SplineSet
467 401 m 1,0,-1
 467 730 l 1,1,-1
 524 730 l 1,2,-1
 524 0 l 1,3,-1
 473 0 l 1,4,-1
 470 105 l 1,5,6
 448 52 448 52 399.5 21 c 128,-1,7
 351 -10 351 -10 287 -10 c 0,8,9
 181 -10 181 -10 120 59 c 128,-1,10
 59 128 59 128 59 250 c 128,-1,11
 59 372 59 372 120 441 c 128,-1,12
 181 510 181 510 287 510 c 0,13,14
 350 510 350 510 397 481 c 128,-1,15
 444 452 444 452 467 401 c 1,0,-1
613 730 m 1,16,-1
 668 730 l 1,17,-1
 631 533 l 1,18,-1
 591 533 l 1,19,-1
 613 730 l 1,16,-1
294 40 m 0,20,21
 370 40 370 40 416.5 91 c 128,-1,22
 463 142 463 142 467 231 c 1,23,-1
 467 269 l 1,24,25
 463 358 463 358 416.5 409 c 128,-1,26
 370 460 370 460 294 460 c 0,27,28
 210 460 210 460 163 404 c 128,-1,29
 116 348 116 348 116 250 c 128,-1,30
 116 152 116 152 163 96 c 128,-1,31
 210 40 210 40 294 40 c 0,20,21
EndSplineSet
Substitution2: "'smcp' Lowercase to Small Capitals lookup 12 subtable" dcaron.sc
Substitution2: "'aalt' Access All Alternates lookup 0 subtable" dcaron.sc
EndChar

StartChar: Dcroat
Encoding: 272 272 206
Width: 720
GlyphClass: 2
Flags: W
LayerCount: 2
Fore
SplineSet
327 660 m 2,0,1
 485 660 485 660 571 576 c 128,-1,2
 657 492 657 492 657 334 c 0,3,4
 657 173 657 173 571 86.5 c 128,-1,5
 485 0 485 0 327 0 c 2,6,-1
 118 0 l 1,7,-1
 118 312 l 1,8,-1
 18 312 l 1,9,-1
 18 355 l 1,10,-1
 118 355 l 1,11,-1
 118 660 l 1,12,-1
 327 660 l 2,0,1
332 53 m 2,13,14
 459 53 459 53 528 126 c 128,-1,15
 597 199 597 199 597 334 c 0,16,17
 597 465 597 465 528 536 c 128,-1,18
 459 607 459 607 332 607 c 2,19,-1
 175 607 l 1,20,-1
 175 355 l 1,21,-1
 375 355 l 1,22,-1
 375 312 l 1,23,-1
 175 312 l 1,24,-1
 175 53 l 1,25,-1
 332 53 l 2,13,14
EndSplineSet
Substitution2: "'c2sc' Capitals to Small Capitals lookup 11 subtable" dcroat.sc
Substitution2: "'aalt' Access All Alternates lookup 0 subtable" dcroat.sc
EndChar

StartChar: dcroat
Encoding: 273 273 207
Width: 613
GlyphClass: 2
Flags: W
LayerCount: 2
Fore
SplineSet
608 619 m 1,0,-1
 608 576 l 1,1,-1
 524 576 l 1,2,-1
 524 0 l 1,3,-1
 473 0 l 1,4,-1
 470 105 l 1,5,6
 448 52 448 52 399.5 21 c 128,-1,7
 351 -10 351 -10 287 -10 c 0,8,9
 181 -10 181 -10 120 59 c 128,-1,10
 59 128 59 128 59 250 c 128,-1,11
 59 372 59 372 120 441 c 128,-1,12
 181 510 181 510 287 510 c 0,13,14
 350 510 350 510 397 481 c 128,-1,15
 444 452 444 452 467 401 c 1,16,-1
 467 576 l 1,17,-1
 301 576 l 1,18,-1
 301 619 l 1,19,-1
 467 619 l 1,20,-1
 467 730 l 1,21,-1
 524 730 l 1,22,-1
 524 619 l 1,23,-1
 608 619 l 1,0,-1
294 40 m 0,24,25
 370 40 370 40 416.5 91 c 128,-1,26
 463 142 463 142 467 231 c 1,27,-1
 467 269 l 1,28,29
 463 358 463 358 416.5 409 c 128,-1,30
 370 460 370 460 294 460 c 0,31,32
 210 460 210 460 163 404 c 128,-1,33
 116 348 116 348 116 250 c 128,-1,34
 116 152 116 152 163 96 c 128,-1,35
 210 40 210 40 294 40 c 0,24,25
EndSplineSet
Substitution2: "'smcp' Lowercase to Small Capitals lookup 12 subtable" dcroat.sc
Substitution2: "'aalt' Access All Alternates lookup 0 subtable" dcroat.sc
EndChar

StartChar: Emacron
Encoding: 274 274 208
Width: 618
GlyphClass: 2
Flags: W
AnchorPoint: "Anchor-0" 331 0 basechar 0
LayerCount: 2
Fore
SplineSet
494 807 m 1,0,-1
 494 759 l 1,1,-1
 168 759 l 1,2,-1
 168 807 l 1,3,-1
 494 807 l 1,0,-1
162 53 m 1,4,-1
 574 53 l 1,5,-1
 574 0 l 1,6,-1
 105 0 l 1,7,-1
 105 660 l 1,8,-1
 558 660 l 1,9,-1
 558 607 l 1,10,-1
 162 607 l 1,11,-1
 162 362 l 1,12,-1
 474 362 l 1,13,-1
 474 309 l 1,14,-1
 162 309 l 1,15,-1
 162 53 l 1,4,-1
EndSplineSet
Substitution2: "Single Substitution lookup 57 subtable" Emacron.swsh.001
Substitution2: "Single Substitution lookup 56 subtable" Emacron.swsh
AlternateSubs2: "'swsh' Swash lookup 33 subtable" Emacron.swsh Emacron.swsh.001
Substitution2: "'c2sc' Capitals to Small Capitals lookup 11 subtable" emacron.sc
AlternateSubs2: "'aalt' Access All Alternates lookup 1 subtable" emacron.sc Emacron.swsh Emacron.swsh.001
EndChar

StartChar: emacron
Encoding: 275 275 209
Width: 564
GlyphClass: 2
Flags: W
AnchorPoint: "Anchor-0" 297 0 basechar 0
LayerCount: 2
Fore
SplineSet
449 647 m 1,0,-1
 449 599 l 1,1,-1
 123 599 l 1,2,-1
 123 647 l 1,3,-1
 449 647 l 1,0,-1
509 265 m 0,4,5
 509 247 509 247 507 227 c 1,6,-1
 115 227 l 1,7,8
 120 139 120 139 167.5 89.5 c 128,-1,9
 215 40 215 40 295 40 c 0,10,11
 353 40 353 40 394.5 63 c 128,-1,12
 436 86 436 86 454 128 c 1,13,-1
 501 103 l 1,14,15
 442 -10 442 -10 295 -10 c 0,16,17
 184 -10 184 -10 121 59 c 128,-1,18
 58 128 58 128 58 250 c 128,-1,19
 58 372 58 372 119 441 c 128,-1,20
 180 510 180 510 290 510 c 0,21,22
 393 510 393 510 451 442 c 128,-1,23
 509 374 509 374 509 265 c 0,4,5
290 460 m 0,24,25
 212 460 212 460 166.5 412.5 c 128,-1,26
 121 365 121 365 115 278 c 1,27,-1
 455 278 l 1,28,29
 449 364 449 364 406 412 c 128,-1,30
 363 460 363 460 290 460 c 0,24,25
EndSplineSet
Substitution2: "'smcp' Lowercase to Small Capitals lookup 12 subtable" emacron.sc
Substitution2: "'aalt' Access All Alternates lookup 0 subtable" emacron.sc
EndChar

StartChar: Edotaccent
Encoding: 278 278 210
Width: 618
GlyphClass: 2
Flags: W
AnchorPoint: "Anchor-0" 331 0 basechar 0
LayerCount: 2
Fore
SplineSet
331 757 m 128,-1,1
 310 757 310 757 297.5 769.5 c 128,-1,2
 285 782 285 782 285 803 c 128,-1,3
 285 824 285 824 297.5 836.5 c 128,-1,4
 310 849 310 849 331 849 c 128,-1,5
 352 849 352 849 364.5 836.5 c 128,-1,6
 377 824 377 824 377 803 c 128,-1,7
 377 782 377 782 364.5 769.5 c 128,-1,0
 352 757 352 757 331 757 c 128,-1,1
162 53 m 1,8,-1
 574 53 l 1,9,-1
 574 0 l 1,10,-1
 105 0 l 1,11,-1
 105 660 l 1,12,-1
 558 660 l 1,13,-1
 558 607 l 1,14,-1
 162 607 l 1,15,-1
 162 362 l 1,16,-1
 474 362 l 1,17,-1
 474 309 l 1,18,-1
 162 309 l 1,19,-1
 162 53 l 1,8,-1
EndSplineSet
Substitution2: "Single Substitution lookup 57 subtable" Edotaccent.swsh.001
Substitution2: "Single Substitution lookup 56 subtable" Edotaccent.swsh
AlternateSubs2: "'swsh' Swash lookup 33 subtable" Edotaccent.swsh Edotaccent.swsh.001
Substitution2: "'c2sc' Capitals to Small Capitals lookup 11 subtable" edotaccent.sc
AlternateSubs2: "'aalt' Access All Alternates lookup 1 subtable" edotaccent.sc Edotaccent.swsh Edotaccent.swsh.001
EndChar

StartChar: edotaccent
Encoding: 279 279 211
Width: 564
GlyphClass: 2
Flags: W
AnchorPoint: "Anchor-0" 297 0 basechar 0
LayerCount: 2
Fore
SplineSet
286 597 m 128,-1,1
 265 597 265 597 252.5 609.5 c 128,-1,2
 240 622 240 622 240 643 c 128,-1,3
 240 664 240 664 252.5 676.5 c 128,-1,4
 265 689 265 689 286 689 c 128,-1,5
 307 689 307 689 319.5 676.5 c 128,-1,6
 332 664 332 664 332 643 c 128,-1,7
 332 622 332 622 319.5 609.5 c 128,-1,0
 307 597 307 597 286 597 c 128,-1,1
509 265 m 0,8,9
 509 247 509 247 507 227 c 1,10,-1
 115 227 l 1,11,12
 120 139 120 139 167.5 89.5 c 128,-1,13
 215 40 215 40 295 40 c 0,14,15
 353 40 353 40 394.5 63 c 128,-1,16
 436 86 436 86 454 128 c 1,17,-1
 501 103 l 1,18,19
 442 -10 442 -10 295 -10 c 0,20,21
 184 -10 184 -10 121 59 c 128,-1,22
 58 128 58 128 58 250 c 128,-1,23
 58 372 58 372 119 441 c 128,-1,24
 180 510 180 510 290 510 c 0,25,26
 393 510 393 510 451 442 c 128,-1,27
 509 374 509 374 509 265 c 0,8,9
290 460 m 0,28,29
 212 460 212 460 166.5 412.5 c 128,-1,30
 121 365 121 365 115 278 c 1,31,-1
 455 278 l 1,32,33
 449 364 449 364 406 412 c 128,-1,34
 363 460 363 460 290 460 c 0,28,29
EndSplineSet
Substitution2: "'smcp' Lowercase to Small Capitals lookup 12 subtable" edotaccent.sc
Substitution2: "'aalt' Access All Alternates lookup 0 subtable" edotaccent.sc
EndChar

StartChar: Eogonek
Encoding: 280 280 212
Width: 618
GlyphClass: 2
Flags: W
AnchorPoint: "Anchor-0" 331 0 basechar 0
LayerCount: 2
Fore
SplineSet
574 -153 m 1,0,-1
 586 -191 l 1,1,2
 558 -210 558 -210 508 -210 c 0,3,4
 459 -210 459 -210 429.5 -186 c 128,-1,5
 400 -162 400 -162 400 -120 c 128,-1,6
 400 -78 400 -78 424 -49.5 c 128,-1,7
 448 -21 448 -21 499 0 c 1,8,-1
 105 0 l 1,9,-1
 105 660 l 1,10,-1
 558 660 l 1,11,-1
 558 607 l 1,12,-1
 162 607 l 1,13,-1
 162 362 l 1,14,-1
 474 362 l 1,15,-1
 474 309 l 1,16,-1
 162 309 l 1,17,-1
 162 53 l 1,18,-1
 574 53 l 1,19,-1
 574 0 l 1,20,21
 503 -25 503 -25 475 -52 c 128,-1,22
 447 -79 447 -79 447 -112 c 0,23,24
 447 -139 447 -139 465.5 -154 c 128,-1,25
 484 -169 484 -169 514 -169 c 0,26,27
 551 -169 551 -169 574 -153 c 1,0,-1
EndSplineSet
Substitution2: "'c2sc' Capitals to Small Capitals lookup 11 subtable" eogonek.sc
Substitution2: "'aalt' Access All Alternates lookup 0 subtable" eogonek.sc
EndChar

StartChar: eogonek
Encoding: 281 281 213
Width: 564
GlyphClass: 2
Flags: W
AnchorPoint: "Anchor-0" 297 0 basechar 0
LayerCount: 2
Fore
SplineSet
509 265 m 0,0,1
 509 247 509 247 507 227 c 1,2,-1
 115 227 l 1,3,4
 120 139 120 139 167.5 89.5 c 128,-1,5
 215 40 215 40 295 40 c 0,6,7
 353 40 353 40 394.5 63 c 128,-1,8
 436 86 436 86 454 128 c 1,9,-1
 501 103 l 1,10,11
 462 28 462 28 382 2 c 1,12,13
 284 -55 284 -55 284 -109 c 0,14,15
 284 -137 284 -137 302.5 -153 c 128,-1,16
 321 -169 321 -169 351 -169 c 0,17,18
 386 -169 386 -169 410 -154 c 1,19,-1
 422 -191 l 1,20,21
 394 -210 394 -210 344 -210 c 0,22,23
 296 -210 296 -210 266 -184.5 c 128,-1,24
 236 -159 236 -159 236 -117 c 0,25,26
 236 -56 236 -56 302 -10 c 1,27,-1
 295 -10 l 2,28,29
 184 -10 184 -10 121 59 c 128,-1,30
 58 128 58 128 58 250 c 128,-1,31
 58 372 58 372 119 441 c 128,-1,32
 180 510 180 510 290 510 c 0,33,34
 393 510 393 510 451 442 c 128,-1,35
 509 374 509 374 509 265 c 0,0,1
290 460 m 0,36,37
 212 460 212 460 166.5 412.5 c 128,-1,38
 121 365 121 365 115 278 c 1,39,-1
 455 278 l 1,40,41
 449 364 449 364 406 412 c 128,-1,42
 363 460 363 460 290 460 c 0,36,37
EndSplineSet
Substitution2: "'smcp' Lowercase to Small Capitals lookup 12 subtable" eogonek.sc
Substitution2: "'aalt' Access All Alternates lookup 0 subtable" eogonek.sc
EndChar

StartChar: Ecaron
Encoding: 282 282 214
Width: 618
GlyphClass: 2
Flags: W
AnchorPoint: "Anchor-0" 331 0 basechar 0
LayerCount: 2
Fore
SplineSet
363 740 m 1,0,-1
 299 740 l 1,1,-1
 186 898 l 1,2,-1
 239 898 l 1,3,-1
 331 778 l 1,4,-1
 423 898 l 1,5,-1
 476 898 l 1,6,-1
 363 740 l 1,0,-1
162 53 m 1,7,-1
 574 53 l 1,8,-1
 574 0 l 1,9,-1
 105 0 l 1,10,-1
 105 660 l 1,11,-1
 558 660 l 1,12,-1
 558 607 l 1,13,-1
 162 607 l 1,14,-1
 162 362 l 1,15,-1
 474 362 l 1,16,-1
 474 309 l 1,17,-1
 162 309 l 1,18,-1
 162 53 l 1,7,-1
EndSplineSet
Substitution2: "Single Substitution lookup 57 subtable" Ecaron.swsh.001
Substitution2: "Single Substitution lookup 56 subtable" Ecaron.swsh
AlternateSubs2: "'swsh' Swash lookup 33 subtable" Ecaron.swsh Ecaron.swsh.001
Substitution2: "'c2sc' Capitals to Small Capitals lookup 11 subtable" ecaron.sc
AlternateSubs2: "'aalt' Access All Alternates lookup 1 subtable" ecaron.sc Ecaron.swsh Ecaron.swsh.001
EndChar

StartChar: ecaron
Encoding: 283 283 215
Width: 564
GlyphClass: 2
Flags: W
AnchorPoint: "Anchor-0" 297 0 basechar 0
LayerCount: 2
Fore
SplineSet
319 583 m 1,0,-1
 253 583 l 1,1,-1
 143 741 l 1,2,-1
 196 741 l 1,3,-1
 286 624 l 1,4,-1
 376 741 l 1,5,-1
 429 741 l 1,6,-1
 319 583 l 1,0,-1
509 265 m 0,7,8
 509 247 509 247 507 227 c 1,9,-1
 115 227 l 1,10,11
 120 139 120 139 167.5 89.5 c 128,-1,12
 215 40 215 40 295 40 c 0,13,14
 353 40 353 40 394.5 63 c 128,-1,15
 436 86 436 86 454 128 c 1,16,-1
 501 103 l 1,17,18
 442 -10 442 -10 295 -10 c 0,19,20
 184 -10 184 -10 121 59 c 128,-1,21
 58 128 58 128 58 250 c 128,-1,22
 58 372 58 372 119 441 c 128,-1,23
 180 510 180 510 290 510 c 0,24,25
 393 510 393 510 451 442 c 128,-1,26
 509 374 509 374 509 265 c 0,7,8
290 460 m 0,27,28
 212 460 212 460 166.5 412.5 c 128,-1,29
 121 365 121 365 115 278 c 1,30,-1
 455 278 l 1,31,32
 449 364 449 364 406 412 c 128,-1,33
 363 460 363 460 290 460 c 0,27,28
EndSplineSet
Substitution2: "'smcp' Lowercase to Small Capitals lookup 12 subtable" ecaron.sc
Substitution2: "'aalt' Access All Alternates lookup 0 subtable" ecaron.sc
EndChar

